<svg xmlns="http://www.w3.org/2000/svg" xmlns:xlink="http://www.w3.org/1999/xlink" viewBox="0 0 954.4 230.32"><defs><style>.cls-1{fill:none;}.cls-2{clip-path:url(#clip-path);}.cls-3{fill:#7eb4c9;}.cls-4{fill:#add9ee;}.cls-5{fill:#fff;}.cls-6{clip-path:url(#clip-path-2);}.cls-7{fill:#050606;}.cls-8{fill:#efe38d;}.cls-9{fill:#231f20;}.cls-10{fill:#151539;}.cls-11{fill:#ae91c3;}.cls-12{fill:#c1b363;}.cls-13{clip-path:url(#clip-path-3);}.cls-14{clip-path:url(#clip-path-4);}.cls-15{fill:#8c4a20;}.cls-16{fill:#c22227;}.cls-17{fill:#552b14;}.cls-18{clip-path:url(#clip-path-5);}.cls-19{clip-path:url(#clip-path-6);}.cls-20{fill:#132015;}.cls-21{fill:#d3d3d3;}.cls-22{fill:#5cba47;}.cls-23{clip-path:url(#clip-path-7);}.cls-24{clip-path:url(#clip-path-8);}.cls-25{fill:#f9d9ba;}.cls-26{fill:#371f11;}.cls-27{fill:#1a1449;}.cls-28{fill:#b79274;}</style><clipPath id="clip-path" transform="translate(0 0)"><rect class="cls-1" x="723.79" width="230.61" height="230.32"/></clipPath><clipPath id="clip-path-2" transform="translate(0 0)"><rect class="cls-1" x="802.89" y="46.46" width="72.41" height="137.39"/></clipPath><clipPath id="clip-path-3" transform="translate(0 0)"><rect class="cls-1" x="241.93" width="230.61" height="230.32"/></clipPath><clipPath id="clip-path-4" transform="translate(0 0)"><rect class="cls-1" x="320.96" y="28.33" width="72.55" height="173.67"/></clipPath><clipPath id="clip-path-5" transform="translate(0 0)"><rect class="cls-1" x="482.86" width="230.61" height="230.32"/></clipPath><clipPath id="clip-path-6" transform="translate(0 0)"><rect class="cls-1" x="554.75" y="39.25" width="86.83" height="151.82"/></clipPath><clipPath id="clip-path-7" transform="translate(0 0)"><rect class="cls-1" width="230.61" height="230.32"/></clipPath><clipPath id="clip-path-8" transform="translate(0 0)"><rect class="cls-1" x="86.31" y="42.89" width="57.98" height="144.54"/></clipPath></defs><title>fe-bubbles</title><g id="Layer_2" data-name="Layer 2"><g id="Layer_1-2" data-name="Layer 1"><g id="Artwork_17" data-name="Artwork 17"><g class="cls-2"><polygon class="cls-3" points="939.43 74.28 939.43 81.76 939.43 89.25 939.43 96.45 939.43 96.73 946.92 96.73 946.92 103.93 946.92 111.42 946.92 118.9 946.92 126.39 946.92 133.88 954.4 133.88 954.4 96.45 946.92 96.45 946.92 89.25 946.92 81.76 946.92 74.28 939.43 74.28"/><polygon class="cls-3" points="939.43 141.07 939.43 141.36 939.43 148.56 939.43 156.04 946.92 156.04 946.92 148.56 946.92 141.36 946.92 141.07 946.92 133.88 939.43 133.88 939.43 141.07"/><path class="cls-4" d="M946.92,118.9V96.74h-7.49V74.28h-7.49V59.6h-7.48v-15h-7.2V37.14h-7.48V29.65h-15V22.46H880.12V15H857.67V7.49H820.53V15H798.36v7.49h-15v7.19h-15v7.49h-7.2v7.48h-7.49v15h-7.48V74.28h-7.49V96.74h-7.48v37.13h7.48V156h7.49v15h7.48V185.7h7.49v7.48h7.2v7.49h15v7.48h15v7.49h22.17v7.2h37.14v-7.2h22.45v-7.49h14.69v-7.48h15v-7.49h7.48V185.7h7.2V171h7.48V156h7.49V133.87h7.49v-15ZM753.73,96.74V89.25h7.49v-15H775.9v15h-7.48v14.68H753.73Zm29.66-44.63V44.62h7.48V37.14h15v15h-7.48V59.6h-7.49v7.19h-15V52.11Z" transform="translate(0 0)"/><polygon class="cls-3" points="931.95 163.53 931.95 171.01 939.43 171.01 939.43 163.53 939.43 156.04 931.95 156.04 931.95 163.53"/><polygon class="cls-3" points="924.46 178.21 924.46 178.5 924.46 185.7 931.95 185.7 931.95 178.5 931.95 178.21 931.95 171.01 924.46 171.01 924.46 178.21"/><polygon class="cls-3" points="924.46 59.31 924.46 59.6 931.95 59.6 931.95 66.79 931.95 74.28 939.43 74.28 939.43 66.79 939.43 59.31 931.95 59.31 931.95 52.11 931.95 44.63 924.46 44.63 924.46 52.11 924.46 59.31"/><rect class="cls-3" x="917.26" y="185.7" width="7.2" height="7.49"/><rect class="cls-3" x="917.26" y="37.14" width="7.2" height="7.49"/><polygon class="cls-3" points="909.78 193.18 909.78 200.67 917.26 200.67 917.26 193.18 916.97 193.18 909.78 193.18"/><polygon class="cls-3" points="916.97 37.14 917.26 37.14 917.26 29.65 909.78 29.65 909.78 37.14 916.97 37.14"/><polygon class="cls-3" points="894.8 200.67 894.8 208.15 902.29 208.15 909.78 208.15 909.78 200.67 902.29 200.67 894.8 200.67"/><polygon class="cls-3" points="880.12 208.15 880.12 215.35 880.12 215.64 887.32 215.64 894.8 215.64 894.8 208.15 887.32 208.15 880.12 208.15"/><polygon class="cls-3" points="880.12 22.46 887.32 22.46 894.8 22.46 894.8 29.65 902.29 29.65 909.78 29.65 909.78 22.17 902.29 22.17 894.8 22.17 894.8 14.97 887.32 14.97 880.12 14.97 880.12 22.17 880.12 22.46"/><polygon class="cls-3" points="872.64 215.64 865.15 215.64 857.67 215.64 857.67 222.84 865.15 222.84 872.64 222.84 880.12 222.84 880.12 215.64 879.83 215.64 872.64 215.64"/><polygon class="cls-3" points="865.15 14.97 872.64 14.97 879.83 14.97 880.12 14.97 880.12 7.49 872.64 7.49 865.15 7.49 857.67 7.49 857.67 14.97 865.15 14.97"/><polygon class="cls-3" points="850.18 222.84 842.98 222.84 842.7 222.84 835.5 222.84 828.01 222.84 820.53 222.84 820.53 230.32 828.01 230.32 835.5 230.32 842.7 230.32 842.98 230.32 850.18 230.32 857.67 230.32 857.67 222.84 850.18 222.84"/><polygon class="cls-3" points="820.53 0 820.53 7.49 828.01 7.49 835.5 7.49 842.7 7.49 842.98 7.49 850.18 7.49 857.67 7.49 857.67 0 820.53 0"/><polygon class="cls-3" points="813.04 215.64 805.84 215.64 805.55 215.64 798.36 215.64 798.36 222.84 805.55 222.84 805.84 222.84 813.04 222.84 820.53 222.84 820.53 215.64 813.04 215.64"/><polygon class="cls-3" points="805.84 14.97 813.04 14.97 820.53 14.97 820.53 7.49 813.04 7.49 805.84 7.49 805.55 7.49 798.36 7.49 798.36 14.97 805.55 14.97 805.84 14.97"/><polygon class="cls-3" points="798.36 208.15 790.87 208.15 783.39 208.15 783.39 215.64 790.87 215.64 798.36 215.64 798.36 215.35 798.36 208.15"/><polygon class="cls-3" points="775.9 200.67 768.42 200.67 768.42 208.15 775.9 208.15 783.39 208.15 783.39 200.67 775.9 200.67"/><polygon class="cls-5" points="775.9 59.6 775.9 66.79 783.39 66.79 790.87 66.79 790.87 59.6 798.36 59.6 798.36 59.31 798.36 52.11 805.55 52.11 805.84 52.11 805.84 44.63 805.84 37.14 805.55 37.14 798.36 37.14 790.87 37.14 790.87 44.63 783.39 44.63 783.39 52.11 775.9 52.11 775.9 59.31 775.9 59.6"/><polygon class="cls-3" points="783.39 29.65 783.39 22.46 790.87 22.46 798.36 22.46 798.36 22.17 798.36 14.97 790.87 14.97 783.39 14.97 783.39 22.17 775.9 22.17 768.42 22.17 768.42 29.65 775.9 29.65 783.39 29.65"/><polygon class="cls-3" points="761.22 193.18 761.22 185.7 760.93 185.7 753.73 185.7 753.73 193.18 760.93 193.18 760.93 200.67 768.42 200.67 768.42 193.18 761.22 193.18"/><polygon class="cls-5" points="761.22 103.93 768.42 103.93 768.42 96.73 768.42 96.45 768.42 89.25 775.9 89.25 775.9 81.76 775.9 74.28 768.42 74.28 761.22 74.28 761.22 81.76 761.22 89.25 760.93 89.25 753.73 89.25 753.73 96.45 753.73 96.73 753.73 103.93 760.93 103.93 761.22 103.93"/><polygon class="cls-3" points="761.22 44.63 761.22 37.14 768.42 37.14 768.42 29.65 760.93 29.65 760.93 37.14 753.73 37.14 753.73 44.63 760.93 44.63 761.22 44.63"/><polygon class="cls-3" points="753.73 178.21 753.73 171.01 746.25 171.01 746.25 178.21 746.25 178.5 746.25 185.7 753.73 185.7 753.73 178.5 753.73 178.21"/><polygon class="cls-3" points="746.25 156.04 738.76 156.04 738.76 163.53 738.76 171.01 746.25 171.01 746.25 163.53 746.25 156.04"/><polygon class="cls-3" points="746.25 66.79 746.25 59.6 753.73 59.6 753.73 59.31 753.73 52.11 753.73 44.63 746.25 44.63 746.25 52.11 746.25 59.31 738.76 59.31 738.76 66.79 738.76 74.28 746.25 74.28 746.25 66.79"/><polygon class="cls-3" points="738.76 141.36 738.76 141.07 738.76 133.88 731.28 133.88 731.28 141.07 731.28 141.36 731.28 148.56 731.28 156.04 738.76 156.04 738.76 148.56 738.76 141.36"/><polygon class="cls-3" points="731.28 74.28 731.28 81.76 731.28 89.25 731.28 96.45 723.79 96.45 723.79 103.93 723.79 111.42 723.79 118.9 723.79 126.39 723.79 133.88 731.28 133.88 731.28 126.39 731.28 118.9 731.28 111.42 731.28 103.93 731.28 96.73 738.76 96.73 738.76 96.45 738.76 89.25 738.76 81.76 738.76 74.28 731.28 74.28"/></g></g><g id="Artwork_3" data-name="Artwork 3"><g class="cls-6"><polygon class="cls-7" points="824.81 176.79 824.53 176.79 817.53 176.79 817.53 183.79 824.53 183.79 824.81 183.79 831.81 183.79 831.81 176.79 824.81 176.79"/><polygon class="cls-8" points="817.53 140.65 817.53 140.37 817.53 133.37 817.53 126.09 817.25 126.09 810.25 126.09 810.25 133.37 810.25 140.37 810.25 140.65 810.25 147.65 810.25 154.94 817.53 154.94 817.53 147.65 817.53 140.65"/><polygon class="cls-9" points="853.66 46.53 853.38 46.53 846.38 46.53 839.1 46.53 831.81 46.53 824.53 46.53 817.25 46.53 817.25 53.82 810.25 53.82 810.25 60.82 802.96 60.82 802.96 68.1 802.96 75.39 802.96 82.67 802.96 89.95 802.96 96.95 802.96 97.23 802.96 104.24 802.96 111.52 810.25 111.52 810.25 118.8 817.25 118.8 817.25 111.52 817.53 111.52 824.53 111.52 824.53 104.24 817.53 104.24 817.25 104.24 817.25 97.23 817.25 96.95 817.25 89.95 810.25 89.95 810.25 82.67 817.25 82.67 817.25 75.39 817.25 68.1 817.53 68.1 824.25 68.1 824.53 68.1 831.81 68.1 831.81 61.1 839.1 61.1 846.38 61.1 846.38 68.1 853.38 68.1 853.66 68.1 860.66 68.1 860.66 75.39 860.66 82.67 867.95 82.67 867.95 89.95 860.66 89.95 860.66 96.95 860.66 97.23 860.66 104.24 853.66 104.24 853.66 111.52 860.66 111.52 860.66 118.8 867.95 118.8 867.95 111.52 875.23 111.52 875.23 104.24 875.23 97.23 875.23 96.95 875.23 89.95 875.23 82.67 875.23 75.39 875.23 68.1 875.23 60.82 867.95 60.82 867.95 53.82 860.66 53.82 860.66 46.53 853.66 46.53"/><polygon class="cls-8" points="860.66 133.37 860.66 140.37 860.66 140.65 860.66 147.65 860.66 154.94 867.95 154.94 867.95 147.65 867.95 140.65 867.95 140.37 867.95 133.37 867.95 126.09 860.66 126.09 860.66 133.37"/><polygon class="cls-10" points="853.66 147.65 853.38 147.65 846.38 147.65 839.1 147.65 831.81 147.65 824.81 147.65 824.53 147.65 817.53 147.65 817.53 154.94 817.53 162.22 817.53 169.5 817.53 176.51 817.53 176.79 824.53 176.79 824.81 176.79 831.81 176.79 831.81 176.51 831.81 169.5 831.81 162.22 839.1 162.22 846.38 162.22 846.38 169.5 846.38 176.51 846.38 176.79 853.38 176.79 853.66 176.79 860.66 176.79 860.66 176.51 860.66 169.5 860.66 162.22 860.66 154.94 860.66 147.65 853.66 147.65"/><polygon class="cls-11" points="860.66 111.52 853.66 111.52 853.38 111.52 846.38 111.52 846.38 118.8 839.1 118.8 831.81 118.8 831.81 111.52 824.53 111.52 817.53 111.52 817.25 111.52 817.25 118.8 810.25 118.8 810.25 126.09 817.25 126.09 817.53 126.09 817.53 133.37 817.53 140.37 817.53 140.65 817.53 147.65 824.53 147.65 824.81 147.65 831.81 147.65 839.1 147.65 846.38 147.65 853.38 147.65 853.66 147.65 860.66 147.65 860.66 140.65 860.66 140.37 860.66 133.37 860.66 126.09 867.95 126.09 867.95 118.8 860.66 118.8 860.66 111.52"/><polygon class="cls-7" points="853.66 176.79 853.38 176.79 846.38 176.79 846.38 183.79 853.38 183.79 853.66 183.79 860.66 183.79 860.66 176.79 853.66 176.79"/><polygon class="cls-7" points="853.66 89.95 853.66 82.67 853.66 75.39 853.38 75.39 846.38 75.39 846.38 82.67 846.38 89.95 853.38 89.95 853.66 89.95"/><polygon class="cls-12" points="831.81 104.24 839.1 104.24 846.38 104.24 846.38 97.23 839.1 97.23 831.81 97.23 831.81 104.24"/><path class="cls-8" d="M831.81,118.8h14.57v-7.28h7.28v-7.28h7V90H868V82.67h-7.29V68.1H846.38v-7H831.81v7H817.25V82.67h-7V90h7v14.29h7.28v7.28h7.28Zm14.57-36.13V75.39h7.28V90h-7.28ZM839.1,97.23h7.28v7H831.81v-7ZM824.53,90V75.39h7.28V90Z" transform="translate(0 0)"/><polygon class="cls-7" points="831.81 82.67 831.81 75.39 824.53 75.39 824.53 82.67 824.53 89.95 831.81 89.95 831.81 82.67"/></g></g><g id="Artwork_17-2" data-name="Artwork 17"><g class="cls-13"><polygon class="cls-3" points="457.57 74.28 457.57 81.76 457.57 89.25 457.57 96.45 457.57 96.73 465.06 96.73 465.06 103.93 465.06 111.42 465.06 118.9 465.06 126.39 465.06 133.88 472.54 133.88 472.54 96.45 465.06 96.45 465.06 89.25 465.06 81.76 465.06 74.28 457.57 74.28"/><polygon class="cls-3" points="457.57 141.07 457.57 141.36 457.57 148.56 457.57 156.04 465.06 156.04 465.06 148.56 465.06 141.36 465.06 141.07 465.06 133.88 457.57 133.88 457.57 141.07"/><path class="cls-4" d="M465.06,118.9V96.74h-7.49V74.28h-7.49V59.6H442.6v-15h-7.2V37.14h-7.48V29.65h-15V22.46H398.26V15H375.81V7.49H338.67V15H316.5v7.49h-15v7.19h-15v7.49h-7.2v7.48h-7.49v15h-7.48V74.28H256.9V96.74h-7.48v37.13h7.48V156h7.49v15h7.48V185.7h7.49v7.48h7.2v7.49h15v7.48h15v7.49h22.17v7.2h37.14v-7.2h22.45v-7.49h14.68v-7.48h15v-7.49h7.48V185.7h7.2V171h7.48V156h7.49V133.87h7.49v-15ZM271.87,96.74V89.25h7.49v-15H294v15h-7.48v14.68H271.87Zm29.66-44.63V44.62H309V37.14h15v15H316.5V59.6H309v7.19H294V52.11Z" transform="translate(0 0)"/><polygon class="cls-3" points="450.08 163.53 450.08 171.01 457.57 171.01 457.57 163.53 457.57 156.04 450.08 156.04 450.08 163.53"/><polygon class="cls-3" points="442.6 178.21 442.6 178.5 442.6 185.7 450.08 185.7 450.08 178.5 450.08 178.21 450.08 171.01 442.6 171.01 442.6 178.21"/><polygon class="cls-3" points="442.6 59.31 442.6 59.6 450.08 59.6 450.08 66.79 450.08 74.28 457.57 74.28 457.57 66.79 457.57 59.31 450.08 59.31 450.08 52.11 450.08 44.63 442.6 44.63 442.6 52.11 442.6 59.31"/><rect class="cls-3" x="435.4" y="185.7" width="7.2" height="7.49"/><rect class="cls-3" x="435.4" y="37.14" width="7.2" height="7.49"/><polygon class="cls-3" points="427.92 193.18 427.92 200.67 435.4 200.67 435.4 193.18 435.11 193.18 427.92 193.18"/><polygon class="cls-3" points="435.11 37.14 435.4 37.14 435.4 29.65 427.92 29.65 427.92 37.14 435.11 37.14"/><polygon class="cls-3" points="412.94 200.67 412.94 208.15 420.43 208.15 427.92 208.15 427.92 200.67 420.43 200.67 412.94 200.67"/><polygon class="cls-3" points="398.26 208.15 398.26 215.35 398.26 215.64 405.46 215.64 412.94 215.64 412.94 208.15 405.46 208.15 398.26 208.15"/><polygon class="cls-3" points="398.26 22.46 405.46 22.46 412.94 22.46 412.94 29.65 420.43 29.65 427.92 29.65 427.92 22.17 420.43 22.17 412.94 22.17 412.94 14.97 405.46 14.97 398.26 14.97 398.26 22.17 398.26 22.46"/><polygon class="cls-3" points="390.78 215.64 383.29 215.64 375.81 215.64 375.81 222.84 383.29 222.84 390.78 222.84 398.26 222.84 398.26 215.64 397.97 215.64 390.78 215.64"/><polygon class="cls-3" points="383.29 14.97 390.78 14.97 397.97 14.97 398.26 14.97 398.26 7.49 390.78 7.49 383.29 7.49 375.81 7.49 375.81 14.97 383.29 14.97"/><polygon class="cls-3" points="368.32 222.84 361.12 222.84 360.83 222.84 353.64 222.84 346.15 222.84 338.67 222.84 338.67 230.32 346.15 230.32 353.64 230.32 360.83 230.32 361.12 230.32 368.32 230.32 375.81 230.32 375.81 222.84 368.32 222.84"/><polygon class="cls-3" points="338.67 0 338.67 7.49 346.15 7.49 353.64 7.49 360.83 7.49 361.12 7.49 368.32 7.49 375.81 7.49 375.81 0 338.67 0"/><polygon class="cls-3" points="331.18 215.64 323.98 215.64 323.69 215.64 316.5 215.64 316.5 222.84 323.69 222.84 323.98 222.84 331.18 222.84 338.67 222.84 338.67 215.64 331.18 215.64"/><polygon class="cls-3" points="323.98 14.97 331.18 14.97 338.67 14.97 338.67 7.49 331.18 7.49 323.98 7.49 323.69 7.49 316.5 7.49 316.5 14.97 323.69 14.97 323.98 14.97"/><polygon class="cls-3" points="316.5 208.15 309.01 208.15 301.53 208.15 301.53 215.64 309.01 215.64 316.5 215.64 316.5 215.35 316.5 208.15"/><polygon class="cls-3" points="294.04 200.67 286.56 200.67 286.56 208.15 294.04 208.15 301.53 208.15 301.53 200.67 294.04 200.67"/><polygon class="cls-5" points="294.04 59.6 294.04 66.79 301.53 66.79 309.01 66.79 309.01 59.6 316.5 59.6 316.5 59.31 316.5 52.11 323.69 52.11 323.98 52.11 323.98 44.63 323.98 37.14 323.69 37.14 316.5 37.14 309.01 37.14 309.01 44.63 301.53 44.63 301.53 52.11 294.04 52.11 294.04 59.31 294.04 59.6"/><polygon class="cls-3" points="301.53 29.65 301.53 22.46 309.01 22.46 316.5 22.46 316.5 22.17 316.5 14.97 309.01 14.97 301.53 14.97 301.53 22.17 294.04 22.17 286.56 22.17 286.56 29.65 294.04 29.65 301.53 29.65"/><polygon class="cls-3" points="279.36 193.18 279.36 185.7 279.07 185.7 271.87 185.7 271.87 193.18 279.07 193.18 279.07 200.67 286.56 200.67 286.56 193.18 279.36 193.18"/><polygon class="cls-5" points="279.36 103.93 286.56 103.93 286.56 96.73 286.56 96.45 286.56 89.25 294.04 89.25 294.04 81.76 294.04 74.28 286.56 74.28 279.36 74.28 279.36 81.76 279.36 89.25 279.07 89.25 271.87 89.25 271.87 96.45 271.87 96.73 271.87 103.93 279.07 103.93 279.36 103.93"/><polygon class="cls-3" points="279.36 44.63 279.36 37.14 286.56 37.14 286.56 29.65 279.07 29.65 279.07 37.14 271.87 37.14 271.87 44.63 279.07 44.63 279.36 44.63"/><polygon class="cls-3" points="271.87 178.21 271.87 171.01 264.39 171.01 264.39 178.21 264.39 178.5 264.39 185.7 271.87 185.7 271.87 178.5 271.87 178.21"/><polygon class="cls-3" points="264.39 156.04 256.9 156.04 256.9 163.53 256.9 171.01 264.39 171.01 264.39 163.53 264.39 156.04"/><polygon class="cls-3" points="264.39 66.79 264.39 59.6 271.87 59.6 271.87 59.31 271.87 52.11 271.87 44.63 264.39 44.63 264.39 52.11 264.39 59.31 256.9 59.31 256.9 66.79 256.9 74.28 264.39 74.28 264.39 66.79"/><polygon class="cls-3" points="256.9 141.36 256.9 141.07 256.9 133.88 249.42 133.88 249.42 141.07 249.42 141.36 249.42 148.56 249.42 156.04 256.9 156.04 256.9 148.56 256.9 141.36"/><polygon class="cls-3" points="249.42 74.28 249.42 81.76 249.42 89.25 249.42 96.45 241.93 96.45 241.93 103.93 241.93 111.42 241.93 118.9 241.93 126.39 241.93 133.88 249.42 133.88 249.42 126.39 249.42 118.9 249.42 111.42 249.42 103.93 249.42 96.73 256.9 96.73 256.9 96.45 256.9 89.25 256.9 81.76 256.9 74.28 249.42 74.28"/></g></g><g id="Artwork_14" data-name="Artwork 14"><g class="cls-14"><polygon class="cls-7" points="350.09 28.33 350.09 35.61 342.81 35.61 335.53 35.61 328.24 35.61 328.24 42.89 328.24 50.17 320.96 50.17 320.96 57.46 320.96 64.46 320.96 64.74 320.96 71.74 328.24 71.74 328.24 79.03 328.24 86.31 328.24 93.59 328.24 100.59 328.24 100.88 335.53 100.88 335.53 100.59 335.53 93.59 335.53 86.31 342.81 86.31 350.09 86.31 350.09 79.03 357.1 79.03 357.38 79.03 364.38 79.03 364.38 86.31 371.66 86.31 378.94 86.31 378.94 93.59 378.94 100.59 378.94 100.88 386.23 100.88 386.23 100.59 386.23 93.59 386.23 86.31 386.23 79.03 386.23 71.74 393.51 71.74 393.51 50.17 386.23 50.17 386.23 42.89 386.23 35.61 378.94 35.61 371.66 35.61 364.38 35.61 364.38 28.33 350.09 28.33"/><polygon class="cls-15" points="378.94 151.3 378.94 158.58 378.94 165.86 378.94 172.86 378.94 173.14 386.23 173.14 386.23 165.86 386.23 158.58 386.23 151.3 386.23 144.01 378.94 144.01 378.94 151.3"/><polygon class="cls-10" points="378.94 165.86 371.66 165.86 364.38 165.86 357.38 165.86 357.1 165.86 350.09 165.86 342.81 165.86 335.53 165.86 335.53 172.86 335.53 173.14 335.53 180.15 335.53 187.43 335.53 194.71 342.81 194.71 350.09 194.71 350.09 187.43 350.09 180.15 357.1 180.15 357.38 180.15 364.38 180.15 364.38 187.43 364.38 194.71 371.66 194.71 378.94 194.71 378.94 187.43 378.94 180.15 378.94 173.14 378.94 172.86 378.94 165.86"/><path class="cls-15" d="M378.94,100.6V86.31H364.38V79H350.09v7.28H335.53v14.57h-7.29v7h7.29v14.56h7.28v7.29h7.28V137h14.29v-7.28h7.28v-7.29h7.28V107.88h7.29v-7h-7.29Zm-36.13.28V93.59h7.28v14.29h-7.28Zm14.57,21.56h-7.29v-7.28h14.29v7.28Zm14.28-14.56h-7.28V93.59h7.28v14.29Z" transform="translate(0 0)"/><polygon class="cls-7" points="371.66 194.71 364.38 194.71 364.38 202 371.66 202 378.94 202 378.94 194.71 371.66 194.71"/><polygon class="cls-16" points="364.38 136.73 364.38 137.01 357.38 137.01 357.1 137.01 350.09 137.01 350.09 136.73 350.09 129.73 342.81 129.73 335.53 129.73 335.53 136.73 328.24 136.73 328.24 144.01 335.53 144.01 335.53 151.3 335.53 158.58 335.53 165.86 342.81 165.86 350.09 165.86 357.1 165.86 357.38 165.86 364.38 165.86 371.66 165.86 378.94 165.86 378.94 158.58 378.94 151.3 378.94 144.01 386.23 144.01 386.23 136.73 378.94 136.73 378.94 129.73 371.66 129.73 364.38 129.73 364.38 136.73"/><polygon class="cls-7" points="371.66 93.59 364.38 93.59 364.38 100.59 364.38 100.88 364.38 107.88 371.66 107.88 371.66 100.88 371.66 100.59 371.66 93.59"/><polygon class="cls-17" points="357.38 115.16 357.1 115.16 350.09 115.16 350.09 122.44 357.1 122.44 357.38 122.44 364.38 122.44 364.38 115.16 357.38 115.16"/><polygon class="cls-7" points="350.09 100.88 350.09 100.59 350.09 93.59 342.81 93.59 342.81 100.59 342.81 100.88 342.81 107.88 350.09 107.88 350.09 100.88"/><polygon class="cls-7" points="342.81 194.71 335.53 194.71 335.53 202 342.81 202 350.09 202 350.09 194.71 342.81 194.71"/><polygon class="cls-15" points="335.53 165.86 335.53 158.58 335.53 151.3 335.53 144.01 328.24 144.01 328.24 151.3 328.24 158.58 328.24 165.86 328.24 173.14 335.53 173.14 335.53 172.86 335.53 165.86"/></g></g><g id="Artwork_17-3" data-name="Artwork 17"><g class="cls-18"><polygon class="cls-3" points="698.5 74.28 698.5 81.76 698.5 89.25 698.5 96.45 698.5 96.73 705.99 96.73 705.99 103.93 705.99 111.42 705.99 118.9 705.99 126.39 705.99 133.88 713.47 133.88 713.47 96.45 705.99 96.45 705.99 89.25 705.99 81.76 705.99 74.28 698.5 74.28"/><polygon class="cls-3" points="698.5 141.07 698.5 141.36 698.5 148.56 698.5 156.04 705.99 156.04 705.99 148.56 705.99 141.36 705.99 141.07 705.99 133.88 698.5 133.88 698.5 141.07"/><path class="cls-4" d="M706,118.9V96.74H698.5V74.28H691V59.6h-7.48v-15h-7.2V37.14h-7.48V29.65h-15V22.46H639.19V15H616.74V7.49H579.6V15H557.43v7.49h-15v7.19h-15v7.49h-7.2v7.48H512.8v15h-7.48V74.28h-7.49V96.74h-7.48v37.13h7.48V156h7.49v15h7.48V185.7h7.49v7.48h7.2v7.49h15v7.48h15v7.49H579.6v7.2h37.14v-7.2h22.45v-7.49h14.68v-7.48h15v-7.49h7.48V185.7h7.2V171H691V156h7.49V133.87H706v-15ZM512.8,96.74V89.25h7.49v-15H535v15h-7.48v14.68H512.8Zm29.66-44.63V44.62h7.48V37.14h15v15h-7.48V59.6h-7.49v7.19H535V52.11Z" transform="translate(0 0)"/><polygon class="cls-3" points="691.01 163.53 691.01 171.01 698.5 171.01 698.5 163.53 698.5 156.04 691.01 156.04 691.01 163.53"/><polygon class="cls-3" points="683.53 178.21 683.53 178.5 683.53 185.7 691.01 185.7 691.01 178.5 691.01 178.21 691.01 171.01 683.53 171.01 683.53 178.21"/><polygon class="cls-3" points="683.53 59.31 683.53 59.6 691.01 59.6 691.01 66.79 691.01 74.28 698.5 74.28 698.5 66.79 698.5 59.31 691.01 59.31 691.01 52.11 691.01 44.63 683.53 44.63 683.53 52.11 683.53 59.31"/><rect class="cls-3" x="676.33" y="185.7" width="7.2" height="7.49"/><rect class="cls-3" x="676.33" y="37.14" width="7.2" height="7.49"/><polygon class="cls-3" points="668.85 193.18 668.85 200.67 676.33 200.67 676.33 193.18 676.04 193.18 668.85 193.18"/><polygon class="cls-3" points="676.04 37.14 676.33 37.14 676.33 29.65 668.85 29.65 668.85 37.14 676.04 37.14"/><polygon class="cls-3" points="653.88 200.67 653.88 208.15 661.36 208.15 668.85 208.15 668.85 200.67 661.36 200.67 653.88 200.67"/><polygon class="cls-3" points="639.19 208.15 639.19 215.35 639.19 215.64 646.39 215.64 653.88 215.64 653.88 208.15 646.39 208.15 639.19 208.15"/><polygon class="cls-3" points="639.19 22.46 646.39 22.46 653.88 22.46 653.88 29.65 661.36 29.65 668.85 29.65 668.85 22.17 661.36 22.17 653.88 22.17 653.88 14.97 646.39 14.97 639.19 14.97 639.19 22.17 639.19 22.46"/><polygon class="cls-3" points="631.71 215.64 624.22 215.64 616.74 215.64 616.74 222.84 624.22 222.84 631.71 222.84 639.19 222.84 639.19 215.64 638.9 215.64 631.71 215.64"/><polygon class="cls-3" points="624.22 14.97 631.71 14.97 638.9 14.97 639.19 14.97 639.19 7.49 631.71 7.49 624.22 7.49 616.74 7.49 616.74 14.97 624.22 14.97"/><polygon class="cls-3" points="609.25 222.84 602.05 222.84 601.76 222.84 594.57 222.84 587.08 222.84 579.6 222.84 579.6 230.32 587.08 230.32 594.57 230.32 601.76 230.32 602.05 230.32 609.25 230.32 616.74 230.32 616.74 222.84 609.25 222.84"/><polygon class="cls-3" points="579.6 0 579.6 7.49 587.08 7.49 594.57 7.49 601.76 7.49 602.05 7.49 609.25 7.49 616.74 7.49 616.74 0 579.6 0"/><polygon class="cls-3" points="572.11 215.64 564.91 215.64 564.63 215.64 557.43 215.64 557.43 222.84 564.63 222.84 564.91 222.84 572.11 222.84 579.6 222.84 579.6 215.64 572.11 215.64"/><polygon class="cls-3" points="564.91 14.97 572.11 14.97 579.6 14.97 579.6 7.49 572.11 7.49 564.91 7.49 564.63 7.49 557.43 7.49 557.43 14.97 564.63 14.97 564.91 14.97"/><polygon class="cls-3" points="557.43 208.15 549.94 208.15 542.46 208.15 542.46 215.64 549.94 215.64 557.43 215.64 557.43 215.35 557.43 208.15"/><polygon class="cls-3" points="534.97 200.67 527.49 200.67 527.49 208.15 534.97 208.15 542.46 208.15 542.46 200.67 534.97 200.67"/><polygon class="cls-5" points="534.97 59.6 534.97 66.79 542.46 66.79 549.94 66.79 549.94 59.6 557.43 59.6 557.43 59.31 557.43 52.11 564.63 52.11 564.91 52.11 564.91 44.63 564.91 37.14 564.63 37.14 557.43 37.14 549.94 37.14 549.94 44.63 542.46 44.63 542.46 52.11 534.97 52.11 534.97 59.31 534.97 59.6"/><polygon class="cls-3" points="542.46 29.65 542.46 22.46 549.94 22.46 557.43 22.46 557.43 22.17 557.43 14.97 549.94 14.97 542.46 14.97 542.46 22.17 534.97 22.17 527.49 22.17 527.49 29.65 534.97 29.65 542.46 29.65"/><polygon class="cls-3" points="520.29 193.18 520.29 185.7 520 185.7 512.8 185.7 512.8 193.18 520 193.18 520 200.67 527.49 200.67 527.49 193.18 520.29 193.18"/><polygon class="cls-5" points="520.29 103.93 527.49 103.93 527.49 96.73 527.49 96.45 527.49 89.25 534.97 89.25 534.97 81.76 534.97 74.28 527.49 74.28 520.29 74.28 520.29 81.76 520.29 89.25 520 89.25 512.8 89.25 512.8 96.45 512.8 96.73 512.8 103.93 520 103.93 520.29 103.93"/><polygon class="cls-3" points="520.29 44.63 520.29 37.14 527.49 37.14 527.49 29.65 520 29.65 520 37.14 512.8 37.14 512.8 44.63 520 44.63 520.29 44.63"/><polygon class="cls-3" points="512.8 178.21 512.8 171.01 505.32 171.01 505.32 178.21 505.32 178.5 505.32 185.7 512.8 185.7 512.8 178.5 512.8 178.21"/><polygon class="cls-3" points="505.32 156.04 497.83 156.04 497.83 163.53 497.83 171.01 505.32 171.01 505.32 163.53 505.32 156.04"/><polygon class="cls-3" points="505.32 66.79 505.32 59.6 512.8 59.6 512.8 59.31 512.8 52.11 512.8 44.63 505.32 44.63 505.32 52.11 505.32 59.31 497.83 59.31 497.83 66.79 497.83 74.28 505.32 74.28 505.32 66.79"/><polygon class="cls-3" points="497.83 141.36 497.83 141.07 497.83 133.88 490.35 133.88 490.35 141.07 490.35 141.36 490.35 148.56 490.35 156.04 497.83 156.04 497.83 148.56 497.83 141.36"/><polygon class="cls-3" points="490.35 74.28 490.35 81.76 490.35 89.25 490.35 96.45 482.86 96.45 482.86 103.93 482.86 111.42 482.86 118.9 482.86 126.39 482.86 133.88 490.35 133.88 490.35 126.39 490.35 118.9 490.35 111.42 490.35 103.93 490.35 96.73 497.83 96.73 497.83 96.45 497.83 89.25 497.83 81.76 497.83 74.28 490.35 74.28"/></g></g><g id="Artwork_15" data-name="Artwork 15"><g class="cls-19"><polygon class="cls-7" points="605.45 39.25 605.45 46.53 598.17 46.53 598.17 39.25 583.6 39.25 583.6 46.53 576.6 46.53 569.31 46.53 569.31 53.54 562.03 53.54 562.03 60.82 562.03 68.1 554.75 68.1 554.75 75.39 562.03 75.39 562.03 82.67 554.75 82.67 554.75 89.95 562.03 89.95 562.03 96.95 569.31 96.95 569.31 89.95 576.6 89.95 576.6 89.67 576.6 82.67 576.6 75.39 583.6 75.39 583.88 75.39 583.88 68.1 590.88 68.1 598.17 68.1 605.45 68.1 612.73 68.1 612.73 75.39 620.01 75.39 620.01 82.67 620.01 89.67 620.01 89.95 627.02 89.95 627.3 89.95 634.3 89.95 641.58 89.95 641.58 82.67 634.3 82.67 634.3 75.39 641.58 75.39 641.58 68.1 634.3 68.1 634.3 60.82 634.3 53.54 627.3 53.54 627.3 46.53 620.01 46.53 612.73 46.53 612.73 39.25 605.45 39.25"/><polygon class="cls-15" points="620.01 147.65 620.01 154.94 620.01 162.22 627.3 162.22 627.3 154.94 627.3 147.65 627.3 140.37 620.01 140.37 620.01 147.65"/><rect class="cls-7" x="620.01" y="96.95" width="7.28" height="7.28"/><path class="cls-15" d="M620,90V75.39h-7.28V68.1H583.88v7.29H576.6V90h-7.29v7h7.29v14.57h7v7.28h7.28v7.29h14.57V118.8h7.28v-7.28H620V97h7.29V90H620Zm-29.13-7.28V97h-7V82.67Zm7.29,28.85h-7.29v-7.28h14.57v7.28ZM605.45,97V82.67h7.28V97Z" transform="translate(0 0)"/><polygon class="cls-20" points="612.73 154.94 605.45 154.94 598.17 154.94 590.88 154.94 583.88 154.94 583.6 154.94 576.6 154.94 576.6 162.22 576.6 169.22 576.6 169.5 576.6 176.51 576.6 183.79 583.6 183.79 583.88 183.79 590.88 183.79 590.88 176.51 590.88 169.5 598.17 169.5 605.45 169.5 605.45 176.51 605.45 183.79 612.73 183.79 620.01 183.79 620.01 176.51 620.01 169.5 620.01 169.22 620.01 162.22 620.01 154.94 612.73 154.94"/><polygon class="cls-21" points="612.73 183.79 605.45 183.79 605.45 191.07 612.73 191.07 620.01 191.07 620.01 183.79 612.73 183.79"/><polygon class="cls-22" points="605.45 126.09 598.17 126.09 590.88 126.09 590.88 118.8 583.88 118.8 583.6 118.8 576.6 118.8 576.6 126.09 569.31 126.09 569.31 133.09 569.31 133.37 569.31 140.37 576.6 140.37 576.6 147.65 576.6 154.94 583.6 154.94 583.88 154.94 590.88 154.94 598.17 154.94 605.45 154.94 612.73 154.94 620.01 154.94 620.01 147.65 620.01 140.37 627.3 140.37 627.3 133.37 627.3 133.09 627.3 126.09 620.01 126.09 620.01 118.8 612.73 118.8 605.45 118.8 605.45 126.09"/><polygon class="cls-7" points="612.73 89.67 612.73 82.67 605.45 82.67 605.45 89.67 605.45 89.95 605.45 96.95 612.73 96.95 612.73 89.95 612.73 89.67"/><polygon class="cls-17" points="598.17 104.24 590.88 104.24 590.88 111.52 598.17 111.52 605.45 111.52 605.45 104.24 598.17 104.24"/><polygon class="cls-7" points="583.88 89.95 583.88 96.95 590.88 96.95 590.88 89.95 590.88 89.67 590.88 82.67 583.88 82.67 583.88 89.67 583.88 89.95"/><polygon class="cls-21" points="583.88 183.79 583.6 183.79 576.6 183.79 576.6 191.07 583.6 191.07 583.88 191.07 590.88 191.07 590.88 183.79 583.88 183.79"/><polygon class="cls-15" points="576.6 147.65 576.6 140.37 569.31 140.37 569.31 147.65 569.31 154.94 569.31 162.22 576.6 162.22 576.6 154.94 576.6 147.65"/><rect class="cls-7" x="569.31" y="96.95" width="7.28" height="7.28"/></g></g><g id="Artwork_17-4" data-name="Artwork 17"><g class="cls-23"><polygon class="cls-3" points="215.64 74.28 215.64 81.76 215.64 89.25 215.64 96.45 215.64 96.73 223.13 96.73 223.13 103.93 223.13 111.42 223.13 118.9 223.13 126.39 223.13 133.88 230.61 133.88 230.61 96.45 223.13 96.45 223.13 89.25 223.13 81.76 223.13 74.28 215.64 74.28"/><polygon class="cls-3" points="215.64 141.07 215.64 141.36 215.64 148.56 215.64 156.04 223.13 156.04 223.13 148.56 223.13 141.36 223.13 141.07 223.13 133.88 215.64 133.88 215.64 141.07"/><path class="cls-4" d="M223.12,118.9V96.74h-7.48V74.28h-7.49V59.6h-7.48v-15h-7.2V37.14H186V29.65H171V22.46H156.33V15H133.87V7.49H96.74V15H74.57v7.49h-15v7.19h-15v7.49H37.43v7.48H29.94v15H22.46V74.28H15V96.74H7.49v37.13H15V156h7.49v15h7.48V185.7h7.49v7.48h7.19v7.49h15v7.48h15v7.49H96.74v7.2h37.13v-7.2h22.46v-7.49H171v-7.48h15v-7.49h7.48V185.7h7.2V171h7.48V156h7.49V133.87h7.48v-15ZM29.94,96.74V89.25h7.49v-15H52.11v15H44.62v14.68H29.94ZM59.6,52.11V44.62h7.48V37.14h15v15H74.57V59.6H67.08v7.19h-15V52.11Z" transform="translate(0 0)"/><polygon class="cls-3" points="208.15 163.53 208.15 171.01 215.64 171.01 215.64 163.53 215.64 156.04 208.15 156.04 208.15 163.53"/><polygon class="cls-3" points="200.67 178.21 200.67 178.5 200.67 185.7 208.15 185.7 208.15 178.5 208.15 178.21 208.15 171.01 200.67 171.01 200.67 178.21"/><polygon class="cls-3" points="200.67 59.31 200.67 59.6 208.15 59.6 208.15 66.79 208.15 74.28 215.64 74.28 215.64 66.79 215.64 59.31 208.15 59.31 208.15 52.11 208.15 44.63 200.67 44.63 200.67 52.11 200.67 59.31"/><rect class="cls-3" x="193.47" y="185.7" width="7.2" height="7.49"/><rect class="cls-3" x="193.47" y="37.14" width="7.2" height="7.49"/><polygon class="cls-3" points="185.99 193.18 185.99 200.67 193.47 200.67 193.47 193.18 193.18 193.18 185.99 193.18"/><polygon class="cls-3" points="193.18 37.14 193.47 37.14 193.47 29.65 185.99 29.65 185.99 37.14 193.18 37.14"/><polygon class="cls-3" points="171.01 200.67 171.01 208.15 178.5 208.15 185.99 208.15 185.99 200.67 178.5 200.67 171.01 200.67"/><polygon class="cls-3" points="156.33 208.15 156.33 215.35 156.33 215.64 163.53 215.64 171.01 215.64 171.01 208.15 163.53 208.15 156.33 208.15"/><polygon class="cls-3" points="156.33 22.46 163.53 22.46 171.01 22.46 171.01 29.65 178.5 29.65 185.99 29.65 185.99 22.17 178.5 22.17 171.01 22.17 171.01 14.97 163.53 14.97 156.33 14.97 156.33 22.17 156.33 22.46"/><polygon class="cls-3" points="148.85 215.64 141.36 215.64 133.88 215.64 133.88 222.84 141.36 222.84 148.85 222.84 156.33 222.84 156.33 215.64 156.04 215.64 148.85 215.64"/><polygon class="cls-3" points="141.36 14.97 148.85 14.97 156.04 14.97 156.33 14.97 156.33 7.49 148.85 7.49 141.36 7.49 133.88 7.49 133.88 14.97 141.36 14.97"/><polygon class="cls-3" points="126.39 222.84 119.19 222.84 118.9 222.84 111.71 222.84 104.22 222.84 96.73 222.84 96.73 230.32 104.22 230.32 111.71 230.32 118.9 230.32 119.19 230.32 126.39 230.32 133.88 230.32 133.88 222.84 126.39 222.84"/><polygon class="cls-3" points="96.73 0 96.73 7.49 104.22 7.49 111.71 7.49 118.9 7.49 119.19 7.49 126.39 7.49 133.88 7.49 133.88 0 96.73 0"/><polygon class="cls-3" points="89.25 215.64 82.05 215.64 81.76 215.64 74.57 215.64 74.57 222.84 81.76 222.84 82.05 222.84 89.25 222.84 96.73 222.84 96.73 215.64 89.25 215.64"/><polygon class="cls-3" points="82.05 14.97 89.25 14.97 96.73 14.97 96.73 7.49 89.25 7.49 82.05 7.49 81.76 7.49 74.57 7.49 74.57 14.97 81.76 14.97 82.05 14.97"/><polygon class="cls-3" points="74.57 208.15 67.08 208.15 59.6 208.15 59.6 215.64 67.08 215.64 74.57 215.64 74.57 215.35 74.57 208.15"/><polygon class="cls-3" points="52.11 200.67 44.63 200.67 44.63 208.15 52.11 208.15 59.6 208.15 59.6 200.67 52.11 200.67"/><polygon class="cls-5" points="52.11 59.6 52.11 66.79 59.6 66.79 67.08 66.79 67.08 59.6 74.57 59.6 74.57 59.31 74.57 52.11 81.76 52.11 82.05 52.11 82.05 44.63 82.05 37.14 81.76 37.14 74.57 37.14 67.08 37.14 67.08 44.63 59.6 44.63 59.6 52.11 52.11 52.11 52.11 59.31 52.11 59.6"/><polygon class="cls-3" points="59.6 29.65 59.6 22.46 67.08 22.46 74.57 22.46 74.57 22.17 74.57 14.97 67.08 14.97 59.6 14.97 59.6 22.17 52.11 22.17 44.63 22.17 44.63 29.65 52.11 29.65 59.6 29.65"/><polygon class="cls-3" points="37.43 193.18 37.43 185.7 37.14 185.7 29.94 185.7 29.94 193.18 37.14 193.18 37.14 200.67 44.63 200.67 44.63 193.18 37.43 193.18"/><polygon class="cls-5" points="37.43 103.93 44.63 103.93 44.63 96.73 44.63 96.45 44.63 89.25 52.11 89.25 52.11 81.76 52.11 74.28 44.63 74.28 37.43 74.28 37.43 81.76 37.43 89.25 37.14 89.25 29.94 89.25 29.94 96.45 29.94 96.73 29.94 103.93 37.14 103.93 37.43 103.93"/><polygon class="cls-3" points="37.43 44.63 37.43 37.14 44.63 37.14 44.63 29.65 37.14 29.65 37.14 37.14 29.94 37.14 29.94 44.63 37.14 44.63 37.43 44.63"/><polygon class="cls-3" points="29.94 178.21 29.94 171.01 22.46 171.01 22.46 178.21 22.46 178.5 22.46 185.7 29.94 185.7 29.94 178.5 29.94 178.21"/><polygon class="cls-3" points="22.46 156.04 14.97 156.04 14.97 163.53 14.97 171.01 22.46 171.01 22.46 163.53 22.46 156.04"/><polygon class="cls-3" points="22.46 66.79 22.46 59.6 29.94 59.6 29.94 59.31 29.94 52.11 29.94 44.63 22.46 44.63 22.46 52.11 22.46 59.31 14.97 59.31 14.97 66.79 14.97 74.28 22.46 74.28 22.46 66.79"/><polygon class="cls-3" points="14.97 141.36 14.97 141.07 14.97 133.88 7.49 133.88 7.49 141.07 7.49 141.36 7.49 148.56 7.49 156.04 14.97 156.04 14.97 148.56 14.97 141.36"/><polygon class="cls-3" points="7.49 74.28 7.49 81.76 7.49 89.25 7.49 96.45 0 96.45 0 103.93 0 111.42 0 118.9 0 126.39 0 133.88 7.49 133.88 7.49 126.39 7.49 118.9 7.49 111.42 7.49 103.93 7.49 96.73 14.97 96.73 14.97 96.45 14.97 89.25 14.97 81.76 14.97 74.28 7.49 74.28"/></g></g><g id="Artwork_16" data-name="Artwork 16"><g class="cls-24"><polygon class="cls-25" points="137.01 151.3 137.01 158.3 137.01 158.58 144.3 158.58 144.3 151.3 137.01 151.3"/><rect class="cls-26" x="137.01" y="93.31" width="7.28" height="7.28"/><polygon class="cls-26" points="122.45 42.89 122.45 49.9 115.17 49.9 108.16 49.9 107.88 49.9 100.88 49.9 100.88 57.18 93.6 57.18 86.31 57.18 86.31 64.46 86.31 71.74 86.31 79.03 86.31 86.03 86.31 86.31 93.6 86.31 93.6 86.03 93.6 79.03 93.6 71.74 100.88 71.74 100.88 64.46 107.88 64.46 108.16 64.46 115.17 64.46 122.45 64.46 129.73 64.46 129.73 71.74 137.01 71.74 137.01 79.03 137.01 86.03 137.01 86.31 144.3 86.31 144.3 57.18 137.01 57.18 129.73 57.18 129.73 50.17 129.73 49.9 129.73 42.89 122.45 42.89"/><polygon class="cls-20" points="137.01 151.3 129.73 151.3 122.45 151.3 115.17 151.3 108.16 151.3 107.88 151.3 100.88 151.3 93.6 151.3 93.6 158.3 93.6 158.58 93.6 165.58 93.6 172.86 93.6 180.15 100.88 180.15 108.16 180.15 108.16 172.86 108.16 165.58 115.17 165.58 122.45 165.58 122.45 172.86 122.45 180.15 129.73 180.15 137.01 180.15 137.01 172.86 137.01 165.58 137.01 158.58 137.01 158.3 137.01 151.3"/><path class="cls-25" d="M108.16,100.6h14.29v7.28H108.16Zm-7.28-14.29V79h7.28V93.31h-7.28Zm21.57,0V79h7.28V93.31h-7.28Zm0-21.85H100.88v7.28H93.6V86.31H86.31v7H93.6v14.57h7.28v7.28h7.28v7.28h14.29v-7.28h7.28v-7.28H137V93.31h7.29v-7H137V71.74h-7.28V64.46Z" transform="translate(0 0)"/><polygon class="cls-21" points="129.73 180.15 122.45 180.15 122.45 187.43 129.73 187.43 137.01 187.43 137.01 180.15 129.73 180.15"/><polygon class="cls-27" points="129.73 115.16 122.45 115.16 122.45 122.16 122.45 122.44 115.17 122.44 108.16 122.44 108.16 122.16 108.16 115.16 107.88 115.16 100.88 115.16 93.6 115.16 93.6 122.16 86.31 122.16 86.31 129.45 86.31 136.73 86.31 144.01 86.31 151.3 93.6 151.3 100.88 151.3 107.88 151.3 108.16 151.3 115.17 151.3 122.45 151.3 129.73 151.3 137.01 151.3 144.3 151.3 144.3 122.16 137.01 122.16 137.01 115.16 129.73 115.16"/><polygon class="cls-7" points="129.73 79.03 122.45 79.03 122.45 86.03 122.45 86.31 122.45 93.31 129.73 93.31 129.73 86.31 129.73 86.03 129.73 79.03"/><polygon class="cls-28" points="115.17 100.59 108.16 100.59 108.16 107.88 115.17 107.88 122.45 107.88 122.45 100.59 115.17 100.59"/><polygon class="cls-7" points="108.16 93.31 108.16 86.31 108.16 86.03 108.16 79.03 107.88 79.03 100.88 79.03 100.88 86.03 100.88 86.31 100.88 93.31 107.88 93.31 108.16 93.31"/><polygon class="cls-21" points="100.88 180.15 93.6 180.15 93.6 187.43 100.88 187.43 108.16 187.43 108.16 180.15 100.88 180.15"/><polygon class="cls-25" points="86.31 151.3 86.31 158.58 93.6 158.58 93.6 158.3 93.6 151.3 86.31 151.3"/><rect class="cls-26" x="86.31" y="93.31" width="7.28" height="7.28"/></g></g></g></g></svg>