<svg xmlns="http://www.w3.org/2000/svg" xmlns:xlink="http://www.w3.org/1999/xlink" viewBox="0 0 1400 799"><defs><style>.cls-1{fill:none;}.cls-2{fill:url(#linear-gradient);}.cls-3{clip-path:url(#clip-path);}.cls-4{opacity:0.25;}.cls-5{clip-path:url(#clip-path-4);}.cls-6{fill:#fff;}.cls-7{fill:#b92025;}.cls-8{clip-path:url(#clip-path-6);}.cls-9{clip-path:url(#clip-path-7);}.cls-10{fill:#7eb4c9;}.cls-11{fill:#add9ee;}.cls-12{fill:#050606;}.cls-13{fill:#efe38d;}.cls-14{fill:#231f20;}.cls-15{fill:#151539;}.cls-16{fill:#ae91c3;}.cls-17{fill:#c1b363;}.cls-18{fill:#8c4a20;}.cls-19{fill:#c22227;}.cls-20{fill:#552b14;}.cls-21{fill:#132015;}.cls-22{fill:#d3d3d3;}.cls-23{fill:#5cba47;}.cls-24{fill:#f9d9ba;}.cls-25{fill:#371f11;}.cls-26{fill:#1a1449;}.cls-27{fill:#b79274;}</style><linearGradient id="linear-gradient" x1="-1568" y1="3264" x2="-1568" y2="2465" gradientTransform="translate(2268 -2465)" gradientUnits="userSpaceOnUse"><stop offset="0" stop-color="#fcef44"/><stop offset="1" stop-color="#e93f39"/></linearGradient><clipPath id="clip-path"><rect class="cls-1" x="454" y="263.14" width="492" height="140.98"/></clipPath><clipPath id="clip-path-4"><rect class="cls-1" x="460.31" y="268.75" width="380.87" height="135.37"/></clipPath><clipPath id="clip-path-6"><rect class="cls-1" x="860.07" y="268.78" width="85.93" height="134.83"/></clipPath><clipPath id="clip-path-7"><rect class="cls-1" x="551.3" y="464.09" width="297.4" height="71.77"/></clipPath></defs><title>fe-cover</title><g id="Layer_2" data-name="Layer 2"><g id="Layer_1-2" data-name="Layer 1"><rect class="cls-2" width="1400" height="799" transform="translate(1400 799) rotate(180)"/><g id="logo"><g class="cls-3"><g class="cls-3"><g class="cls-3"><g class="cls-4"><g class="cls-5"><polygon class="cls-6" points="498.19 302.42 520.63 302.42 520.63 291.19 498.19 291.19 498.19 279.97 531.86 279.97 531.86 268.75 487.67 268.75 487.67 324.16 498.19 324.16 498.19 302.42"/><rect class="cls-6" x="546.59" y="268.75" width="10.52" height="55.41"/><polygon class="cls-6" points="616.03 312.94 582.36 312.94 582.36 268.75 571.84 268.75 571.84 324.16 616.03 324.16 616.03 312.94"/><polygon class="cls-6" points="663.72 324.16 663.72 279.97 685.47 279.97 685.47 268.75 630.05 268.75 630.05 279.97 652.5 279.97 652.5 324.16 663.72 324.16"/><polygon class="cls-6" points="744.38 312.94 710.72 312.94 710.72 301.72 733.16 301.72 733.16 291.19 710.72 291.19 710.72 279.97 744.38 279.97 744.38 268.75 700.2 268.75 700.2 324.16 744.38 324.16 744.38 312.94"/><rect class="cls-6" x="802.6" y="301.72" width="11.22" height="22.45"/><rect class="cls-6" x="802.6" y="279.97" width="11.22" height="11.22"/><polygon class="cls-6" points="768.93 301.72 802.6 301.72 802.6 291.19 769.56 291.19 769.63 279.89 802.6 279.97 802.6 268.75 758.41 268.75 758.41 324.16 768.93 324.16 768.93 301.72"/><polygon class="cls-6" points="460.31 404.12 504.5 404.12 504.5 391.5 470.83 391.5 470.83 378.87 493.28 378.87 493.28 366.25 470.83 366.25 470.83 353.62 504.5 353.62 504.5 341.7 460.31 341.7 460.31 404.12"/><rect class="cls-6" x="529.75" y="340.99" width="44.19" height="12.63"/><rect class="cls-6" x="529.05" y="366.25" width="33.67" height="12.63"/><rect class="cls-6" x="518.53" y="391.5" width="44.19" height="12.63"/><rect class="cls-6" x="518.53" y="353.62" width="10.52" height="12.63"/><rect class="cls-6" x="562.72" y="378.87" width="11.22" height="12.63"/><polygon class="cls-6" points="632.86 341 599.19 341 599.19 353.62 632.16 353.62 632.16 366.25 643.38 366.25 643.38 353.62 632.86 353.62 632.86 341"/><polygon class="cls-6" points="632.16 391.5 599.19 391.5 599.19 404.12 632.86 404.12 632.86 391.5 643.38 391.5 643.38 378.87 632.16 378.87 632.16 391.5"/><rect class="cls-6" x="588.67" y="354.32" width="10.52" height="37.17"/><polygon class="cls-6" points="702.3 366.25 668.63 366.25 668.63 353.62 658.11 353.62 658.11 403.42 668.63 403.42 668.63 378.87 702.3 378.87 702.3 403.42 713.52 403.42 713.52 353.62 702.3 353.62 702.3 366.25"/><rect class="cls-6" x="668.63" y="340.99" width="33.67" height="12.63"/><polygon class="cls-6" points="738.07 353.62 771.74 353.62 771.74 341.7 727.55 341.7 727.55 404.12 738.07 404.12 738.07 378.87 771.74 378.87 771.74 366.25 738.07 366.25 738.07 353.62"/><rect class="cls-6" x="771.74" y="353.62" width="11.22" height="12.63"/><polygon class="cls-6" points="841.18 353.62 841.18 341.7 796.99 341.7 796.99 404.12 841.18 404.12 841.18 391.5 807.51 391.5 807.51 378.87 829.96 378.87 829.96 366.25 807.51 366.25 807.51 353.62 841.18 353.62"/></g></g></g><polygon class="cls-6" points="481.36 263.14 481.36 318.55 491.88 318.55 491.88 296.81 514.32 296.81 514.32 285.58 491.88 285.58 491.88 274.36 525.54 274.36 525.54 263.14 481.36 263.14"/><rect class="cls-6" x="540.27" y="263.14" width="10.52" height="55.41"/><polygon class="cls-6" points="565.52 263.14 565.52 318.55 609.71 318.55 609.71 307.33 576.04 307.33 576.04 263.14 565.52 263.14"/><polygon class="cls-6" points="623.74 263.14 623.74 274.36 646.19 274.36 646.19 318.55 657.41 318.55 657.41 274.36 679.15 274.36 679.15 263.14 623.74 263.14"/><polygon class="cls-6" points="693.88 263.14 693.88 318.55 738.07 318.55 738.07 307.33 704.4 307.33 704.4 296.11 726.85 296.11 726.85 285.58 704.4 285.58 704.4 274.36 738.07 274.36 738.07 263.14 693.88 263.14"/><rect class="cls-6" x="796.29" y="274.36" width="11.22" height="11.22"/><rect class="cls-6" x="796.29" y="296.1" width="11.22" height="22.45"/><polygon class="cls-6" points="752.1 263.14 752.1 318.55 762.62 318.55 762.62 296.11 796.29 296.11 796.29 285.58 763.25 285.58 763.32 274.28 796.29 274.36 796.29 263.14 752.1 263.14"/><polygon class="cls-6" points="454 336.08 454 398.51 498.19 398.51 498.19 385.88 464.52 385.88 464.52 373.26 486.97 373.26 486.97 360.63 464.52 360.63 464.52 348.01 498.19 348.01 498.19 336.08 454 336.08"/><rect class="cls-6" x="523.44" y="335.38" width="44.19" height="12.63"/><rect class="cls-6" x="522.74" y="360.63" width="33.67" height="12.63"/><rect class="cls-6" x="512.22" y="385.88" width="44.19" height="12.63"/><rect class="cls-6" x="556.41" y="373.26" width="11.22" height="12.63"/><rect class="cls-6" x="512.22" y="348.01" width="10.52" height="12.63"/><polygon class="cls-6" points="626.55 335.38 592.88 335.38 592.88 348.01 625.85 348.01 625.85 360.63 637.07 360.63 637.07 348.01 626.55 348.01 626.55 335.38"/><polygon class="cls-6" points="625.85 385.88 592.88 385.88 592.88 398.51 626.55 398.51 626.55 385.88 637.07 385.88 637.07 373.26 625.85 373.26 625.85 385.88"/><rect class="cls-6" x="582.36" y="348.71" width="10.52" height="37.17"/><rect class="cls-6" x="662.32" y="335.38" width="33.67" height="12.63"/><polygon class="cls-6" points="695.99 360.63 662.32 360.63 662.32 348.01 651.8 348.01 651.8 397.81 662.32 397.81 662.32 373.26 695.99 373.26 695.99 397.81 707.21 397.81 707.21 348.01 695.99 348.01 695.99 360.63"/><rect class="cls-6" x="765.43" y="348.01" width="11.22" height="12.63"/><polygon class="cls-6" points="731.76 348.01 765.43 348.01 765.43 336.08 721.24 336.08 721.24 398.51 731.76 398.51 731.76 373.26 765.43 373.26 765.43 360.63 731.76 360.63 731.76 348.01"/><polygon class="cls-6" points="834.87 348.01 834.87 336.08 790.68 336.08 790.68 398.51 834.87 398.51 834.87 385.88 801.2 385.88 801.2 373.26 823.64 373.26 823.64 360.63 801.2 360.63 801.2 348.01 834.87 348.01"/><rect class="cls-7" x="927.34" y="312.07" width="12.34" height="12.34"/><rect class="cls-7" x="927.34" y="300.2" width="12.34" height="12.34"/><rect class="cls-7" x="927.34" y="287.86" width="12.34" height="12.34"/><rect class="cls-7" x="915" y="336.75" width="12.34" height="12.34"/><rect class="cls-7" x="915" y="324.41" width="12.34" height="12.34"/><rect class="cls-7" x="915" y="312.07" width="12.34" height="12.34"/><rect class="cls-7" x="915" y="300.2" width="12.34" height="12.34"/><rect class="cls-7" x="915" y="287.86" width="12.34" height="12.34"/><rect class="cls-7" x="915" y="275.51" width="12.34" height="12.34"/><rect class="cls-7" x="902.66" y="361.44" width="12.34" height="12.34"/><rect class="cls-7" x="902.66" y="349.1" width="12.34" height="12.34"/><rect class="cls-7" x="902.66" y="336.75" width="12.34" height="12.34"/><rect class="cls-7" x="902.66" y="324.41" width="12.34" height="12.34"/><rect class="cls-7" x="902.66" y="287.86" width="12.34" height="12.34"/><rect class="cls-7" x="902.66" y="275.51" width="12.34" height="12.34"/><rect class="cls-7" x="902.66" y="263.17" width="12.34" height="12.34"/><rect class="cls-7" x="890.31" y="385.65" width="12.34" height="12.34"/><rect class="cls-7" x="890.31" y="373.31" width="12.34" height="12.34"/><rect class="cls-7" x="890.31" y="361.44" width="12.34" height="12.34"/><rect class="cls-7" x="890.31" y="349.1" width="12.34" height="12.34"/><rect class="cls-7" x="890.31" y="336.75" width="12.34" height="12.34"/><rect class="cls-7" x="890.31" y="275.51" width="12.34" height="12.34"/><rect class="cls-7" x="890.31" y="263.17" width="12.34" height="12.34"/><rect class="cls-7" x="877.97" y="361.44" width="12.34" height="12.34"/><rect class="cls-7" x="877.97" y="349.1" width="12.34" height="12.34"/><rect class="cls-7" x="877.97" y="336.75" width="12.34" height="12.34"/><rect class="cls-7" x="877.97" y="324.41" width="12.34" height="12.34"/><rect class="cls-7" x="877.97" y="287.86" width="12.34" height="12.34"/><rect class="cls-7" x="877.97" y="275.51" width="12.34" height="12.34"/><rect class="cls-7" x="877.97" y="263.17" width="12.34" height="12.34"/><rect class="cls-7" x="866.1" y="336.75" width="12.34" height="12.34"/><rect class="cls-7" x="866.1" y="324.41" width="12.34" height="12.34"/><rect class="cls-7" x="866.1" y="312.07" width="12.34" height="12.34"/><rect class="cls-7" x="866.1" y="300.2" width="12.34" height="12.34"/><rect class="cls-7" x="866.1" y="287.86" width="12.34" height="12.34"/><rect class="cls-7" x="866.1" y="275.51" width="12.34" height="12.34"/><rect class="cls-7" x="853.76" y="312.07" width="12.34" height="12.34"/><rect class="cls-7" x="853.76" y="300.2" width="12.34" height="12.34"/><rect class="cls-7" x="853.76" y="287.86" width="12.34" height="12.34"/><g class="cls-3"><g class="cls-4"><g class="cls-8"><rect class="cls-7" x="933.66" y="317.68" width="12.34" height="12.34"/><rect class="cls-7" x="933.66" y="305.81" width="12.34" height="12.34"/><rect class="cls-7" x="933.66" y="293.47" width="12.34" height="12.34"/><rect class="cls-7" x="921.31" y="342.37" width="12.34" height="12.34"/><rect class="cls-7" x="921.31" y="330.02" width="12.34" height="12.34"/><rect class="cls-7" x="921.31" y="317.68" width="12.34" height="12.34"/><rect class="cls-7" x="921.31" y="305.81" width="12.34" height="12.34"/><rect class="cls-7" x="921.31" y="293.47" width="12.34" height="12.34"/><rect class="cls-7" x="921.31" y="281.12" width="12.34" height="12.34"/><rect class="cls-7" x="908.97" y="367.05" width="12.34" height="12.34"/><rect class="cls-7" x="908.97" y="354.71" width="12.34" height="12.34"/><rect class="cls-7" x="908.97" y="342.37" width="12.34" height="12.34"/><rect class="cls-7" x="908.97" y="330.02" width="12.34" height="12.34"/><rect class="cls-7" x="908.97" y="293.47" width="12.34" height="12.34"/><rect class="cls-7" x="908.97" y="281.12" width="12.34" height="12.34"/><rect class="cls-7" x="908.97" y="268.78" width="12.34" height="12.34"/><rect class="cls-7" x="896.63" y="391.27" width="12.34" height="12.34"/><rect class="cls-7" x="896.63" y="378.92" width="12.34" height="12.34"/><rect class="cls-7" x="896.63" y="367.05" width="12.34" height="12.34"/><rect class="cls-7" x="896.63" y="354.71" width="12.34" height="12.34"/><rect class="cls-7" x="896.63" y="342.37" width="12.34" height="12.34"/><rect class="cls-7" x="896.63" y="281.12" width="12.34" height="12.34"/><rect class="cls-7" x="896.63" y="268.78" width="12.34" height="12.34"/><rect class="cls-7" x="884.28" y="367.05" width="12.34" height="12.34"/><rect class="cls-7" x="884.28" y="354.71" width="12.34" height="12.34"/><rect class="cls-7" x="884.28" y="342.37" width="12.34" height="12.34"/><rect class="cls-7" x="884.28" y="330.02" width="12.34" height="12.34"/><rect class="cls-7" x="884.28" y="293.47" width="12.34" height="12.34"/><rect class="cls-7" x="884.28" y="281.12" width="12.34" height="12.34"/><rect class="cls-7" x="884.28" y="268.78" width="12.34" height="12.34"/><rect class="cls-7" x="872.41" y="342.37" width="12.34" height="12.34"/><rect class="cls-7" x="872.41" y="330.02" width="12.34" height="12.34"/><rect class="cls-7" x="872.41" y="317.68" width="12.34" height="12.34"/><rect class="cls-7" x="872.41" y="305.81" width="12.34" height="12.34"/><rect class="cls-7" x="872.41" y="293.47" width="12.34" height="12.34"/><rect class="cls-7" x="872.41" y="281.12" width="12.34" height="12.34"/><rect class="cls-7" x="860.07" y="317.68" width="12.34" height="12.34"/><rect class="cls-7" x="860.07" y="305.81" width="12.34" height="12.34"/><rect class="cls-7" x="860.07" y="293.47" width="12.34" height="12.34"/></g></g></g></g></g></g><g id="characters-bubble"><g class="cls-9"><polygon class="cls-10" points="844.03 487.24 844.03 489.57 844.03 491.9 844.03 494.15 844.03 494.24 846.37 494.24 846.37 496.48 846.37 498.81 846.37 501.14 846.37 503.48 846.37 505.81 848.7 505.81 848.7 494.15 846.37 494.15 846.37 491.9 846.37 489.57 846.37 487.24 844.03 487.24"/><polygon class="cls-10" points="844.03 508.05 844.03 508.14 844.03 510.38 844.03 512.72 846.37 512.72 846.37 510.38 846.37 508.14 846.37 508.05 846.37 505.81 844.03 505.81 844.03 508.05"/><path class="cls-11" d="M846.37,501.14v-6.9H844v-7H841.7v-4.58h-2.33V478h-2.24v-2.34h-2.34v-2.33h-4.66v-2.24h-4.58v-2.33h-7v-2.34H807v2.34h-6.91v2.33h-4.66v2.24h-4.67v2.33H788.5V478h-2.33v4.66h-2.33v4.58H781.5v7h-2.33v11.57h2.33v6.91h2.34v4.66h2.33V522h2.33v2.33h2.24v2.33h4.67V529h4.66v2.34H807v2.24h11.58v-2.24h7V529h4.58v-2.33h4.66v-2.33h2.34V522h2.24v-4.58h2.33v-4.66H844v-6.91h2.34v-4.67Zm-60.2-6.9V491.9h2.33v-4.66h4.58v4.66h-2.34v4.58h-4.57Zm9.24-13.91V478h2.33v-2.34h4.67v4.67h-2.34v2.33h-2.33v2.25h-4.66v-4.58Z"/><polygon class="cls-10" points="841.7 515.05 841.7 517.38 844.03 517.38 844.03 515.05 844.03 512.72 841.7 512.72 841.7 515.05"/><polygon class="cls-10" points="839.37 519.62 839.37 519.71 839.37 521.96 841.7 521.96 841.7 519.71 841.7 519.62 841.7 517.38 839.37 517.38 839.37 519.62"/><polygon class="cls-10" points="839.37 482.57 839.37 482.66 841.7 482.66 841.7 484.9 841.7 487.24 844.03 487.24 844.03 484.9 844.03 482.57 841.7 482.57 841.7 480.33 841.7 478 839.37 478 839.37 480.33 839.37 482.57"/><rect class="cls-10" x="837.13" y="521.96" width="2.24" height="2.33"/><rect class="cls-10" x="837.13" y="475.66" width="2.24" height="2.33"/><polygon class="cls-10" points="834.79 524.29 834.79 526.62 837.13 526.62 837.13 524.29 837.04 524.29 834.79 524.29"/><polygon class="cls-10" points="837.04 475.67 837.13 475.67 837.13 473.33 834.79 473.33 834.79 475.67 837.04 475.67"/><polygon class="cls-10" points="830.13 526.62 830.13 528.95 832.46 528.95 834.79 528.95 834.79 526.62 832.46 526.62 830.13 526.62"/><polygon class="cls-10" points="825.55 528.95 825.55 531.2 825.55 531.29 827.8 531.29 830.13 531.29 830.13 528.95 827.8 528.95 825.55 528.95"/><polygon class="cls-10" points="825.55 471.09 827.8 471.09 830.13 471.09 830.13 473.33 832.46 473.33 834.79 473.33 834.79 471 832.46 471 830.13 471 830.13 468.76 827.8 468.76 825.55 468.76 825.55 471 825.55 471.09"/><polygon class="cls-10" points="823.22 531.29 820.89 531.29 818.55 531.29 818.55 533.53 820.89 533.53 823.22 533.53 825.55 533.53 825.55 531.29 825.46 531.29 823.22 531.29"/><polygon class="cls-10" points="820.89 468.76 823.22 468.76 825.46 468.76 825.55 468.76 825.55 466.43 823.22 466.43 820.89 466.43 818.55 466.43 818.55 468.76 820.89 468.76"/><polygon class="cls-10" points="816.22 533.53 813.98 533.53 813.89 533.53 811.65 533.53 809.32 533.53 806.98 533.53 806.98 535.86 809.32 535.86 811.65 535.86 813.89 535.86 813.98 535.86 816.22 535.86 818.55 535.86 818.55 533.53 816.22 533.53"/><polygon class="cls-10" points="806.98 464.09 806.98 466.43 809.32 466.43 811.65 466.43 813.89 466.43 813.98 466.43 816.22 466.43 818.55 466.43 818.55 464.09 806.98 464.09"/><polygon class="cls-10" points="804.65 531.29 802.41 531.29 802.32 531.29 800.08 531.29 800.08 533.53 802.32 533.53 802.41 533.53 804.65 533.53 806.98 533.53 806.98 531.29 804.65 531.29"/><polygon class="cls-10" points="802.41 468.76 804.65 468.76 806.98 468.76 806.98 466.43 804.65 466.43 802.41 466.43 802.32 466.43 800.08 466.43 800.08 468.76 802.32 468.76 802.41 468.76"/><polygon class="cls-10" points="800.08 528.95 797.74 528.95 795.41 528.95 795.41 531.29 797.74 531.29 800.08 531.29 800.08 531.2 800.08 528.95"/><polygon class="cls-10" points="793.08 526.62 790.75 526.62 790.75 528.95 793.08 528.95 795.41 528.95 795.41 526.62 793.08 526.62"/><polygon class="cls-6" points="793.08 482.66 793.08 484.9 795.41 484.9 797.74 484.9 797.74 482.66 800.07 482.66 800.07 482.57 800.07 480.33 802.32 480.33 802.41 480.33 802.41 478 802.41 475.67 802.32 475.67 800.07 475.67 797.74 475.67 797.74 478 795.41 478 795.41 480.33 793.08 480.33 793.08 482.57 793.08 482.66"/><polygon class="cls-10" points="795.41 473.33 795.41 471.09 797.74 471.09 800.08 471.09 800.08 471 800.08 468.76 797.74 468.76 795.41 468.76 795.41 471 793.08 471 790.74 471 790.74 473.33 793.08 473.33 795.41 473.33"/><polygon class="cls-10" points="788.5 524.29 788.5 521.96 788.41 521.96 786.17 521.96 786.17 524.29 788.41 524.29 788.41 526.62 790.75 526.62 790.75 524.29 788.5 524.29"/><polygon class="cls-6" points="788.5 496.48 790.75 496.48 790.75 494.24 790.75 494.15 790.75 491.9 793.08 491.9 793.08 489.57 793.08 487.24 790.75 487.24 788.5 487.24 788.5 489.57 788.5 491.9 788.41 491.9 786.17 491.9 786.17 494.15 786.17 494.24 786.17 496.48 788.41 496.48 788.5 496.48"/><polygon class="cls-10" points="788.5 478 788.5 475.67 790.75 475.67 790.75 473.33 788.41 473.33 788.41 475.67 786.17 475.67 786.17 478 788.41 478 788.5 478"/><polygon class="cls-10" points="786.17 519.62 786.17 517.38 783.84 517.38 783.84 519.62 783.84 519.71 783.84 521.96 786.17 521.96 786.17 519.71 786.17 519.62"/><polygon class="cls-10" points="783.84 512.72 781.5 512.72 781.5 515.05 781.5 517.38 783.84 517.38 783.84 515.05 783.84 512.72"/><polygon class="cls-10" points="783.84 484.9 783.84 482.66 786.17 482.66 786.17 482.57 786.17 480.33 786.17 478 783.84 478 783.84 480.33 783.84 482.57 781.5 482.57 781.5 484.9 781.5 487.24 783.84 487.24 783.84 484.9"/><polygon class="cls-10" points="781.5 508.14 781.5 508.05 781.5 505.81 779.17 505.81 779.17 508.05 779.17 508.14 779.17 510.38 779.17 512.72 781.5 512.72 781.5 510.38 781.5 508.14"/><polygon class="cls-10" points="779.17 487.24 779.17 489.57 779.17 491.9 779.17 494.15 776.84 494.15 776.84 496.48 776.84 498.81 776.84 501.14 776.84 503.48 776.84 505.81 779.17 505.81 779.17 503.48 779.17 501.14 779.17 498.81 779.17 496.48 779.17 494.24 781.5 494.24 781.5 494.15 781.5 491.9 781.5 489.57 781.5 487.24 779.17 487.24"/><polygon class="cls-12" points="808.32 519.18 808.23 519.18 806.05 519.18 806.05 521.36 808.23 521.36 808.32 521.36 810.5 521.36 810.5 519.18 808.32 519.18"/><polygon class="cls-13" points="806.05 507.92 806.05 507.83 806.05 505.65 806.05 503.38 805.96 503.38 803.78 503.38 803.78 505.65 803.78 507.83 803.78 507.92 803.78 510.1 803.78 512.37 806.05 512.37 806.05 510.1 806.05 507.92"/><polygon class="cls-14" points="817.31 478.59 817.22 478.59 815.04 478.59 812.77 478.59 810.5 478.59 808.23 478.59 805.96 478.59 805.96 480.86 803.78 480.86 803.78 483.04 801.51 483.04 801.51 485.31 801.51 487.58 801.51 489.85 801.51 492.12 801.51 494.3 801.51 494.39 801.51 496.57 801.51 498.84 803.78 498.84 803.78 501.11 805.96 501.11 805.96 498.84 806.05 498.84 808.23 498.84 808.23 496.57 806.05 496.57 805.96 496.57 805.96 494.39 805.96 494.3 805.96 492.12 803.78 492.12 803.78 489.85 805.96 489.85 805.96 487.58 805.96 485.31 806.05 485.31 808.14 485.31 808.23 485.31 810.5 485.31 810.5 483.13 812.77 483.13 815.04 483.13 815.04 485.31 817.22 485.31 817.31 485.31 819.49 485.31 819.49 487.58 819.49 489.85 821.76 489.85 821.76 492.12 819.49 492.12 819.49 494.3 819.49 494.39 819.49 496.57 817.31 496.57 817.31 498.84 819.49 498.84 819.49 501.11 821.76 501.11 821.76 498.84 824.03 498.84 824.03 496.57 824.03 494.39 824.03 494.3 824.03 492.12 824.03 489.85 824.03 487.58 824.03 485.31 824.03 483.04 821.76 483.04 821.76 480.86 819.49 480.86 819.49 478.59 817.31 478.59"/><polygon class="cls-13" points="819.49 505.65 819.49 507.83 819.49 507.92 819.49 510.1 819.49 512.37 821.76 512.37 821.76 510.1 821.76 507.92 821.76 507.83 821.76 505.65 821.76 503.38 819.49 503.38 819.49 505.65"/><polygon class="cls-15" points="817.31 510.1 817.22 510.1 815.04 510.1 812.77 510.1 810.5 510.1 808.32 510.1 808.23 510.1 806.05 510.1 806.05 512.37 806.05 514.64 806.05 516.91 806.05 519.09 806.05 519.18 808.23 519.18 808.32 519.18 810.5 519.18 810.5 519.09 810.5 516.91 810.5 514.64 812.77 514.64 815.04 514.64 815.04 516.91 815.04 519.09 815.04 519.18 817.22 519.18 817.31 519.18 819.49 519.18 819.49 519.09 819.49 516.91 819.49 514.64 819.49 512.37 819.49 510.1 817.31 510.1"/><polygon class="cls-16" points="819.49 498.84 817.31 498.84 817.22 498.84 815.04 498.84 815.04 501.11 812.77 501.11 810.5 501.11 810.5 498.84 808.23 498.84 806.05 498.84 805.96 498.84 805.96 501.11 803.78 501.11 803.78 503.38 805.96 503.38 806.05 503.38 806.05 505.65 806.05 507.83 806.05 507.92 806.05 510.1 808.23 510.1 808.32 510.1 810.5 510.1 812.77 510.1 815.04 510.1 817.22 510.1 817.31 510.1 819.49 510.1 819.49 507.92 819.49 507.83 819.49 505.65 819.49 503.38 821.76 503.38 821.76 501.11 819.49 501.11 819.49 498.84"/><polygon class="cls-12" points="817.31 519.18 817.22 519.18 815.04 519.18 815.04 521.36 817.22 521.36 817.31 521.36 819.49 521.36 819.49 519.18 817.31 519.18"/><polygon class="cls-12" points="817.31 492.12 817.31 489.85 817.31 487.58 817.22 487.58 815.04 487.58 815.04 489.85 815.04 492.12 817.22 492.12 817.31 492.12"/><polygon class="cls-17" points="810.5 496.57 812.77 496.57 815.04 496.57 815.04 494.39 812.77 494.39 810.5 494.39 810.5 496.57"/><path class="cls-13" d="M810.5,501.11H815v-2.27h2.27v-2.27h2.18v-4.45h2.27v-2.27h-2.27v-4.54H815v-2.18H810.5v2.18H806v4.54h-2.18v2.27H806v4.45h2.27v2.27h2.27ZM815,489.85v-2.27h2.27v4.54H815Zm-2.27,4.54H815v2.18H810.5v-2.18Zm-4.54-2.27v-4.54h2.27v4.54Z"/><polygon class="cls-12" points="810.5 489.85 810.5 487.58 808.23 487.58 808.23 489.85 808.23 492.12 810.5 492.12 810.5 489.85"/><polygon class="cls-10" points="693.88 487.24 693.88 489.57 693.88 491.9 693.88 494.15 693.88 494.24 696.22 494.24 696.22 496.48 696.22 498.81 696.22 501.14 696.22 503.48 696.22 505.81 698.55 505.81 698.55 494.15 696.22 494.15 696.22 491.9 696.22 489.57 696.22 487.24 693.88 487.24"/><polygon class="cls-10" points="693.88 508.05 693.88 508.14 693.88 510.38 693.88 512.72 696.22 512.72 696.22 510.38 696.22 508.14 696.22 508.05 696.22 505.81 693.88 505.81 693.88 508.05"/><path class="cls-11" d="M696.22,501.14v-6.9h-2.34v-7h-2.33v-4.58h-2.33V478H687v-2.34h-2.34v-2.33H680v-2.24H675.4v-2.33h-7v-2.34H656.83v2.34h-6.91v2.33h-4.66v2.24h-4.67v2.33h-2.24V478H636v4.66h-2.33v4.58h-2.34v7H629v11.57h2.33v6.91h2.34v4.66H636V522h2.33v2.33h2.24v2.33h4.67V529h4.66v2.34h6.91v2.24H668.4v-2.24h7V529H680v-2.33h4.66v-2.33H687V522h2.24v-4.58h2.33v-4.66h2.33v-6.91h2.34v-4.67Zm-60.2-6.9V491.9h2.33v-4.66h4.58v4.66h-2.34v4.58H636Zm9.24-13.91V478h2.33v-2.34h4.67v4.67h-2.34v2.33h-2.33v2.25h-4.66v-4.58Z"/><polygon class="cls-10" points="691.55 515.05 691.55 517.38 693.88 517.38 693.88 515.05 693.88 512.72 691.55 512.72 691.55 515.05"/><polygon class="cls-10" points="689.22 519.62 689.22 519.71 689.22 521.96 691.55 521.96 691.55 519.71 691.55 519.62 691.55 517.38 689.22 517.38 689.22 519.62"/><polygon class="cls-10" points="689.22 482.57 689.22 482.66 691.55 482.66 691.55 484.9 691.55 487.24 693.88 487.24 693.88 484.9 693.88 482.57 691.55 482.57 691.55 480.33 691.55 478 689.22 478 689.22 480.33 689.22 482.57"/><rect class="cls-10" x="686.98" y="521.96" width="2.24" height="2.33"/><rect class="cls-10" x="686.98" y="475.66" width="2.24" height="2.33"/><polygon class="cls-10" points="684.64 524.29 684.64 526.62 686.98 526.62 686.98 524.29 686.88 524.29 684.64 524.29"/><polygon class="cls-10" points="686.88 475.67 686.98 475.67 686.98 473.33 684.64 473.33 684.64 475.67 686.88 475.67"/><polygon class="cls-10" points="679.98 526.62 679.98 528.95 682.31 528.95 684.64 528.95 684.64 526.62 682.31 526.62 679.98 526.62"/><polygon class="cls-10" points="675.4 528.95 675.4 531.2 675.4 531.29 677.64 531.29 679.98 531.29 679.98 528.95 677.64 528.95 675.4 528.95"/><polygon class="cls-10" points="675.4 471.09 677.64 471.09 679.98 471.09 679.98 473.33 682.31 473.33 684.64 473.33 684.64 471 682.31 471 679.98 471 679.98 468.76 677.64 468.76 675.4 468.76 675.4 471 675.4 471.09"/><polygon class="cls-10" points="673.07 531.29 670.74 531.29 668.4 531.29 668.4 533.53 670.74 533.53 673.07 533.53 675.4 533.53 675.4 531.29 675.31 531.29 673.07 531.29"/><polygon class="cls-10" points="670.74 468.76 673.07 468.76 675.31 468.76 675.4 468.76 675.4 466.43 673.07 466.43 670.74 466.43 668.4 466.43 668.4 468.76 670.74 468.76"/><polygon class="cls-10" points="666.07 533.53 663.83 533.53 663.74 533.53 661.5 533.53 659.16 533.53 656.83 533.53 656.83 535.86 659.16 535.86 661.5 535.86 663.74 535.86 663.83 535.86 666.07 535.86 668.4 535.86 668.4 533.53 666.07 533.53"/><polygon class="cls-10" points="656.83 464.09 656.83 466.43 659.16 466.43 661.5 466.43 663.74 466.43 663.83 466.43 666.07 466.43 668.4 466.43 668.4 464.09 656.83 464.09"/><polygon class="cls-10" points="654.5 531.29 652.26 531.29 652.17 531.29 649.92 531.29 649.92 533.53 652.17 533.53 652.26 533.53 654.5 533.53 656.83 533.53 656.83 531.29 654.5 531.29"/><polygon class="cls-10" points="652.26 468.76 654.5 468.76 656.83 468.76 656.83 466.43 654.5 466.43 652.26 466.43 652.17 466.43 649.92 466.43 649.92 468.76 652.17 468.76 652.26 468.76"/><polygon class="cls-10" points="649.92 528.95 647.59 528.95 645.26 528.95 645.26 531.29 647.59 531.29 649.92 531.29 649.92 531.2 649.92 528.95"/><polygon class="cls-10" points="642.93 526.62 640.59 526.62 640.59 528.95 642.93 528.95 645.26 528.95 645.26 526.62 642.93 526.62"/><polygon class="cls-6" points="642.93 482.66 642.93 484.9 645.26 484.9 647.59 484.9 647.59 482.66 649.92 482.66 649.92 482.57 649.92 480.33 652.17 480.33 652.26 480.33 652.26 478 652.26 475.67 652.17 475.67 649.92 475.67 647.59 475.67 647.59 478 645.26 478 645.26 480.33 642.93 480.33 642.93 482.57 642.93 482.66"/><polygon class="cls-10" points="645.26 473.33 645.26 471.09 647.59 471.09 649.92 471.09 649.92 471 649.92 468.76 647.59 468.76 645.26 468.76 645.26 471 642.93 471 640.59 471 640.59 473.33 642.93 473.33 645.26 473.33"/><polygon class="cls-10" points="638.35 524.29 638.35 521.96 638.26 521.96 636.02 521.96 636.02 524.29 638.26 524.29 638.26 526.62 640.59 526.62 640.59 524.29 638.35 524.29"/><polygon class="cls-6" points="638.35 496.48 640.59 496.48 640.59 494.24 640.59 494.15 640.59 491.9 642.93 491.9 642.93 489.57 642.93 487.24 640.59 487.24 638.35 487.24 638.35 489.57 638.35 491.9 638.26 491.9 636.02 491.9 636.02 494.15 636.02 494.24 636.02 496.48 638.26 496.48 638.35 496.48"/><polygon class="cls-10" points="638.35 478 638.35 475.67 640.59 475.67 640.59 473.33 638.26 473.33 638.26 475.67 636.02 475.67 636.02 478 638.26 478 638.35 478"/><polygon class="cls-10" points="636.02 519.62 636.02 517.38 633.69 517.38 633.69 519.62 633.69 519.71 633.69 521.96 636.02 521.96 636.02 519.71 636.02 519.62"/><polygon class="cls-10" points="633.69 512.72 631.35 512.72 631.35 515.05 631.35 517.38 633.69 517.38 633.69 515.05 633.69 512.72"/><polygon class="cls-10" points="633.69 484.9 633.69 482.66 636.02 482.66 636.02 482.57 636.02 480.33 636.02 478 633.69 478 633.69 480.33 633.69 482.57 631.35 482.57 631.35 484.9 631.35 487.24 633.69 487.24 633.69 484.9"/><polygon class="cls-10" points="631.35 508.14 631.35 508.05 631.35 505.81 629.02 505.81 629.02 508.05 629.02 508.14 629.02 510.38 629.02 512.72 631.35 512.72 631.35 510.38 631.35 508.14"/><polygon class="cls-10" points="629.02 487.24 629.02 489.57 629.02 491.9 629.02 494.15 626.69 494.15 626.69 496.48 626.69 498.81 626.69 501.14 626.69 503.48 626.69 505.81 629.02 505.81 629.02 503.48 629.02 501.14 629.02 498.81 629.02 496.48 629.02 494.24 631.35 494.24 631.35 494.15 631.35 491.9 631.35 489.57 631.35 487.24 629.02 487.24"/><polygon class="cls-12" points="660.39 472.92 660.39 475.19 658.12 475.19 655.85 475.19 653.59 475.19 653.59 477.46 653.59 479.73 651.32 479.73 651.32 482 651.32 484.18 651.32 484.27 651.32 486.45 653.59 486.45 653.59 488.72 653.59 490.99 653.59 493.26 653.59 495.44 653.59 495.52 655.85 495.52 655.85 495.44 655.85 493.26 655.85 490.99 658.12 490.99 660.39 490.99 660.39 488.72 662.58 488.72 662.66 488.72 664.84 488.72 664.84 490.99 667.11 490.99 669.38 490.99 669.38 493.26 669.38 495.44 669.38 495.52 671.65 495.52 671.65 495.44 671.65 493.26 671.65 490.99 671.65 488.72 671.65 486.45 673.92 486.45 673.92 479.73 671.65 479.73 671.65 477.46 671.65 475.19 669.38 475.19 667.11 475.19 664.84 475.19 664.84 472.92 660.39 472.92"/><polygon class="cls-18" points="669.38 511.24 669.38 513.51 669.38 515.78 669.38 517.96 669.38 518.04 671.65 518.04 671.65 515.78 671.65 513.51 671.65 511.24 671.65 508.97 669.38 508.97 669.38 511.24"/><polygon class="cls-15" points="669.38 515.77 667.11 515.77 664.84 515.77 662.66 515.77 662.57 515.77 660.39 515.77 658.12 515.77 655.85 515.77 655.85 517.96 655.85 518.04 655.85 520.23 655.85 522.5 655.85 524.77 658.12 524.77 660.39 524.77 660.39 522.5 660.39 520.23 662.57 520.23 662.66 520.23 664.84 520.23 664.84 522.5 664.84 524.77 667.11 524.77 669.38 524.77 669.38 522.5 669.38 520.23 669.38 518.04 669.38 517.96 669.38 515.77"/><path class="cls-18" d="M669.38,495.44V491h-4.54v-2.27h-4.45V491h-4.54v4.54h-2.27v2.18h2.27v4.54h2.27v2.27h2.27v2.27h4.45v-2.27h2.27v-2.27h2.27v-4.54h2.27v-2.18h-2.27Zm-11.26.09v-2.27h2.27v4.45h-2.27Zm4.54,6.72h-2.27V500h4.45v2.27Zm4.45-4.54h-2.27v-4.45h2.27v4.45Z"/><polygon class="cls-12" points="667.11 524.77 664.84 524.77 664.84 527.03 667.11 527.03 669.38 527.03 669.38 524.77 667.11 524.77"/><polygon class="cls-19" points="664.84 506.7 664.84 506.79 662.66 506.79 662.58 506.79 660.39 506.79 660.39 506.7 660.39 504.52 658.12 504.52 655.85 504.52 655.85 506.7 653.58 506.7 653.58 508.97 655.85 508.97 655.85 511.24 655.85 513.51 655.85 515.78 658.12 515.78 660.39 515.78 662.58 515.78 662.66 515.78 664.84 515.78 667.11 515.78 669.38 515.78 669.38 513.51 669.38 511.24 669.38 508.97 671.65 508.97 671.65 506.7 669.38 506.7 669.38 504.52 667.11 504.52 664.84 504.52 664.84 506.7"/><polygon class="cls-12" points="667.11 493.26 664.84 493.26 664.84 495.44 664.84 495.52 664.84 497.71 667.11 497.71 667.11 495.52 667.11 495.44 667.11 493.26"/><polygon class="cls-20" points="662.66 499.98 662.58 499.98 660.39 499.98 660.39 502.25 662.58 502.25 662.66 502.25 664.84 502.25 664.84 499.98 662.66 499.98"/><polygon class="cls-12" points="660.39 495.52 660.39 495.44 660.39 493.26 658.12 493.26 658.12 495.44 658.12 495.52 658.12 497.71 660.39 497.71 660.39 495.52"/><polygon class="cls-12" points="658.12 524.77 655.85 524.77 655.85 527.03 658.12 527.03 660.39 527.03 660.39 524.77 658.12 524.77"/><polygon class="cls-18" points="655.85 515.77 655.85 513.51 655.85 511.24 655.85 508.97 653.58 508.97 653.58 511.24 653.58 513.51 653.58 515.77 653.58 518.04 655.85 518.04 655.85 517.96 655.85 515.77"/><polygon class="cls-10" points="768.96 487.24 768.96 489.57 768.96 491.9 768.96 494.15 768.96 494.24 771.29 494.24 771.29 496.48 771.29 498.81 771.29 501.14 771.29 503.48 771.29 505.81 773.62 505.81 773.62 494.15 771.29 494.15 771.29 491.9 771.29 489.57 771.29 487.24 768.96 487.24"/><polygon class="cls-10" points="768.96 508.05 768.96 508.14 768.96 510.38 768.96 512.72 771.29 512.72 771.29 510.38 771.29 508.14 771.29 508.05 771.29 505.81 768.96 505.81 768.96 508.05"/><path class="cls-11" d="M771.29,501.14v-6.9H769v-7h-2.33v-4.58h-2.34V478h-2.24v-2.34h-2.33v-2.33h-4.67v-2.24h-4.57v-2.33h-7v-2.34H731.91v2.34H725v2.33h-4.67v2.24h-4.66v2.33h-2.24V478h-2.34v4.66h-2.33v4.58h-2.33v7H704.1v11.57h2.33v6.91h2.33v4.66h2.33V522h2.34v2.33h2.24v2.33h4.66V529H725v2.34h6.91v2.24h11.57v-2.24h7V529h4.57v-2.33h4.67v-2.33h2.33V522h2.24v-4.58h2.34v-4.66H769v-6.91h2.33v-4.67Zm-60.2-6.9V491.9h2.34v-4.66H718v4.66h-2.33v4.58h-4.58Zm9.24-13.91V478h2.34v-2.34h4.66v4.67H725v2.33h-2.33v2.25H718v-4.58Z"/><polygon class="cls-10" points="766.63 515.05 766.63 517.38 768.96 517.38 768.96 515.05 768.96 512.72 766.63 512.72 766.63 515.05"/><polygon class="cls-10" points="764.29 519.62 764.29 519.71 764.29 521.96 766.63 521.96 766.63 519.71 766.63 519.62 766.63 517.38 764.29 517.38 764.29 519.62"/><polygon class="cls-10" points="764.29 482.57 764.29 482.66 766.63 482.66 766.63 484.9 766.63 487.24 768.96 487.24 768.96 484.9 768.96 482.57 766.63 482.57 766.63 480.33 766.63 478 764.29 478 764.29 480.33 764.29 482.57"/><rect class="cls-10" x="762.05" y="521.96" width="2.24" height="2.33"/><rect class="cls-10" x="762.05" y="475.66" width="2.24" height="2.33"/><polygon class="cls-10" points="759.72 524.29 759.72 526.62 762.05 526.62 762.05 524.29 761.96 524.29 759.72 524.29"/><polygon class="cls-10" points="761.96 475.67 762.05 475.67 762.05 473.33 759.72 473.33 759.72 475.67 761.96 475.67"/><polygon class="cls-10" points="755.05 526.62 755.05 528.95 757.38 528.95 759.72 528.95 759.72 526.62 757.38 526.62 755.05 526.62"/><polygon class="cls-10" points="750.48 528.95 750.48 531.2 750.48 531.29 752.72 531.29 755.05 531.29 755.05 528.95 752.72 528.95 750.48 528.95"/><polygon class="cls-10" points="750.48 471.09 752.72 471.09 755.05 471.09 755.05 473.33 757.38 473.33 759.72 473.33 759.72 471 757.38 471 755.05 471 755.05 468.76 752.72 468.76 750.48 468.76 750.48 471 750.48 471.09"/><polygon class="cls-10" points="748.14 531.29 745.81 531.29 743.48 531.29 743.48 533.53 745.81 533.53 748.14 533.53 750.48 533.53 750.48 531.29 750.39 531.29 748.14 531.29"/><polygon class="cls-10" points="745.81 468.76 748.14 468.76 750.39 468.76 750.48 468.76 750.48 466.43 748.14 466.43 745.81 466.43 743.48 466.43 743.48 468.76 745.81 468.76"/><polygon class="cls-10" points="741.15 533.53 738.9 533.53 738.82 533.53 736.57 533.53 734.24 533.53 731.91 533.53 731.91 535.86 734.24 535.86 736.57 535.86 738.82 535.86 738.9 535.86 741.15 535.86 743.48 535.86 743.48 533.53 741.15 533.53"/><polygon class="cls-10" points="731.91 464.09 731.91 466.43 734.24 466.43 736.57 466.43 738.82 466.43 738.9 466.43 741.15 466.43 743.48 466.43 743.48 464.09 731.91 464.09"/><polygon class="cls-10" points="729.58 531.29 727.33 531.29 727.24 531.29 725 531.29 725 533.53 727.24 533.53 727.33 533.53 729.58 533.53 731.91 533.53 731.91 531.29 729.58 531.29"/><polygon class="cls-10" points="727.33 468.76 729.58 468.76 731.91 468.76 731.91 466.43 729.58 466.43 727.33 466.43 727.24 466.43 725 466.43 725 468.76 727.24 468.76 727.33 468.76"/><polygon class="cls-10" points="725 528.95 722.67 528.95 720.33 528.95 720.33 531.29 722.67 531.29 725 531.29 725 531.2 725 528.95"/><polygon class="cls-10" points="718 526.62 715.67 526.62 715.67 528.95 718 528.95 720.33 528.95 720.33 526.62 718 526.62"/><polygon class="cls-6" points="718 482.66 718 484.9 720.33 484.9 722.67 484.9 722.67 482.66 725 482.66 725 482.57 725 480.33 727.24 480.33 727.33 480.33 727.33 478 727.33 475.67 727.24 475.67 725 475.67 722.67 475.67 722.67 478 720.33 478 720.33 480.33 718 480.33 718 482.57 718 482.66"/><polygon class="cls-10" points="720.33 473.33 720.33 471.09 722.67 471.09 725 471.09 725 471 725 468.76 722.67 468.76 720.33 468.76 720.33 471 718 471 715.67 471 715.67 473.33 718 473.33 720.33 473.33"/><polygon class="cls-10" points="713.43 524.29 713.43 521.96 713.34 521.96 711.09 521.96 711.09 524.29 713.34 524.29 713.34 526.62 715.67 526.62 715.67 524.29 713.43 524.29"/><polygon class="cls-6" points="713.43 496.48 715.67 496.48 715.67 494.24 715.67 494.15 715.67 491.9 718 491.9 718 489.57 718 487.24 715.67 487.24 713.43 487.24 713.43 489.57 713.43 491.9 713.34 491.9 711.09 491.9 711.09 494.15 711.09 494.24 711.09 496.48 713.34 496.48 713.43 496.48"/><polygon class="cls-10" points="713.43 478 713.43 475.67 715.67 475.67 715.67 473.33 713.34 473.33 713.34 475.67 711.09 475.67 711.09 478 713.34 478 713.43 478"/><polygon class="cls-10" points="711.09 519.62 711.09 517.38 708.76 517.38 708.76 519.62 708.76 519.71 708.76 521.96 711.09 521.96 711.09 519.71 711.09 519.62"/><polygon class="cls-10" points="708.76 512.72 706.43 512.72 706.43 515.05 706.43 517.38 708.76 517.38 708.76 515.05 708.76 512.72"/><polygon class="cls-10" points="708.76 484.9 708.76 482.66 711.09 482.66 711.09 482.57 711.09 480.33 711.09 478 708.76 478 708.76 480.33 708.76 482.57 706.43 482.57 706.43 484.9 706.43 487.24 708.76 487.24 708.76 484.9"/><polygon class="cls-10" points="706.43 508.14 706.43 508.05 706.43 505.81 704.1 505.81 704.1 508.05 704.1 508.14 704.1 510.38 704.1 512.72 706.43 512.72 706.43 510.38 706.43 508.14"/><polygon class="cls-10" points="704.1 487.24 704.1 489.57 704.1 491.9 704.1 494.15 701.76 494.15 701.76 496.48 701.76 498.81 701.76 501.14 701.76 503.48 701.76 505.81 704.1 505.81 704.1 503.48 704.1 501.14 704.1 498.81 704.1 496.48 704.1 494.24 706.43 494.24 706.43 494.15 706.43 491.9 706.43 489.57 706.43 487.24 704.1 487.24"/><polygon class="cls-12" points="739.96 476.32 739.96 478.59 737.69 478.59 737.69 476.32 733.15 476.32 733.15 478.59 730.97 478.59 728.7 478.59 728.7 480.77 726.43 480.77 726.43 483.04 726.43 485.31 724.16 485.31 724.16 487.58 726.43 487.58 726.43 489.85 724.16 489.85 724.16 492.12 726.43 492.12 726.43 494.3 728.7 494.3 728.7 492.12 730.97 492.12 730.97 492.03 730.97 489.85 730.97 487.58 733.15 487.58 733.24 487.58 733.24 485.31 735.42 485.31 737.69 485.31 739.96 485.31 742.23 485.31 742.23 487.58 744.5 487.58 744.5 489.85 744.5 492.03 744.5 492.12 746.68 492.12 746.77 492.12 748.95 492.12 751.22 492.12 751.22 489.85 748.95 489.85 748.95 487.58 751.22 487.58 751.22 485.31 748.95 485.31 748.95 483.04 748.95 480.77 746.77 480.77 746.77 478.59 744.5 478.59 742.23 478.59 742.23 476.32 739.96 476.32"/><polygon class="cls-18" points="744.5 510.1 744.5 512.37 744.5 514.64 746.77 514.64 746.77 512.37 746.77 510.1 746.77 507.83 744.5 507.83 744.5 510.1"/><rect class="cls-12" x="744.5" y="494.3" width="2.27" height="2.27"/><path class="cls-18" d="M744.5,492.12v-4.54h-2.27v-2.27h-9v2.27H731v4.54H728.7v2.18H731v4.54h2.18v2.27h2.27v2.27H740v-2.27h2.27v-2.27h2.27V494.3h2.27v-2.18H744.5Zm-9.08-2.27v4.45h-2.18v-4.45Zm2.27,9h-2.27v-2.27H740v2.27ZM740,494.3v-4.45h2.27v4.45Z"/><polygon class="cls-21" points="742.23 512.37 739.96 512.37 737.69 512.37 735.42 512.37 733.24 512.37 733.15 512.37 730.97 512.37 730.97 514.64 730.97 516.82 730.97 516.91 730.97 519.09 730.97 521.36 733.15 521.36 733.24 521.36 735.42 521.36 735.42 519.09 735.42 516.91 737.69 516.91 739.96 516.91 739.96 519.09 739.96 521.36 742.23 521.36 744.5 521.36 744.5 519.09 744.5 516.91 744.5 516.82 744.5 514.64 744.5 512.37 742.23 512.37"/><polygon class="cls-22" points="742.23 521.36 739.96 521.36 739.96 523.63 742.23 523.63 744.5 523.63 744.5 521.36 742.23 521.36"/><polygon class="cls-23" points="739.96 503.38 737.69 503.38 735.42 503.38 735.42 501.11 733.24 501.11 733.15 501.11 730.97 501.11 730.97 503.38 728.7 503.38 728.7 505.56 728.7 505.65 728.7 507.83 730.97 507.83 730.97 510.1 730.97 512.37 733.15 512.37 733.24 512.37 735.42 512.37 737.69 512.37 739.96 512.37 742.23 512.37 744.5 512.37 744.5 510.1 744.5 507.83 746.77 507.83 746.77 505.65 746.77 505.56 746.77 503.38 744.5 503.38 744.5 501.11 742.23 501.11 739.96 501.11 739.96 503.38"/><polygon class="cls-12" points="742.23 492.03 742.23 489.85 739.96 489.85 739.96 492.03 739.96 492.12 739.96 494.3 742.23 494.3 742.23 492.12 742.23 492.03"/><polygon class="cls-20" points="737.69 496.57 735.42 496.57 735.42 498.84 737.69 498.84 739.96 498.84 739.96 496.57 737.69 496.57"/><polygon class="cls-12" points="733.24 492.12 733.24 494.3 735.42 494.3 735.42 492.12 735.42 492.03 735.42 489.85 733.24 489.85 733.24 492.03 733.24 492.12"/><polygon class="cls-22" points="733.24 521.36 733.15 521.36 730.97 521.36 730.97 523.63 733.15 523.63 733.24 523.63 735.42 523.63 735.42 521.36 733.24 521.36"/><polygon class="cls-18" points="730.97 510.1 730.97 507.83 728.7 507.83 728.7 510.1 728.7 512.37 728.7 514.64 730.97 514.64 730.97 512.37 730.97 510.1"/><rect class="cls-12" x="728.7" y="494.3" width="2.27" height="2.27"/><polygon class="cls-10" points="618.5 487.24 618.5 489.57 618.5 491.9 618.5 494.15 618.5 494.24 620.83 494.24 620.83 496.48 620.83 498.81 620.83 501.14 620.83 503.48 620.83 505.81 623.16 505.81 623.16 494.15 620.83 494.15 620.83 491.9 620.83 489.57 620.83 487.24 618.5 487.24"/><polygon class="cls-10" points="618.5 508.05 618.5 508.14 618.5 510.38 618.5 512.72 620.83 512.72 620.83 510.38 620.83 508.14 620.83 508.05 620.83 505.81 618.5 505.81 618.5 508.05"/><path class="cls-11" d="M620.83,501.14v-6.9H618.5v-7h-2.34v-4.58h-2.33V478h-2.24v-2.34h-2.33v-2.33h-4.67v-2.24H600v-2.33h-7v-2.34H581.44v2.34h-6.9v2.33h-4.67v2.24h-4.66v2.33H563V478h-2.33v4.66H558.3v4.58H556v7h-2.34v11.57H556v6.91h2.33v4.66h2.33V522H563v2.33h2.25v2.33h4.66V529h4.67v2.34h6.9v2.24H593v-2.24h7V529h4.57v-2.33h4.67v-2.33h2.33V522h2.24v-4.58h2.33v-4.66h2.34v-6.91h2.33v-4.67Zm-60.2-6.9V491.9H563v-4.66h4.58v4.66h-2.33v4.58h-4.58Zm9.24-13.91V478h2.33v-2.34h4.67v4.67h-2.33v2.33H572.2v2.25h-4.66v-4.58Z"/><polygon class="cls-10" points="616.16 515.05 616.16 517.38 618.5 517.38 618.5 515.05 618.5 512.72 616.16 512.72 616.16 515.05"/><polygon class="cls-10" points="613.83 519.62 613.83 519.71 613.83 521.96 616.16 521.96 616.16 519.71 616.16 519.62 616.16 517.38 613.83 517.38 613.83 519.62"/><polygon class="cls-10" points="613.83 482.57 613.83 482.66 616.16 482.66 616.16 484.9 616.16 487.24 618.5 487.24 618.5 484.9 618.5 482.57 616.16 482.57 616.16 480.33 616.16 478 613.83 478 613.83 480.33 613.83 482.57"/><rect class="cls-10" x="611.59" y="521.96" width="2.24" height="2.33"/><rect class="cls-10" x="611.59" y="475.66" width="2.24" height="2.33"/><polygon class="cls-10" points="609.26 524.29 609.26 526.62 611.59 526.62 611.59 524.29 611.5 524.29 609.26 524.29"/><polygon class="cls-10" points="611.5 475.67 611.59 475.67 611.59 473.33 609.25 473.33 609.25 475.67 611.5 475.67"/><polygon class="cls-10" points="604.59 526.62 604.59 528.95 606.92 528.95 609.26 528.95 609.26 526.62 606.92 526.62 604.59 526.62"/><polygon class="cls-10" points="600.01 528.95 600.01 531.2 600.01 531.29 602.26 531.29 604.59 531.29 604.59 528.95 602.26 528.95 600.01 528.95"/><polygon class="cls-10" points="600.01 471.09 602.26 471.09 604.59 471.09 604.59 473.33 606.92 473.33 609.26 473.33 609.26 471 606.92 471 604.59 471 604.59 468.76 602.26 468.76 600.01 468.76 600.01 471 600.01 471.09"/><polygon class="cls-10" points="597.68 531.29 595.35 531.29 593.02 531.29 593.02 533.53 595.35 533.53 597.68 533.53 600.01 533.53 600.01 531.29 599.93 531.29 597.68 531.29"/><polygon class="cls-10" points="595.35 468.76 597.68 468.76 599.93 468.76 600.01 468.76 600.01 466.43 597.68 466.43 595.35 466.43 593.02 466.43 593.02 468.76 595.35 468.76"/><polygon class="cls-10" points="590.68 533.53 588.44 533.53 588.35 533.53 586.11 533.53 583.78 533.53 581.45 533.53 581.45 535.86 583.78 535.86 586.11 535.86 588.35 535.86 588.44 535.86 590.68 535.86 593.02 535.86 593.02 533.53 590.68 533.53"/><polygon class="cls-10" points="581.45 464.09 581.45 466.43 583.78 466.43 586.11 466.43 588.35 466.43 588.44 466.43 590.68 466.43 593.02 466.43 593.02 464.09 581.45 464.09"/><polygon class="cls-10" points="579.11 531.29 576.87 531.29 576.78 531.29 574.54 531.29 574.54 533.53 576.78 533.53 576.87 533.53 579.11 533.53 581.45 533.53 581.45 531.29 579.11 531.29"/><polygon class="cls-10" points="576.87 468.76 579.11 468.76 581.45 468.76 581.45 466.43 579.11 466.43 576.87 466.43 576.78 466.43 574.54 466.43 574.54 468.76 576.78 468.76 576.87 468.76"/><polygon class="cls-10" points="574.54 528.95 572.21 528.95 569.87 528.95 569.87 531.29 572.21 531.29 574.54 531.29 574.54 531.2 574.54 528.95"/><polygon class="cls-10" points="567.54 526.62 565.21 526.62 565.21 528.95 567.54 528.95 569.87 528.95 569.87 526.62 567.54 526.62"/><polygon class="cls-6" points="567.54 482.66 567.54 484.9 569.87 484.9 572.2 484.9 572.2 482.66 574.54 482.66 574.54 482.57 574.54 480.33 576.78 480.33 576.87 480.33 576.87 478 576.87 475.67 576.78 475.67 574.54 475.67 572.2 475.67 572.2 478 569.87 478 569.87 480.33 567.54 480.33 567.54 482.57 567.54 482.66"/><polygon class="cls-10" points="569.87 473.33 569.87 471.09 572.2 471.09 574.54 471.09 574.54 471 574.54 468.76 572.2 468.76 569.87 468.76 569.87 471 567.54 471 565.21 471 565.21 473.33 567.54 473.33 569.87 473.33"/><polygon class="cls-10" points="562.96 524.29 562.96 521.96 562.87 521.96 560.63 521.96 560.63 524.29 562.87 524.29 562.87 526.62 565.21 526.62 565.21 524.29 562.96 524.29"/><polygon class="cls-6" points="562.96 496.48 565.21 496.48 565.21 494.24 565.21 494.15 565.21 491.9 567.54 491.9 567.54 489.57 567.54 487.24 565.21 487.24 562.96 487.24 562.96 489.57 562.96 491.9 562.87 491.9 560.63 491.9 560.63 494.15 560.63 494.24 560.63 496.48 562.87 496.48 562.96 496.48"/><polygon class="cls-10" points="562.96 478 562.96 475.67 565.21 475.67 565.21 473.33 562.87 473.33 562.87 475.67 560.63 475.67 560.63 478 562.87 478 562.96 478"/><polygon class="cls-10" points="560.63 519.62 560.63 517.38 558.3 517.38 558.3 519.62 558.3 519.71 558.3 521.96 560.63 521.96 560.63 519.71 560.63 519.62"/><polygon class="cls-10" points="558.3 512.72 555.97 512.72 555.97 515.05 555.97 517.38 558.3 517.38 558.3 515.05 558.3 512.72"/><polygon class="cls-10" points="558.3 484.9 558.3 482.66 560.63 482.66 560.63 482.57 560.63 480.33 560.63 478 558.3 478 558.3 480.33 558.3 482.57 555.97 482.57 555.97 484.9 555.97 487.24 558.3 487.24 558.3 484.9"/><polygon class="cls-10" points="555.97 508.14 555.97 508.05 555.97 505.81 553.63 505.81 553.63 508.05 553.63 508.14 553.63 510.38 553.63 512.72 555.97 512.72 555.97 510.38 555.97 508.14"/><polygon class="cls-10" points="553.63 487.24 553.63 489.57 553.63 491.9 553.63 494.15 551.3 494.15 551.3 496.48 551.3 498.81 551.3 501.14 551.3 503.48 551.3 505.81 553.63 505.81 553.63 503.48 553.63 501.14 553.63 498.81 553.63 496.48 553.63 494.24 555.97 494.24 555.97 494.15 555.97 491.9 555.97 489.57 555.97 487.24 553.63 487.24"/><polygon class="cls-24" points="594 511.24 594 513.42 594 513.51 596.26 513.51 596.26 511.24 594 511.24"/><rect class="cls-25" x="594" y="493.17" width="2.27" height="2.27"/><polygon class="cls-25" points="589.46 477.46 589.46 479.64 587.19 479.64 585 479.64 584.92 479.64 582.74 479.64 582.74 481.91 580.47 481.91 578.2 481.91 578.2 484.18 578.2 486.45 578.2 488.72 578.2 490.9 578.2 490.99 580.47 490.99 580.47 490.9 580.47 488.72 580.47 486.45 582.74 486.45 582.74 484.18 584.92 484.18 585 484.18 587.19 484.18 589.46 484.18 591.73 484.18 591.73 486.45 594 486.45 594 488.72 594 490.9 594 490.99 596.26 490.99 596.26 481.91 594 481.91 591.73 481.91 591.73 479.73 591.73 479.64 591.73 477.46 589.46 477.46"/><polygon class="cls-21" points="594 511.24 591.73 511.24 589.46 511.24 587.19 511.24 585 511.24 584.92 511.24 582.74 511.24 580.47 511.24 580.47 513.42 580.47 513.51 580.47 515.69 580.47 517.96 580.47 520.23 582.74 520.23 585 520.23 585 517.96 585 515.69 587.19 515.69 589.46 515.69 589.46 517.96 589.46 520.23 591.73 520.23 594 520.23 594 517.96 594 515.69 594 513.51 594 513.42 594 511.24"/><path class="cls-24" d="M585,495.44h4.45v2.27H585ZM582.74,491v-2.27H585v4.45h-2.27Zm6.72,0v-2.27h2.27v4.45h-2.27Zm0-6.81h-6.72v2.27h-2.27V491H578.2v2.18h2.27v4.54h2.27V500H585v2.27h4.45V500h2.27v-2.27H594v-4.54h2.27V491H594v-4.54h-2.27v-2.27Z"/><polygon class="cls-22" points="591.73 520.23 589.46 520.23 589.46 522.5 591.73 522.5 594 522.5 594 520.23 591.73 520.23"/><polygon class="cls-26" points="591.73 499.98 589.46 499.98 589.46 502.16 589.46 502.25 587.19 502.25 585.01 502.25 585.01 502.16 585.01 499.98 584.92 499.98 582.74 499.98 580.47 499.98 580.47 502.16 578.2 502.16 578.2 504.43 578.2 506.7 578.2 508.97 578.2 511.24 580.47 511.24 582.74 511.24 584.92 511.24 585.01 511.24 587.19 511.24 589.46 511.24 591.73 511.24 594 511.24 596.26 511.24 596.26 502.16 594 502.16 594 499.98 591.73 499.98"/><polygon class="cls-12" points="591.73 488.72 589.46 488.72 589.46 490.9 589.46 490.99 589.46 493.17 591.73 493.17 591.73 490.99 591.73 490.9 591.73 488.72"/><polygon class="cls-27" points="587.19 495.44 585 495.44 585 497.71 587.19 497.71 589.46 497.71 589.46 495.44 587.19 495.44"/><polygon class="cls-12" points="585 493.17 585 490.99 585 490.9 585 488.72 584.92 488.72 582.74 488.72 582.74 490.9 582.74 490.99 582.74 493.17 584.92 493.17 585 493.17"/><polygon class="cls-22" points="582.74 520.23 580.47 520.23 580.47 522.5 582.74 522.5 585 522.5 585 520.23 582.74 520.23"/><polygon class="cls-24" points="578.2 511.24 578.2 513.51 580.47 513.51 580.47 513.42 580.47 511.24 578.2 511.24"/><rect class="cls-25" x="578.2" y="493.17" width="2.27" height="2.27"/></g></g></g></g></svg>