<svg xmlns="http://www.w3.org/2000/svg" xmlns:xlink="http://www.w3.org/1999/xlink" viewBox="0 0 300 85.97"><defs><style>.cls-1{fill:none;}.cls-2{clip-path:url(#clip-path);}.cls-3{opacity:0.25;}.cls-4{clip-path:url(#clip-path-4);}.cls-5{fill:#fff;}.cls-6{fill:#b92025;}.cls-7{clip-path:url(#clip-path-6);}</style><clipPath id="clip-path" transform="translate(0 0)"><rect class="cls-1" width="300" height="85.97"/></clipPath><clipPath id="clip-path-4" transform="translate(0 0)"><rect class="cls-1" x="3.85" y="3.42" width="232.24" height="82.54"/></clipPath><clipPath id="clip-path-6" transform="translate(0 0)"><rect class="cls-1" x="247.6" y="3.44" width="52.4" height="82.21"/></clipPath></defs><title>fe-logo</title><g id="Layer_2" data-name="Layer 2"><g id="Layer_1-2" data-name="Layer 1"><g id="logo"><g class="cls-2"><g class="cls-2"><g class="cls-2"><g class="cls-3"><g class="cls-4"><polygon class="cls-5" points="26.94 23.95 40.63 23.95 40.63 17.11 26.94 17.11 26.94 10.26 47.47 10.26 47.47 3.42 20.53 3.42 20.53 37.21 26.94 37.21 26.94 23.95"/><rect class="cls-5" x="56.45" y="3.42" width="6.42" height="33.79"/><polygon class="cls-5" points="98.8 30.37 78.27 30.37 78.27 3.42 71.85 3.42 71.85 37.21 98.8 37.21 98.8 30.37"/><polygon class="cls-5" points="127.88 37.21 127.88 10.26 141.14 10.26 141.14 3.42 107.35 3.42 107.35 10.26 121.04 10.26 121.04 37.21 127.88 37.21"/><polygon class="cls-5" points="177.06 30.37 156.53 30.37 156.53 23.52 170.22 23.52 170.22 17.11 156.53 17.11 156.53 10.26 177.06 10.26 177.06 3.42 150.12 3.42 150.12 37.21 177.06 37.21 177.06 30.37"/><rect class="cls-5" x="212.56" y="23.52" width="6.84" height="13.69"/><rect class="cls-5" x="212.56" y="10.26" width="6.84" height="6.84"/><polygon class="cls-5" points="192.03 23.52 212.56 23.52 212.56 17.11 192.41 17.11 192.46 10.22 212.56 10.26 212.56 3.42 185.62 3.42 185.62 37.21 192.03 37.21 192.03 23.52"/><polygon class="cls-5" points="3.85 85.97 30.79 85.97 30.79 78.27 10.27 78.27 10.27 70.57 23.95 70.57 23.95 62.87 10.27 62.87 10.27 55.17 30.79 55.17 30.79 47.9 3.85 47.9 3.85 85.97"/><rect class="cls-5" x="46.19" y="47.47" width="26.94" height="7.7"/><rect class="cls-5" x="45.76" y="62.87" width="20.53" height="7.7"/><rect class="cls-5" x="39.35" y="78.27" width="26.94" height="7.7"/><rect class="cls-5" x="39.35" y="55.17" width="6.42" height="7.7"/><rect class="cls-5" x="66.29" y="70.57" width="6.84" height="7.7"/><polygon class="cls-5" points="109.06 47.47 88.53 47.47 88.53 55.17 108.63 55.17 108.63 62.87 115.48 62.87 115.48 55.17 109.06 55.17 109.06 47.47"/><polygon class="cls-5" points="108.63 78.27 88.53 78.27 88.53 85.97 109.06 85.97 109.06 78.27 115.48 78.27 115.48 70.57 108.63 70.57 108.63 78.27"/><rect class="cls-5" x="82.12" y="55.6" width="6.42" height="22.67"/><polygon class="cls-5" points="151.4 62.87 130.87 62.87 130.87 55.17 124.46 55.17 124.46 85.54 130.87 85.54 130.87 70.57 151.4 70.57 151.4 85.54 158.25 85.54 158.25 55.17 151.4 55.17 151.4 62.87"/><rect class="cls-5" x="130.87" y="47.47" width="20.53" height="7.7"/><polygon class="cls-5" points="173.21 55.17 193.74 55.17 193.74 47.9 166.8 47.9 166.8 85.97 173.21 85.97 173.21 70.57 193.74 70.57 193.74 62.87 173.21 62.87 173.21 55.17"/><rect class="cls-5" x="193.74" y="55.17" width="6.84" height="7.7"/><polygon class="cls-5" points="236.08 55.17 236.08 47.9 209.14 47.9 209.14 85.97 236.08 85.97 236.08 78.27 215.56 78.27 215.56 70.57 229.24 70.57 229.24 62.87 215.56 62.87 215.56 55.17 236.08 55.17"/></g></g></g><polygon class="cls-5" points="16.68 0 16.68 33.79 23.09 33.79 23.09 20.53 36.78 20.53 36.78 13.69 23.09 13.69 23.09 6.84 43.62 6.84 43.62 0 16.68 0"/><rect class="cls-5" x="52.61" width="6.41" height="33.79"/><polygon class="cls-5" points="68 0 68 33.79 94.95 33.79 94.95 26.94 74.42 26.94 74.42 0 68 0"/><polygon class="cls-5" points="103.5 0 103.5 6.84 117.19 6.84 117.19 33.79 124.03 33.79 124.03 6.84 137.29 6.84 137.29 0 103.5 0"/><polygon class="cls-5" points="146.27 0 146.27 33.79 173.21 33.79 173.21 26.94 152.69 26.94 152.69 20.1 166.37 20.1 166.37 13.69 152.69 13.69 152.69 6.84 173.21 6.84 173.21 0 146.27 0"/><rect class="cls-5" x="208.71" y="6.84" width="6.84" height="6.84"/><rect class="cls-5" x="208.71" y="20.1" width="6.84" height="13.69"/><polygon class="cls-5" points="181.77 0 181.77 33.79 188.18 33.79 188.18 20.1 208.71 20.1 208.71 13.69 188.56 13.69 188.61 6.79 208.71 6.84 208.71 0 181.77 0"/><polygon class="cls-5" points="0 44.48 0 82.54 26.94 82.54 26.94 74.84 6.42 74.84 6.42 67.15 20.1 67.15 20.1 59.45 6.42 59.45 6.42 51.75 26.94 51.75 26.94 44.48 0 44.48"/><rect class="cls-5" x="42.34" y="44.05" width="26.94" height="7.7"/><rect class="cls-5" x="41.91" y="59.45" width="20.53" height="7.7"/><rect class="cls-5" x="35.5" y="74.85" width="26.94" height="7.7"/><rect class="cls-5" x="62.44" y="67.15" width="6.84" height="7.7"/><rect class="cls-5" x="35.5" y="51.75" width="6.42" height="7.7"/><polygon class="cls-5" points="105.21 44.05 84.68 44.05 84.68 51.75 104.78 51.75 104.78 59.45 111.63 59.45 111.63 51.75 105.21 51.75 105.21 44.05"/><polygon class="cls-5" points="104.78 74.84 84.68 74.84 84.68 82.54 105.21 82.54 105.21 74.84 111.63 74.84 111.63 67.15 104.78 67.15 104.78 74.84"/><rect class="cls-5" x="78.27" y="52.18" width="6.42" height="22.67"/><rect class="cls-5" x="127.02" y="44.05" width="20.53" height="7.7"/><polygon class="cls-5" points="147.55 59.45 127.02 59.45 127.02 51.75 120.61 51.75 120.61 82.12 127.02 82.12 127.02 67.15 147.55 67.15 147.55 82.12 154.4 82.12 154.4 51.75 147.55 51.75 147.55 59.45"/><rect class="cls-5" x="189.89" y="51.75" width="6.84" height="7.7"/><polygon class="cls-5" points="169.37 51.75 189.89 51.75 189.89 44.48 162.95 44.48 162.95 82.54 169.37 82.54 169.37 67.15 189.89 67.15 189.89 59.45 169.37 59.45 169.37 51.75"/><polygon class="cls-5" points="232.24 51.75 232.24 44.48 205.29 44.48 205.29 82.54 232.24 82.54 232.24 74.84 211.71 74.84 211.71 67.15 225.39 67.15 225.39 59.45 211.71 59.45 211.71 51.75 232.24 51.75"/><rect class="cls-6" x="288.62" y="29.83" width="7.53" height="7.53"/><rect class="cls-6" x="288.62" y="22.6" width="7.53" height="7.53"/><rect class="cls-6" x="288.62" y="15.07" width="7.53" height="7.53"/><rect class="cls-6" x="281.1" y="44.89" width="7.53" height="7.53"/><rect class="cls-6" x="281.1" y="37.36" width="7.53" height="7.53"/><rect class="cls-6" x="281.1" y="29.84" width="7.53" height="7.53"/><rect class="cls-6" x="281.1" y="22.6" width="7.53" height="7.53"/><rect class="cls-6" x="281.1" y="15.07" width="7.53" height="7.53"/><rect class="cls-6" x="281.1" y="7.54" width="7.53" height="7.53"/><rect class="cls-6" x="273.57" y="59.94" width="7.53" height="7.53"/><rect class="cls-6" x="273.57" y="52.41" width="7.53" height="7.53"/><rect class="cls-6" x="273.57" y="44.89" width="7.53" height="7.53"/><rect class="cls-6" x="273.57" y="37.36" width="7.53" height="7.53"/><rect class="cls-6" x="273.57" y="15.07" width="7.53" height="7.53"/><rect class="cls-6" x="273.57" y="7.54" width="7.53" height="7.53"/><rect class="cls-6" x="273.57" y="0.02" width="7.53" height="7.53"/><rect class="cls-6" x="266.04" y="74.7" width="7.53" height="7.53"/><rect class="cls-6" x="266.04" y="67.18" width="7.53" height="7.53"/><rect class="cls-6" x="266.04" y="59.94" width="7.53" height="7.53"/><rect class="cls-6" x="266.04" y="52.41" width="7.53" height="7.53"/><rect class="cls-6" x="266.04" y="44.89" width="7.53" height="7.53"/><rect class="cls-6" x="266.04" y="7.54" width="7.53" height="7.53"/><rect class="cls-6" x="266.04" y="0.02" width="7.53" height="7.53"/><rect class="cls-6" x="258.52" y="59.94" width="7.53" height="7.53"/><rect class="cls-6" x="258.52" y="52.41" width="7.53" height="7.53"/><rect class="cls-6" x="258.52" y="44.89" width="7.53" height="7.53"/><rect class="cls-6" x="258.52" y="37.36" width="7.53" height="7.53"/><rect class="cls-6" x="258.52" y="15.07" width="7.53" height="7.53"/><rect class="cls-6" x="258.52" y="7.54" width="7.53" height="7.53"/><rect class="cls-6" x="258.52" y="0.02" width="7.53" height="7.53"/><rect class="cls-6" x="251.28" y="44.89" width="7.53" height="7.53"/><rect class="cls-6" x="251.28" y="37.36" width="7.53" height="7.53"/><rect class="cls-6" x="251.28" y="29.83" width="7.53" height="7.53"/><rect class="cls-6" x="251.28" y="22.6" width="7.53" height="7.53"/><rect class="cls-6" x="251.28" y="15.07" width="7.53" height="7.53"/><rect class="cls-6" x="251.28" y="7.54" width="7.53" height="7.53"/><rect class="cls-6" x="243.75" y="29.83" width="7.53" height="7.53"/><rect class="cls-6" x="243.75" y="22.6" width="7.53" height="7.53"/><rect class="cls-6" x="243.75" y="15.07" width="7.53" height="7.53"/><g class="cls-2"><g class="cls-3"><g class="cls-7"><rect class="cls-6" x="292.47" y="33.26" width="7.53" height="7.53"/><rect class="cls-6" x="292.47" y="26.02" width="7.53" height="7.53"/><rect class="cls-6" x="292.47" y="18.49" width="7.53" height="7.53"/><rect class="cls-6" x="284.95" y="48.31" width="7.53" height="7.53"/><rect class="cls-6" x="284.95" y="40.78" width="7.53" height="7.53"/><rect class="cls-6" x="284.95" y="33.26" width="7.53" height="7.53"/><rect class="cls-6" x="284.95" y="26.02" width="7.53" height="7.53"/><rect class="cls-6" x="284.95" y="18.49" width="7.53" height="7.53"/><rect class="cls-6" x="284.95" y="10.97" width="7.53" height="7.53"/><rect class="cls-6" x="277.42" y="63.36" width="7.53" height="7.53"/><rect class="cls-6" x="277.42" y="55.84" width="7.53" height="7.53"/><rect class="cls-6" x="277.42" y="48.31" width="7.53" height="7.53"/><rect class="cls-6" x="277.42" y="40.78" width="7.53" height="7.53"/><rect class="cls-6" x="277.42" y="18.49" width="7.53" height="7.53"/><rect class="cls-6" x="277.42" y="10.97" width="7.53" height="7.53"/><rect class="cls-6" x="277.42" y="3.44" width="7.53" height="7.53"/><rect class="cls-6" x="269.89" y="78.13" width="7.53" height="7.53"/><rect class="cls-6" x="269.89" y="70.6" width="7.53" height="7.53"/><rect class="cls-6" x="269.89" y="63.36" width="7.53" height="7.53"/><rect class="cls-6" x="269.89" y="55.84" width="7.53" height="7.53"/><rect class="cls-6" x="269.89" y="48.31" width="7.53" height="7.53"/><rect class="cls-6" x="269.89" y="10.97" width="7.53" height="7.53"/><rect class="cls-6" x="269.89" y="3.44" width="7.53" height="7.53"/><rect class="cls-6" x="262.37" y="63.36" width="7.53" height="7.53"/><rect class="cls-6" x="262.37" y="55.84" width="7.53" height="7.53"/><rect class="cls-6" x="262.37" y="48.31" width="7.53" height="7.53"/><rect class="cls-6" x="262.37" y="40.78" width="7.53" height="7.53"/><rect class="cls-6" x="262.37" y="18.49" width="7.53" height="7.53"/><rect class="cls-6" x="262.37" y="10.97" width="7.53" height="7.53"/><rect class="cls-6" x="262.37" y="3.44" width="7.53" height="7.53"/><rect class="cls-6" x="255.13" y="48.31" width="7.53" height="7.53"/><rect class="cls-6" x="255.13" y="40.78" width="7.53" height="7.53"/><rect class="cls-6" x="255.13" y="33.26" width="7.53" height="7.53"/><rect class="cls-6" x="255.13" y="26.02" width="7.53" height="7.53"/><rect class="cls-6" x="255.13" y="18.49" width="7.53" height="7.53"/><rect class="cls-6" x="255.13" y="10.97" width="7.53" height="7.53"/><rect class="cls-6" x="247.6" y="33.26" width="7.53" height="7.53"/><rect class="cls-6" x="247.6" y="26.02" width="7.53" height="7.53"/><rect class="cls-6" x="247.6" y="18.49" width="7.53" height="7.53"/></g></g></g></g></g></g></g></g></svg>