<svg xmlns="http://www.w3.org/2000/svg" xmlns:xlink="http://www.w3.org/1999/xlink" viewBox="0 0 118.51 75.2"><defs><style>.cls-1,.cls-4,.cls-5{fill:none;}.cls-2{clip-path:url(#clip-path);}.cls-3{fill:#fff;}.cls-4,.cls-5{stroke:#fff;stroke-miterlimit:10;}.cls-4{stroke-width:1.03px;}.cls-5{stroke-width:2.06px;}</style><clipPath id="clip-path" transform="translate(0 0)"><rect class="cls-1" width="118.51" height="75.2"/></clipPath></defs><title>glo-logo</title><g id="Layer_2" data-name="Layer 2"><g id="Layer_1-2" data-name="Layer 1"><g id="light"><g class="cls-2"><g class="cls-2"><path class="cls-3" d="M35.71,17.62V58.37c0,10.12-6.55,16.31-17.24,16.31-6.63,0-12.4-2.2-15.1-5.84a.94.94,0,0,1-.22-.64A.81.81,0,0,1,4,67.42a1,1,0,0,1,.78.5c2.49,3.27,7.41,5.2,13.68,5.2C28.16,73.12,34,67.63,34,58.37V42h-.14c-2.49,6.06-8.19,9.69-15.75,9.69C7.71,51.67.52,44.48.52,33.93S7.71,16.19,18.11,16.19c7.56,0,13.26,3.63,15.75,9.69H34V17.62c0-.65.29-1,.86-1s.85.35.85,1M34,33.93c0-9.62-6.48-16.17-15.89-16.17S2.23,24.31,2.23,33.93,8.71,50.11,18.11,50.11,34,43.55,34,33.93" transform="translate(0 0)"/><path class="cls-4" d="M35.71,17.62V58.37c0,10.12-6.55,16.31-17.24,16.31-6.63,0-12.4-2.2-15.1-5.84a.94.94,0,0,1-.22-.64A.81.81,0,0,1,4,67.42a1,1,0,0,1,.78.5c2.49,3.27,7.41,5.2,13.68,5.2C28.16,73.12,34,67.63,34,58.37V42h-.14c-2.49,6.06-8.19,9.69-15.75,9.69C7.71,51.67.52,44.48.52,33.93S7.71,16.19,18.11,16.19c7.56,0,13.26,3.63,15.75,9.69H34V17.62c0-.65.29-1,.86-1S35.71,17,35.71,17.62ZM34,33.93c0-9.62-6.48-16.17-15.89-16.17S2.23,24.31,2.23,33.93,8.71,50.11,18.11,50.11,34,43.55,34,33.93Z" transform="translate(0 0)"/><path class="cls-3" d="M48,1.51V50.25c0,.64-.29,1-.86,1s-.85-.36-.85-1V1.51c0-.64.28-1,.85-1s.86.35.86,1" transform="translate(0 0)"/><path class="cls-4" d="M48,1.51V50.25c0,.64-.29,1-.86,1s-.85-.36-.85-1V1.51c0-.64.28-1,.85-1S48,.87,48,1.51Z" transform="translate(0 0)"/><path class="cls-3" d="M74.33,16.19c10.4,0,17.6,7.2,17.6,17.74s-7.2,17.74-17.6,17.74-17.6-7.19-17.6-17.74,7.19-17.74,17.6-17.74m0,33.92c9.4,0,15.89-6.56,15.89-16.18S83.73,17.76,74.33,17.76,58.44,24.31,58.44,33.93s6.48,16.18,15.89,16.18" transform="translate(0 0)"/><path class="cls-4" d="M74.33,16.19c10.4,0,17.6,7.2,17.6,17.74s-7.2,17.74-17.6,17.74-17.6-7.19-17.6-17.74S63.92,16.19,74.33,16.19Zm0,33.92c9.4,0,15.89-6.56,15.89-16.18S83.73,17.76,74.33,17.76,58.44,24.31,58.44,33.93,64.92,50.11,74.33,50.11Z" transform="translate(0 0)"/><path class="cls-5" d="M117.28,23.89a8.75,8.75,0,0,1-2.66,3.78,21.26,21.26,0,0,1-9.15,4.89l-.65.16h0a21.35,21.35,0,0,1-5.64-9c-.09-.31-.18-.61-.25-.92a7.23,7.23,0,0,1,.26-5.16,5.63,5.63,0,0,1,9.93-.23,5.6,5.6,0,0,1,4.29-.51,5.68,5.68,0,0,1,4,6.57C117.35,23.6,117.32,23.74,117.28,23.89Z" transform="translate(0 0)"/></g></g></g></g></g></svg>