<svg xmlns="http://www.w3.org/2000/svg" xmlns:xlink="http://www.w3.org/1999/xlink" viewBox="0 0 108.88 377.72"><defs><style>.cls-1{fill:none;}.cls-2{clip-path:url(#clip-path);}.cls-3{fill:#974a20;}.cls-4{fill:#010101;}.cls-5{fill:#9b4d22;}.cls-6{fill:#fff;}.cls-7{fill:#bd2f1a;}.cls-8{opacity:0.03;}.cls-9{clip-path:url(#clip-path-2);}</style><clipPath id="clip-path" transform="translate(0 0)"><rect class="cls-1" width="108.88" height="188.72"/></clipPath><clipPath id="clip-path-2" transform="translate(0 0)"><rect class="cls-1" y="189" width="108.88" height="188.72"/></clipPath></defs><title>kaleshe-icon</title><g id="Layer_2" data-name="Layer 2"><g id="Layer_1-2" data-name="Layer 1"><g id="kaleshe-pixel"><g class="cls-2"><polygon class="cls-3" points="0 66.23 0 89.82 0 101.61 19.15 66.23 0 66.23"/><polygon class="cls-4" points="51.95 96.78 51.95 108.88 71.45 108.88 71.45 96.78 71.45 84.68 71.45 72.58 51.95 72.58 51.95 84.68 51.95 96.78"/><polygon class="cls-5" points="50.81 136.78 50.81 117.27 43.55 117.27 36.29 117.27 36.29 136.78 43.55 136.78 50.81 136.78"/><polygon class="cls-6" points="50.81 122.26 50.81 102.75 43.55 102.75 36.29 102.75 36.29 122.26 43.55 122.26 50.81 122.26"/><path class="cls-3" d="M36.29,108.88H50.81v7.26H36.29ZM58.07,94.36V79.84h7.26v21.78H58.07ZM43.55,50.81H36.29v7.26H21.78L0,101.62l7.26-.11v14.63H21.78v7.25H65.33v-7.25H79.84V101.62H87.1V65.33H50.81V50.81Z" transform="translate(0 0)"/><polygon class="cls-3" points="101.62 101.61 94.36 101.61 94.36 108.88 87.1 108.88 87.1 116.13 94.36 116.13 94.36 123.39 87.1 123.39 87.1 130.65 79.84 130.65 79.84 137.91 79.84 145.17 87.1 145.17 87.1 137.91 94.36 137.91 94.36 130.65 101.62 130.65 101.62 123.39 101.62 116.13 108.88 116.13 108.88 101.61 101.62 101.61"/><path class="cls-4" d="M29,72.59v0Z" transform="translate(0 0)"/><polygon class="cls-3" points="14.52 152.43 14.52 159.69 14.52 166.95 14.52 174.2 7.26 174.2 7.26 181.46 7.26 188.72 14.52 188.72 21.78 188.72 21.78 181.46 21.78 174.2 21.78 166.95 21.78 159.69 21.78 152.43 14.52 152.43"/><polygon class="cls-7" points="72.59 130.65 65.33 130.65 58.07 130.65 50.81 130.65 43.55 130.65 36.3 130.65 29.04 130.65 21.78 130.65 21.78 137.91 14.52 137.91 14.52 145.17 14.52 152.43 21.78 152.43 21.78 159.69 21.78 166.95 21.78 174.2 21.78 181.46 21.78 188.72 29.04 188.72 36.3 188.72 43.55 188.72 50.81 188.72 58.07 188.72 65.33 188.72 65.33 181.46 65.33 174.2 65.33 166.95 65.33 159.69 65.33 152.43 65.33 145.17 72.59 145.17 79.84 145.17 79.84 137.91 79.84 130.65 72.59 130.65"/><polygon class="cls-4" points="36.29 0 36.29 7.26 29.04 7.26 29.04 14.52 21.78 14.52 14.52 14.52 14.52 21.77 7.26 21.77 7.26 29.03 7.26 36.29 7.26 43.55 14.52 43.55 14.52 50.8 7.26 50.8 7.26 58.07 0 58.07 0 72.58 29.04 72.58 29.04 65.33 36.29 65.33 36.29 58.07 43.55 58.07 43.55 65.33 50.81 65.33 50.81 72.58 58.07 72.58 65.33 72.58 72.58 72.58 79.84 72.58 87.1 72.58 87.1 65.33 87.1 58.07 79.84 58.07 79.84 50.8 72.58 50.8 72.58 43.55 79.84 43.55 79.84 36.29 79.84 29.03 79.84 21.77 72.58 21.77 72.58 14.52 65.33 14.52 58.07 14.52 58.07 7.26 50.81 7.26 50.81 0 36.29 0"/><polygon class="cls-4" points="58.07 94.29 58.07 101.51 65.33 101.51 65.33 94.29 65.33 87.07 65.33 79.84 58.07 79.84 58.07 87.07 58.07 94.29"/><polygon class="cls-4" points="21.78 94.34 21.78 101.56 29.04 101.56 29.04 94.34 29.04 87.12 29.04 79.89 21.78 79.89 21.78 87.12 21.78 94.34"/><rect class="cls-4" x="20.53" y="51.91" width="47.22" height="20.68"/><rect class="cls-3" x="32.66" y="65.33" width="21.78" height="7.26"/><rect class="cls-3" x="32.66" y="68.96" width="21.78" height="7.26"/><rect class="cls-3" x="39.92" y="58.67" width="7.15" height="7.15"/><rect class="cls-4" y="72.58" width="7.15" height="7.15"/><rect class="cls-4" x="79.85" y="72.58" width="7.15" height="7.15"/></g></g><g id="kaleshe-pixel-2" data-name="kaleshe-pixel" class="cls-8"><g class="cls-9"><polygon class="cls-3" points="0 311.49 0 287.9 0 276.1 19.15 311.49 0 311.49"/><polygon class="cls-4" points="51.95 280.94 51.95 268.84 71.45 268.84 71.45 280.94 71.45 293.04 71.45 305.14 51.95 305.14 51.95 293.04 51.95 280.94"/><polygon class="cls-5" points="50.81 240.94 50.81 260.45 43.55 260.45 36.29 260.45 36.29 240.94 43.55 240.94 50.81 240.94"/><polygon class="cls-6" points="50.81 255.46 50.81 274.96 43.55 274.96 36.29 274.96 36.29 255.46 43.55 255.46 50.81 255.46"/><path class="cls-3" d="M36.29,268.84H50.81v-7.26H36.29Zm21.78,14.52v14.52h7.26V276.1H58.07ZM43.55,326.91H36.29v-7.26H21.78L0,276.1l7.26.11V261.58H21.78v-7.25H65.33v7.25H79.84V276.1H87.1v36.3H50.81v14.51Z" transform="translate(0 0)"/><polygon class="cls-3" points="101.62 276.1 94.36 276.1 94.36 268.84 87.1 268.84 87.1 261.59 94.36 261.59 94.36 254.32 87.1 254.32 87.1 247.07 79.84 247.07 79.84 239.81 79.84 232.55 87.1 232.55 87.1 239.81 94.36 239.81 94.36 247.07 101.62 247.07 101.62 254.32 101.62 261.59 108.88 261.59 108.88 276.1 101.62 276.1"/><path class="cls-4" d="M29,305.14v0Z" transform="translate(0 0)"/><polygon class="cls-3" points="14.52 225.29 14.52 218.03 14.52 210.77 14.52 203.52 7.26 203.52 7.26 196.26 7.26 189 14.52 189 21.78 189 21.78 196.26 21.78 203.52 21.78 210.77 21.78 218.03 21.78 225.29 14.52 225.29"/><polygon class="cls-7" points="72.59 247.07 65.33 247.07 58.07 247.07 50.81 247.07 43.55 247.07 36.3 247.07 29.04 247.07 21.78 247.07 21.78 239.81 14.52 239.81 14.52 232.55 14.52 225.29 21.78 225.29 21.78 218.03 21.78 210.77 21.78 203.51 21.78 196.26 21.78 189 29.04 189 36.3 189 43.55 189 50.81 189 58.07 189 65.33 189 65.33 196.26 65.33 203.51 65.33 210.77 65.33 218.03 65.33 225.29 65.33 232.55 72.59 232.55 79.84 232.55 79.84 239.81 79.84 247.07 72.59 247.07"/><polygon class="cls-4" points="36.29 377.72 36.29 370.46 29.04 370.46 29.04 363.2 21.78 363.2 14.52 363.2 14.52 355.95 7.26 355.95 7.26 348.69 7.26 341.43 7.26 334.17 14.52 334.17 14.52 326.91 7.26 326.91 7.26 319.65 0 319.65 0 305.13 29.04 305.13 29.04 312.39 36.29 312.39 36.29 319.65 43.55 319.65 43.55 312.39 50.81 312.39 50.81 305.13 58.07 305.13 65.33 305.13 72.58 305.13 79.84 305.13 87.1 305.13 87.1 312.39 87.1 319.65 79.84 319.65 79.84 326.91 72.58 326.91 72.58 334.17 79.84 334.17 79.84 341.43 79.84 348.69 79.84 355.95 72.58 355.95 72.58 363.2 65.33 363.2 58.07 363.2 58.07 370.46 50.81 370.46 50.81 377.72 36.29 377.72"/><polygon class="cls-4" points="58.07 283.43 58.07 276.21 65.33 276.21 65.33 283.43 65.33 290.65 65.33 297.88 58.07 297.88 58.07 290.65 58.07 283.43"/><polygon class="cls-4" points="21.78 283.38 21.78 276.15 29.04 276.15 29.04 283.38 29.04 290.6 29.04 297.82 21.78 297.82 21.78 290.6 21.78 283.38"/><rect class="cls-4" x="20.53" y="305.14" width="47.22" height="20.68"/><rect class="cls-3" x="32.66" y="305.14" width="21.78" height="7.26"/><rect class="cls-3" x="32.66" y="301.51" width="21.78" height="7.26"/><rect class="cls-3" x="39.92" y="311.89" width="7.15" height="7.15"/><rect class="cls-4" y="297.98" width="7.15" height="7.15"/><rect class="cls-4" x="79.85" y="297.98" width="7.15" height="7.15"/></g></g></g></g></svg>