<svg id="Layer_1" data-name="Layer 1" xmlns="http://www.w3.org/2000/svg" viewBox="0 0 30.6 53.05"><defs><style>.cls-1{fill:#974b20;}.cls-2{fill:#010101;}.cls-3{fill:#9b4d23;}.cls-4{fill:#fff;}.cls-5{fill:#bd2f1a;}</style></defs><title>kaleshe-icon</title><rect class="cls-1" y="16.32" width="24.48" height="6.62"/><rect class="cls-1" x="10.2" y="34.68" width="4.08" height="2.9"/><rect class="cls-1" x="20.37" y="36.72" width="2.87" height="4.08"/><rect class="cls-1" x="4.08" y="38.76" width="3.88" height="14.29"/><rect class="cls-2" x="16.32" y="22.44" width="2.04" height="6.12"/><rect class="cls-3" x="10.2" y="36.72" width="4.08" height="1.73"/><rect class="cls-4" x="10.2" y="30.6" width="4.08" height="2.04"/><rect class="cls-1" x="6.12" y="22.46" width="2.04" height="6.09"/><path class="cls-1" d="M24.45,20.4v2h-2v-2H15.3v-2H13.23V16.49h-2v1.87h-2v2H2v2H0v6.15l2,0v4.11H6.12v2H10.2v2h4.08v-2h4.08v-2h4.08V28.56h2V20.4ZM8.16,28.55h-2V22.46h2Zm6.12,4.09H10.2v-2h4.08Zm4.08-4.08h-2V22.44h2Z"/><polygon class="cls-1" points="28.56 28.56 26.52 28.56 26.52 30.61 24.48 30.61 24.48 32.65 26.52 32.65 26.52 34.69 24.48 34.69 24.48 36.73 22.44 36.73 22.44 38.77 22.44 40.81 24.48 40.81 24.48 38.77 26.52 38.77 26.52 36.73 28.56 36.73 28.56 34.69 28.56 32.65 30.61 32.65 30.61 30.61 30.61 28.56 28.56 28.56"/><polygon class="cls-1" points="6.12 48.97 6.12 46.93 6.12 44.89 6.12 42.85 4.08 42.85 4.08 44.89 4.08 46.93 4.08 48.97 2.04 48.97 2.04 51.01 2.04 53.05 4.08 53.05 6.12 53.05 6.12 51.01 6.12 48.97"/><polygon class="cls-5" points="22.44 36.72 22.44 40.81 18.36 40.81 18.36 53.05 6.12 53.05 6.12 42.85 4.08 42.85 4.08 38.76 6.12 38.76 6.12 36.72 22.44 36.72"/><rect class="cls-2" x="16.32" y="22.44" width="2.04" height="6.09"/><rect class="cls-2" x="6.12" y="22.46" width="2.04" height="6.09"/><polygon class="cls-2" points="24.48 16.32 24.48 20.4 24.45 20.4 24.45 22.41 22.44 22.41 22.44 20.4 15.3 20.4 15.3 18.36 13.23 18.36 13.23 16.49 11.22 16.49 11.22 18.36 9.18 18.36 9.18 20.4 2.01 20.4 2.01 22.41 0 22.41 0 16.32 2.04 16.32 2.04 14.28 4.08 14.28 4.08 12.24 2.04 12.24 2.04 6.12 4.08 6.12 4.08 4.08 8.16 4.08 8.16 2.04 10.2 2.04 10.2 0 14.28 0 14.28 2.04 16.32 2.04 16.32 4.08 20.4 4.08 20.4 6.12 22.44 6.12 22.44 12.24 20.4 12.24 20.4 14.28 22.44 14.28 22.44 16.32 24.48 16.32"/></svg>