<svg xmlns="http://www.w3.org/2000/svg" xmlns:xlink="http://www.w3.org/1999/xlink" viewBox="0 0 100 34.37"><defs><style>.cls-1{fill:none;}.cls-2{clip-path:url(#clip-path);}.cls-3{fill:#fff;}</style><clipPath id="clip-path" transform="translate(0 0)"><rect class="cls-1" width="100" height="34.37"/></clipPath></defs><title>kav-logo</title><g id="Layer_2" data-name="Layer 2"><g id="Layer_1-2" data-name="Layer 1"><g id="Artwork_3" data-name="Artwork 3"><g class="cls-2"><g class="cls-2"><path class="cls-3" d="M17.13,15.39l7.85,11a5.42,5.42,0,0,1,1.12,3.28,4.44,4.44,0,0,1-1.26,3.21,4.25,4.25,0,0,1-3.19,1.3,5.08,5.08,0,0,1-4.26-2.46L10.5,22l-.93.9v6a5.42,5.42,0,0,1-1.35,3.84,4.57,4.57,0,0,1-3.46,1.45,4.46,4.46,0,0,1-3.42-1.45A5.46,5.46,0,0,1,0,28.93V5.34A5.49,5.49,0,0,1,1.35,1.48,4.41,4.41,0,0,1,4.76,0,4.48,4.48,0,0,1,8.19,1.48,5.42,5.42,0,0,1,9.57,5.34v4.6l8.17-8.18A5.51,5.51,0,0,1,19.8.31,8.44,8.44,0,0,1,22.3,0a3.57,3.57,0,0,1,2.5,1.27,4.3,4.3,0,0,1,1.25,3.14,5.2,5.2,0,0,1-1.7,3.81Zm-16-10.5a1.1,1.1,0,0,0,.59-.11A2.76,2.76,0,0,0,2.19,4,3.9,3.9,0,0,1,3,2.79q.48-.44.48-.69c0-.41-.27-.62-.82-.62-.37,0-.79.34-1.26,1A3.27,3.27,0,0,0,.7,4.16c0,.48.14.73.43.73M19.69,2.45a.62.62,0,0,0,.2-.45.64.64,0,0,0-.73-.72.62.62,0,0,0-.45.2L17.14,3.13a.67.67,0,0,0-.28.45.68.68,0,0,0,.22.5.73.73,0,0,0,.51.23A.74.74,0,0,0,18,4.06Z" transform="translate(0 0)"/><path class="cls-3" d="M44.6,29.24l-1.09,2.15a4.78,4.78,0,0,1-4.41,3,4.58,4.58,0,0,1-3.46-1.53,4.85,4.85,0,0,1-1.43-3.38,3.77,3.77,0,0,1,.31-1.65L45.89,3.39a6,6,0,0,1,2-2.48,4.7,4.7,0,0,1,5.56,0,6.08,6.08,0,0,1,2,2.47L66.81,27.8a4.16,4.16,0,0,1,.32,1.66,4.89,4.89,0,0,1-1.4,3.39,4.52,4.52,0,0,1-3.44,1.52,4.82,4.82,0,0,1-4.41-3l-1.14-2.15Zm-7.1-2.56a1.71,1.71,0,0,0,0-.53c0-.26-.31-.4-.93-.4-.12,0-.23.14-.35.4l-.93,2.06a2,2,0,0,0-.05.57c0,.27.31.4.93.4.12,0,.23-.13.35-.4ZM47.17,4.93c.25,0,.47-.19.67-.6a6.92,6.92,0,0,1,.87-1.28,2.14,2.14,0,0,0,.56-.9c0-.41-.24-.62-.73-.62-.3,0-.72.4-1.27,1.19a4.47,4.47,0,0,0-.83,1.49.64.64,0,0,0,.73.72M52.93,20l-2.24-4.89L48.45,20Z" transform="translate(0 0)"/><path class="cls-3" d="M83.6,19.16,90.73,2.92a5,5,0,0,1,1.67-2A3.8,3.8,0,0,1,94.63.08a5.46,5.46,0,0,1,3.93,1.36A4.48,4.48,0,0,1,100,4.83a3.75,3.75,0,0,1-.33,1.66L88.32,31a5.84,5.84,0,0,1-2,2.47,5,5,0,0,1-2.8.87,4.71,4.71,0,0,1-2.69-.9,5.86,5.86,0,0,1-2-2.43L67.43,6.49a4.42,4.42,0,0,1-.3-1.66,4.86,4.86,0,0,1,1.31-3.28A4.15,4.15,0,0,1,71.69.08,4.7,4.7,0,0,1,76.43,2.9ZM68.16,5a1.17,1.17,0,0,0,.63-.11,4.06,4.06,0,0,0,.46-.8,4.18,4.18,0,0,1,.8-1.16c.31-.3.46-.54.46-.71,0-.42-.27-.63-.82-.63-.34,0-.74.35-1.22,1a3.33,3.33,0,0,0-.71,1.69c0,.45.13.68.4.68M93,3.06A2,2,0,0,0,93,2.48c0-.27-.31-.4-.93-.4-.12,0-.23.12-.35.35l-1,2.05a2,2,0,0,0,0,.58c0,.27.31.4.93.4.11,0,.23-.12.35-.35Z" transform="translate(0 0)"/></g></g></g></g></g></svg>