<svg xmlns="http://www.w3.org/2000/svg" xmlns:xlink="http://www.w3.org/1999/xlink" viewBox="0 0 299.4 78.64"><defs><style>.cls-1,.cls-5{fill:none;}.cls-2{clip-path:url(#clip-path);}.cls-3{fill:url(#linear-gradient);}.cls-4{font-size:72.54px;font-family:AllRoundGothic-Demi, All Round Gothic;font-weight:300;}.cls-5{stroke:#000;stroke-miterlimit:10;stroke-width:0.91px;}</style><clipPath id="clip-path" transform="translate(0 0)"><rect class="cls-1" width="300" height="78.63"/></clipPath><linearGradient id="linear-gradient" x1="119.59" y1="42.08" x2="120.8" y2="42.08" gradientTransform="matrix(41.01, -41.01, -41.01, -41.01, -2938.5, 6691.82)" gradientUnits="userSpaceOnUse"><stop offset="0" stop-color="#0063ff"/><stop offset="0" stop-color="#0063ff"/><stop offset="1" stop-color="#8448ff"/><stop offset="1" stop-color="#7f47ff"/></linearGradient></defs><title>mublo-logo</title><g id="Layer_2" data-name="Layer 2"><g id="Layer_1-2" data-name="Layer 1"><g class="cls-2"><g class="cls-2"><path class="cls-3" d="M297,36.62h2.42A34.46,34.46,0,1,1,264.94,2.17,34.46,34.46,0,0,1,299.4,36.62h-4.84a29.62,29.62,0,1,0-29.62,29.63,29.66,29.66,0,0,0,29.62-29.63Z" transform="translate(0 0)"/><text class="cls-4" transform="translate(0 59.99)">Mublo</text><path d="M259.73,25.12V46.67h0s0,.07,0,.11a4.53,4.53,0,1,1-4.53-4.53,4.67,4.67,0,0,1,2.57.72V41.52a5.89,5.89,0,0,0-8.65,5.26,6.07,6.07,0,0,0,12.14-.07V25.12Z" transform="translate(0 0)"/><path class="cls-5" d="M259.73,25.12V46.67h0s0,.07,0,.11a4.53,4.53,0,1,1-4.53-4.53,4.67,4.67,0,0,1,2.57.72V41.52a5.89,5.89,0,0,0-8.65,5.26,6.07,6.07,0,0,0,12.14-.07V25.12Z" transform="translate(0 0)"/><path d="M279.22,20.87V42.45h0v.07A4.53,4.53,0,1,1,274.7,38a4.61,4.61,0,0,1,2.56.72V37.26a5.79,5.79,0,0,0-2.79-.68,5.69,5.69,0,0,0-5.86,5.94,5.81,5.81,0,0,0,6.09,5.95,5.75,5.75,0,0,0,6.06-6V20.87Z" transform="translate(0 0)"/><path class="cls-5" d="M279.22,20.87V42.45h0v.07A4.53,4.53,0,1,1,274.7,38a4.61,4.61,0,0,1,2.56.72V37.26a5.79,5.79,0,0,0-2.79-.68,5.69,5.69,0,0,0-5.86,5.94,5.81,5.81,0,0,0,6.09,5.95,5.75,5.75,0,0,0,6.06-6V20.87Z" transform="translate(0 0)"/><rect x="259.66" y="22.9" width="20.66" height="1.53" transform="translate(1.18 58.28) rotate(-12.35)"/><rect class="cls-5" x="259.66" y="22.9" width="20.66" height="1.53" transform="translate(1.18 58.28) rotate(-12.35)"/><polyline points="279.88 20.72 280.12 21.34 280.76 21.12 280.76 20.52"/><polyline class="cls-5" points="279.88 20.72 280.12 21.34 280.76 21.12 280.76 20.52"/></g></g></g></g></svg>