<svg xmlns="http://www.w3.org/2000/svg" viewBox="0 0 551.22 157.34"><defs><style>.cls-1,.cls-2{fill:#1d1d1b;}.cls-1,.cls-4{stroke:#1d1d1b;}.cls-1,.cls-3,.cls-4,.cls-9{stroke-miterlimit:10;}.cls-1{stroke-width:0.25px;}.cls-3,.cls-6{fill:#fff;}.cls-3{stroke:#2ebeef;stroke-linecap:round;stroke-width:4px;}.cls-4,.cls-9{fill:none;stroke-width:3px;}.cls-5{fill:#e40535;}.cls-7{fill:#55b25d;}.cls-8{fill:#13a538;}.cls-9{stroke:#feeb15;}</style></defs><title>coloured-landscape</title><g id="Layer_2" data-name="Layer 2"><g id="Layer_1-2" data-name="Layer 1"><path class="cls-1" d="M187.37,38.39a64,64,0,0,1,8.12-.63c6.69,0,9.36,2.23,9.36,4.64a2.79,2.79,0,0,1-2.94,2.86,1.6,1.6,0,0,1-1.52-1.7c0-1.78-2.67-2.59-4.28-2.59a69.61,69.61,0,0,0-9.72.63,30.49,30.49,0,0,0-2.59,2.5c-3,3.3-7.76,11.06-12,19.27l1.34-.09c4.37-.54,6.25-.8,7.32-.8s2.23.44,2.23,1.69c0,1.52-2,1.61-3.3,1.61s-4.82.27-7.41.62l-1.78.27c-3.66,7.76-6.52,15.52-6.52,20.16,0,1.25.45,1.79.45,2.86A2.3,2.3,0,0,1,161.85,92c-1,0-2.23-.36-2.23-3.39,0-5.53,2.32-13.12,5.53-20.61a6.49,6.49,0,0,1-2,.62,1.48,1.48,0,0,1-1.34-1.51c0-1,.72-1.61,2.05-2.06a25.58,25.58,0,0,1,2.95-.8,106.92,106.92,0,0,1,12.85-21.5c-6.43,1.61-11.87,4.19-15.8,8a8.53,8.53,0,0,0-2.32,5.44A2.4,2.4,0,0,1,159,58.46c-.72,0-1.79-.53-1.79-2.59,0-7.31,12.58-14,25.79-16.77a4.8,4.8,0,0,1,2.76-1.52A1.7,1.7,0,0,1,187.37,38.39Z"/><path class="cls-1" d="M206.64,72.11c1.07-1.34,1.78-2.23,2.76-2.23a1.17,1.17,0,0,1,1.25,1.25c0,.8-.36,1.34-1.43,2.59-4.19,5.08-11.95,12.93-17,12.93a6.51,6.51,0,0,1-6.42-6.51c0-7.58,5.8-21.32,10.88-30.06C202,40.89,206,36.34,211,36.34A3.92,3.92,0,0,1,214.49,40c0,2.59-1.43,8-7.85,16.24-5.8,7.32-10,10.26-13.92,13.38a24.43,24.43,0,0,0-2.86,9.55c0,2.59,1,4.19,2.95,4.19C196.64,83.35,203.42,76.39,206.64,72.11Zm-6.78-20.87c-4.73,8.29-5.8,12-6.07,13.47,1.16-.54,5.62-4.46,10.44-11,5.26-7.22,6.33-9.9,6.33-12,0-.89-.44-1.25-1.34-1.25C208.06,40.44,204.41,42.94,199.86,51.24Z"/><path class="cls-1" d="M225,65.24c1.42,0,2.32.81,2.32,1.88s-2.32,4.19-4.2,7.76a11.34,11.34,0,0,0-1.6,5.08c0,1.16.35,2.14,1.16,2.14,3.21,0,8.56-5.71,11.86-10,1-1.34,1.79-2.23,2.68-2.23a1.13,1.13,0,0,1,1.25,1.25c0,.8-.36,1.34-1.34,2.59-4.28,5.08-11.24,12-15.7,12a4,4,0,0,1-4.2-4.19c0-1,.18-2.23.18-3,0-.54,0-.81-.18-.81-.53,0-2,1.7-3.92,3.48-4.2,3.66-7,5.45-9,5.45a3.47,3.47,0,0,1-2.68-3.48c0-9.1,9.73-17.94,17-18,1.7,0,3.3,2.06,3.66,2.06C223.05,67.12,223.5,65.24,225,65.24Zm-19.27,16a1,1,0,0,0,1.07,1.07c1.51,0,13.11-10.08,13.11-11.6,0-.44-1.52-.17-1.52-1.16a1,1,0,0,0-1-1.07C213.6,68.45,205.75,76.84,205.75,81.21Z"/><path class="cls-1" d="M239.47,69.7c0,3.3-2.32,10.71-2.32,11.78,0,.27.09.62.53.62,2.23,0,11-11.06,11-19.71,0-2-1.25-3-1.25-4.11a2,2,0,0,1,1.78-2.05c1.07,0,3,.18,3,5.53,0,8-9.64,24.36-15.8,24.36A3.64,3.64,0,0,1,233,82.46c0-2,2.41-8,2.41-11.69,0-1-.09-1.07-.09-2.4s.72-2.24,1.79-2.24C238,66.13,239.47,67.47,239.47,69.7Z"/><path class="cls-1" d="M269,67.74c0,.71,0,2.77,1.43,2.77,3.65,0,7.13-2.5,8-2.5a1.52,1.52,0,0,1,1.6,1.51c0,.9-1.16,2-4.1,3.31a20.81,20.81,0,0,1-7.76,1.51c-1.88,5.36-6,12.4-12.23,12.4-2.5,0-5-1.87-5-5.71,0-8.29,7-16.23,13.2-16.23C267.48,64.8,269,66.4,269,67.74ZM254.72,81A2.37,2.37,0,0,0,257,83.62c3.48,0,8-8,8-10.7,0-.27-1.33-.72-1.33-1.88a18,18,0,0,1,.26-2,.24.24,0,0,0-.26-.27C259.81,68.81,254.72,75.23,254.72,81Z"/><path class="cls-1" d="M302.37,72.11c1-1.34,1.78-2.23,2.67-2.23a1.13,1.13,0,0,1,1.25,1.25c0,.8-.36,1.34-1.34,2.59-4.28,5.08-10.35,12-14.27,12-3.13,0-3.75-2.5-3.75-4.64,0-1,.18-1.78.18-2.41-3.21,3.22-8,7.68-11.78,7.68a3.49,3.49,0,0,1-3.74-3.66c0-4.46,5.44-9.28,5.44-14.36,0-2.06.53-3.57,2.23-3.57s1.87,1.25,1.87,2.76c0,5.27-5.53,11.6-5.53,14.19,0,.71.18,1.25,1.07,1.25,1.61,0,7.49-4.37,10.17-8.48,1.34-2.23,3-5.62,4.28-7.23.81-1.07,1.7-1.78,2.23-1.78,1.52,0,1.88.89,1.88,1.7a5.72,5.72,0,0,1-1.07,2.05,19.91,19.91,0,0,0-2.86,5.53,20.5,20.5,0,0,0-1.16,5.53c0,1.34.45,2.05,1.16,2.05C293.44,82.37,299.06,76.39,302.37,72.11Z"/><path class="cls-1" d="M308.25,66c0,1.07-1.25,3.39-1.25,4.19,0,.18,0,.27.18.27.36,0,.63-.27,1.07-.72,3.3-3.48,5.89-5.44,8.12-5.44a3,3,0,0,1,3.21,3.12c0,2.77-.89,5.36-3.12,5.36a1.76,1.76,0,0,1-1.69-1.7,18.54,18.54,0,0,1,.62-2.41c0-.35-.27-.62-.8-.62-1.25,0-7.14,5.71-10,10.17-2.06,3.21-3.66,8.39-4.47,8.39a2.46,2.46,0,0,1-2.05-2.06c0-1,1.43-4.81,2.77-8.12a77.32,77.32,0,0,0,3.21-8.56c.62-2.14,1.25-3.21,2.5-3.21A1.59,1.59,0,0,1,308.25,66Z"/><path class="cls-1" d="M351.7,59.71a41.91,41.91,0,0,0,2.32,12c1.61-2.77,3-4.82,5.44-4.82,2.77,0,3.57,1.25,5.09,1.25,1,0,1.25-.18,1.25-1.07A1.92,1.92,0,0,1,367.85,65,2,2,0,0,1,370,67.12a4.31,4.31,0,0,1-4.46,4.19c-2.94,0-4-1.07-5.71-1.07-1.52,0-2.68,2.59-4.46,5.53C357.59,80.32,360.44,83,363,83c1.88,0,1.52-1.61,3.39-1.61A1.51,1.51,0,0,1,368,83c0,1.51-1.07,3.12-5.53,3.12-4.2,0-7.14-2.77-9.37-6.6-2.23,3.57-5.62,6.6-10.71,6.6-4.9,0-10.17-4.19-10.17-11.33,0-9.28,9.46-14.54,15.88-17.13,0-10.71,5.62-20.08,13.56-20.08,4.38,0,6.25,2.06,6.25,5.09C367.94,51.59,358.3,57,351.7,59.71Zm-.45,15.88a53.13,53.13,0,0,1-3.12-14.36c-4.28,1.78-12.31,5.62-12.31,13.38,0,4.91,3,8.12,7.32,8.12C346.88,82.73,349.38,79.07,351.25,75.59Zm.45-19.18c6.78-3.3,12.76-6.16,12.76-13.56a2.56,2.56,0,0,0-2.86-2.59C356.52,40.26,352,47.13,351.7,56.41Z"/><path class="cls-1" d="M433.07,44c0,8.21-10.71,18.11-14.55,18.11-1.6,0-2.23-.71-2.23-1.7s.27-2.23,2.77-2.85c4.1-.89,9.55-7.76,9.55-13.38,0-1.79-.9-3-3.13-3-13,0-38,24.54-38,43.72,0,5.44,3.21,9.37,8.12,9.37,13.56,0,27.3-15.08,32.65-22.13,1-1.34,1.78-2.23,2.76-2.23a1.1,1.1,0,0,1,1.16,1.25c0,.8-.26,1.34-1.33,2.59-7.32,8.65-21.77,24.35-35.42,24.35-7.41,0-12.32-4.63-12.32-12.31,0-21.86,26.32-48.18,42.29-48.18C429.5,37.58,433.07,39.64,433.07,44Z"/><path class="cls-1" d="M443.5,67.74c0,.71,0,2.77,1.43,2.77,3.66,0,7.14-2.5,8-2.5a1.53,1.53,0,0,1,1.61,1.51c0,.9-1.16,2-4.11,3.31a20.78,20.78,0,0,1-7.76,1.51c-1.87,5.36-6,12.4-12.22,12.4-2.5,0-5-1.87-5-5.71,0-8.29,7-16.23,13.21-16.23C442,64.8,443.5,66.4,443.5,67.74ZM429.23,81a2.37,2.37,0,0,0,2.23,2.59c3.48,0,8-8,8-10.7,0-.27-1.34-.72-1.34-1.88a17.34,17.34,0,0,1,.27-2,.24.24,0,0,0-.27-.27C434.32,68.81,429.23,75.23,429.23,81Z"/><path class="cls-1" d="M469,72.11c1.07-1.34,1.78-2.23,2.77-2.23A1.17,1.17,0,0,1,473,71.13c0,.8-.35,1.34-1.42,2.59-4.2,5.08-12,12.93-17,12.93a6.51,6.51,0,0,1-6.43-6.51c0-7.58,5.8-21.32,10.89-30.06,5.35-9.19,9.37-13.74,14.36-13.74A3.91,3.91,0,0,1,476.87,40c0,2.59-1.43,8-7.85,16.24-5.8,7.32-10,10.26-13.92,13.38a24.57,24.57,0,0,0-2.85,9.55c0,2.59,1,4.19,2.94,4.19C459,83.35,465.81,76.39,469,72.11Zm-6.78-20.87c-4.73,8.29-5.8,12-6.07,13.47,1.16-.54,5.62-4.46,10.44-11,5.27-7.22,6.34-9.9,6.34-12,0-.89-.45-1.25-1.34-1.25C470.45,40.44,466.79,42.94,462.24,51.24Z"/><path class="cls-1" d="M484.9,67.74c0,.71,0,2.77,1.43,2.77,3.65,0,7.13-2.5,8-2.5a1.52,1.52,0,0,1,1.6,1.51c0,.9-1.16,2-4.1,3.31a20.81,20.81,0,0,1-7.76,1.51c-1.88,5.36-6,12.4-12.23,12.4-2.49,0-5-1.87-5-5.71,0-8.29,7-16.23,13.2-16.23C483.38,64.8,484.9,66.4,484.9,67.74ZM470.62,81a2.37,2.37,0,0,0,2.23,2.59c3.48,0,8-8,8-10.7,0-.27-1.33-.72-1.33-1.88a18,18,0,0,1,.26-2,.24.24,0,0,0-.26-.27C475.71,68.81,470.62,75.23,470.62,81Z"/><path class="cls-1" d="M518.27,72.11c1-1.34,1.78-2.23,2.67-2.23a1.13,1.13,0,0,1,1.25,1.25c0,.8-.35,1.34-1.34,2.59-4.28,5.08-10.35,12-14.27,12-3.12,0-3.75-2.5-3.75-4.64,0-1,.18-1.78.18-2.41-3.21,3.22-8,7.68-11.78,7.68a3.49,3.49,0,0,1-3.74-3.66c0-4.46,5.44-9.28,5.44-14.36,0-2.06.53-3.57,2.23-3.57S497,66.05,497,67.56c0,5.27-5.53,11.6-5.53,14.19,0,.71.18,1.25,1.07,1.25,1.61,0,7.5-4.37,10.17-8.48,1.34-2.23,3-5.62,4.28-7.23.81-1.07,1.7-1.78,2.23-1.78,1.52,0,1.88.89,1.88,1.7a5.72,5.72,0,0,1-1.07,2.05,20.18,20.18,0,0,0-2.86,5.53A20.5,20.5,0,0,0,506,80.32c0,1.34.45,2.05,1.16,2.05C509.34,82.37,515,76.39,518.27,72.11Z"/><path class="cls-1" d="M524.15,66c0,1.07-1.24,3.39-1.24,4.19,0,.18,0,.27.17.27.36,0,.63-.27,1.07-.72,3.31-3.48,5.89-5.44,8.12-5.44a3,3,0,0,1,3.21,3.12c0,2.77-.89,5.36-3.12,5.36a1.76,1.76,0,0,1-1.69-1.7,18.54,18.54,0,0,1,.62-2.41c0-.35-.27-.62-.8-.62-1.25,0-7.14,5.71-10,10.17-2.06,3.21-3.66,8.39-4.46,8.39A2.46,2.46,0,0,1,514,84.51c0-1,1.43-4.81,2.77-8.12A77.32,77.32,0,0,0,520,67.83c.63-2.14,1.25-3.21,2.5-3.21A1.59,1.59,0,0,1,524.15,66Z"/><path class="cls-1" d="M536.82,73.27c0-4.64,6.78-8.92,10.71-8.92,1.52,0,3.57,1.34,3.57,3.21s-1.16,5-3,5c-1,0-1.87-.54-1.87-1.52,0-1.52,1.34-1.78,1.34-2.14a1.37,1.37,0,0,0-1.34-1.16c-1.25,0-5.44,2.41-5.44,5s6.42,2.14,6.42,7.85c0,2.94-2.59,6.15-7.76,6.15-3.12,0-5.53-2.23-5.53-4.37a2.1,2.1,0,0,1,2-2.23,1.45,1.45,0,0,1,1.61,1.34,2.19,2.19,0,0,0,2.5,2.41,3.15,3.15,0,0,0,3.12-3.3C543.16,77.11,536.82,77.29,536.82,73.27Z"/><path class="cls-2" d="M167.61,131.26a9.44,9.44,0,0,0-3.27.56,7,7,0,0,0-2.64,1.65,7.73,7.73,0,0,0-1.77,2.72,10.24,10.24,0,0,0-.64,3.79,10.73,10.73,0,0,0,.59,3.73,6.82,6.82,0,0,0,1.71,2.61,7,7,0,0,0,2.65,1.54,11.39,11.39,0,0,0,3.46.49,10.59,10.59,0,0,0,1.1,0c.39,0,.78-.09,1.18-.16s.77-.14,1.15-.23a9.33,9.33,0,0,0,1-.29v2.24a10.56,10.56,0,0,1-2.14.56,15.69,15.69,0,0,1-2.49.19,13.59,13.59,0,0,1-4.6-.72,9.11,9.11,0,0,1-3.37-2.08,8.79,8.79,0,0,1-2.07-3.31,13.24,13.24,0,0,1-.7-4.43,13,13,0,0,1,.74-4.46,10.07,10.07,0,0,1,2.14-3.51,9.75,9.75,0,0,1,3.37-2.28,11.73,11.73,0,0,1,4.46-.81c.44,0,.87,0,1.29.05s.84.09,1.23.16.75.15,1.08.24a6.41,6.41,0,0,1,.85.29V132a15.44,15.44,0,0,0-2.06-.53A12.24,12.24,0,0,0,167.61,131.26Z"/><path class="cls-2" d="M198.13,139.82a13.14,13.14,0,0,1-.68,4.35,10,10,0,0,1-1.94,3.41,8.92,8.92,0,0,1-3,2.23,9.7,9.7,0,0,1-4,.8,10,10,0,0,1-4.09-.8,8.59,8.59,0,0,1-3.06-2.23,10,10,0,0,1-1.92-3.41,13.69,13.69,0,0,1-.66-4.35,13.2,13.2,0,0,1,.69-4.36,10.06,10.06,0,0,1,1.94-3.42,8.82,8.82,0,0,1,3-2.23,9.65,9.65,0,0,1,4-.8,9.78,9.78,0,0,1,4.06.8,8.64,8.64,0,0,1,3.05,2.23,9.86,9.86,0,0,1,1.92,3.42A13.75,13.75,0,0,1,198.13,139.82Zm-2.52,0a11.3,11.3,0,0,0-.55-3.7,7.67,7.67,0,0,0-1.52-2.68,6.22,6.22,0,0,0-2.28-1.62,7.41,7.41,0,0,0-5.65,0,6.31,6.31,0,0,0-2.28,1.62,7.67,7.67,0,0,0-1.52,2.68,12.61,12.61,0,0,0,0,7.4,7.64,7.64,0,0,0,1.53,2.67,6.11,6.11,0,0,0,2.28,1.62,7.37,7.37,0,0,0,2.84.54,7.29,7.29,0,0,0,2.81-.54,6.2,6.2,0,0,0,2.26-1.62,7.62,7.62,0,0,0,1.52-2.67A11.21,11.21,0,0,0,195.61,139.82Z"/><path class="cls-2" d="M216.05,131.26a9.52,9.52,0,0,0-3.27.56,7.11,7.11,0,0,0-2.64,1.65,7.85,7.85,0,0,0-1.76,2.72,10.23,10.23,0,0,0-.65,3.79,10.5,10.5,0,0,0,.6,3.73,6.92,6.92,0,0,0,1.7,2.61,7,7,0,0,0,2.66,1.54,11.34,11.34,0,0,0,3.46.49,10.72,10.72,0,0,0,1.1,0c.39,0,.78-.09,1.17-.16s.78-.14,1.15-.23a8.14,8.14,0,0,0,1-.29v2.24a10.28,10.28,0,0,1-2.13.56,15.69,15.69,0,0,1-2.49.19,13.65,13.65,0,0,1-4.61-.72,9.28,9.28,0,0,1-3.37-2.08,8.89,8.89,0,0,1-2.06-3.31,13.24,13.24,0,0,1-.7-4.43,13,13,0,0,1,.74-4.46,9.55,9.55,0,0,1,5.51-5.79,11.7,11.7,0,0,1,4.46-.81c.44,0,.87,0,1.29.05s.83.09,1.22.16.75.15,1.09.24a7,7,0,0,1,.85.29V132a15.84,15.84,0,0,0-2.06-.53A12.26,12.26,0,0,0,216.05,131.26Z"/><path class="cls-2" d="M228,150.22V129.4h2.54v10.28h0l9.57-10.28h2.54l-9.71,10.36,10.29,10.46h-2.54L230.53,140h0v10.19Z"/><path class="cls-2" d="M257.91,150.22h-2.54V131.68h-7V129.4h16.46v2.28h-7Z"/><path class="cls-2" d="M267.51,150.22,276,129.4h2.2l8.48,20.82h-2.76L281.43,144h-8.71l-2.49,6.27Zm9.56-17.59c-.93,2.6-1.82,5-2.67,7.07l-.77,2h6.9l-.79-2q-1.29-3.22-2.61-7.07Z"/><path class="cls-2" d="M293.05,150.22V129.4h2.53v20.82Z"/><path class="cls-2" d="M306.6,129.4v18.53h10.16v2.29h-12.7V129.4Z"/><path class="cls-2" d="M325.87,134.91a2.79,2.79,0,0,0,.37,1.51,3.05,3.05,0,0,0,1,1,6.31,6.31,0,0,0,1.46.64c.55.17,1.13.32,1.73.47.81.19,1.6.41,2.38.65a7.61,7.61,0,0,1,2.09,1,4.87,4.87,0,0,1,1.48,1.64,5.27,5.27,0,0,1,.57,2.6,6,6,0,0,1-.61,2.79,5.28,5.28,0,0,1-1.7,1.93,7.67,7.67,0,0,1-2.56,1.13,13.74,13.74,0,0,1-3.24.36,13.55,13.55,0,0,1-1.66-.1q-.84-.1-1.62-.27c-.51-.12-1-.25-1.39-.39a5.16,5.16,0,0,1-1-.44v-2.32a9.39,9.39,0,0,0,1.26.52c.47.15.95.28,1.45.39s1,.2,1.51.26a12.19,12.19,0,0,0,1.43.09,11.59,11.59,0,0,0,2.08-.18,5.22,5.22,0,0,0,1.73-.63,3.23,3.23,0,0,0,1.19-1.19,3.72,3.72,0,0,0,.43-1.89,2.9,2.9,0,0,0-.38-1.54,3.05,3.05,0,0,0-1-1,5.83,5.83,0,0,0-1.47-.65c-.56-.16-1.14-.32-1.75-.46q-1.22-.28-2.37-.63a7.33,7.33,0,0,1-2.07-1,4.7,4.7,0,0,1-1.47-1.6,5,5,0,0,1-.55-2.51,5.91,5.91,0,0,1,.58-2.73,5.45,5.45,0,0,1,1.57-1.89,6.5,6.5,0,0,1,2.29-1.1,10.21,10.21,0,0,1,2.75-.36,13.94,13.94,0,0,1,3.11.32,14.49,14.49,0,0,1,2.63.83v2.35a18.87,18.87,0,0,0-2.66-.89,12.7,12.7,0,0,0-3-.36,7.35,7.35,0,0,0-2.05.26,4.2,4.2,0,0,0-1.45.73,2.91,2.91,0,0,0-.85,1.15A3.9,3.9,0,0,0,325.87,134.91Z"/><line class="cls-3" x1="56.67" y1="64.33" x2="11.14" y2="2"/><polygon class="cls-4" points="109.75 43.33 56.67 97.02 3.59 43.33 3.59 43.33 109.75 43.33 109.75 43.33"/><rect class="cls-2" x="54.91" y="95.12" width="3.53" height="58.9"/><rect class="cls-2" x="36.92" y="154.02" width="39.51" height="3.32"/><path class="cls-5" d="M93.85,51.38,61.48,84.11a6.76,6.76,0,0,1-9.62,0L19.5,51.38h0l27,12.74a7,7,0,0,0,2.69.65c12.1.51,14.81-10,27.74-11.47l16.91-1.92Z"/><path class="cls-6" d="M115.58,26.22A14.93,14.93,0,1,1,105.34,52l-1.16,1.23A16.62,16.62,0,1,0,99,41l1.71,0A14.91,14.91,0,0,1,115.58,26.22Z"/><path class="cls-7" d="M115.58,22.58A18.59,18.59,0,0,0,97,40.92L99,41a16.68,16.68,0,1,1,5.22,12.27l-1.33,1.41a18.56,18.56,0,1,0,12.73-32.05Z"/><path class="cls-8" d="M130.51,41.15A14.92,14.92,0,0,0,100.67,41h.7v-.15h12.24A2,2,0,0,1,114,40l-8.65-8.65.45-.46,8.66,8.65a2,2,0,0,1,.84-.34V26.94h.65V39.18a2.07,2.07,0,0,1,.84.34l8.66-8.65.45.46L117.21,40a2,2,0,0,1,.35.85H129.8v.64H117.56a2,2,0,0,1-.35.85L125.86,51l-.45.46-8.66-8.66a2,2,0,0,1-.84.35V55.36h-.65V43.12a1.91,1.91,0,0,1-.84-.35l-6.67,6.67L105.34,52a14.91,14.91,0,0,0,25.17-10.84Z"/><path class="cls-6" d="M115.91,39.18V26.94h-.65V39.18a1.83,1.83,0,0,1,.32-.07A1.76,1.76,0,0,1,115.91,39.18Z"/><path class="cls-6" d="M114.42,39.52l-8.66-8.65-.45.46L114,40A2,2,0,0,1,114.42,39.52Z"/><path class="cls-6" d="M115.26,43.12V55.36h.65V43.12a1.76,1.76,0,0,1-.33.07A1.83,1.83,0,0,1,115.26,43.12Z"/><path class="cls-6" d="M116.75,42.77l8.66,8.66.45-.46-8.65-8.65A1.79,1.79,0,0,1,116.75,42.77Z"/><path class="cls-6" d="M117.56,41.47H129.8v-.64H117.56a1.65,1.65,0,0,1,.06.32A1.8,1.8,0,0,1,117.56,41.47Z"/><path class="cls-6" d="M117.21,40l8.65-8.65-.45-.46-8.66,8.65A2,2,0,0,1,117.21,40Z"/><path class="cls-6" d="M115.26,43.12a1.83,1.83,0,0,0,.32.07,1.76,1.76,0,0,0,.33-.07,2,2,0,0,0,.84-.35,1.79,1.79,0,0,0,.46-.45,2,2,0,0,0,.35-.85,1.8,1.8,0,0,0,.06-.32,1.65,1.65,0,0,0-.06-.32,2,2,0,0,0-.35-.85,2,2,0,0,0-.46-.46,2.07,2.07,0,0,0-.84-.34,1.76,1.76,0,0,0-.33-.07,1.83,1.83,0,0,0-.32.07,2,2,0,0,0-1.3.8,2,2,0,0,0-.35.85c0,.1-.06.19-.06.29l2,0-1.39,1.47a1.14,1.14,0,0,0,.23.15A1.91,1.91,0,0,0,115.26,43.12Z"/><line class="cls-9" x1="154.9" y1="108.16" x2="507.21" y2="108.16"/></g></g></svg>