<svg xmlns="http://www.w3.org/2000/svg" viewBox="0 0 1710.15 310.12"><defs><style>.cls-1{stroke:#000;stroke-width:11.06px;}.cls-1,.cls-4{stroke-miterlimit:10;}.cls-2{fill:#fff;}.cls-3{fill:#00c7ff;}.cls-4{fill:none;stroke:#070c11;stroke-width:17.79px;}</style></defs><g id="Layer_2" data-name="Layer 2"><g id="Layer_1-2" data-name="Layer 1"><path d="M767,297.85c-1.25,0-2.5,0-3.73-.1-14.27-.49-34.59-2.84-48.27-17.15-5.1-4.73-11.89-11.08-16.81-18l-1.72-2.37a115.11,115.11,0,0,1-10.15-15.8,121.76,121.76,0,0,1-9.38-24.5l-.28-1.08a164.76,164.76,0,0,1-4.76-25.8v-.12c-.73-7.64-1.12-15.09-1.2-22.76,0-1.38,0-2.67,0-3.82,0-6.59.13-12.67.39-18.6.18-4.5.44-9.11.81-14.09,1.1-16.5,3.88-30.52,8.26-41.66l0-.09a149.17,149.17,0,0,1,8.4-18c.7-1.28,1.31-2.4,1.91-3.6l.05-.1c2.34-4.64,6-10.17,11.85-18l.39-.52L704,50.2c2-2.34,4.12-4.75,5.27-6.38l.24-.34.26-.34a63.4,63.4,0,0,1,31.68-22.61,127.92,127.92,0,0,1,19-5A56.62,56.62,0,0,1,772,14.34a64.76,64.76,0,0,1,25,5.25c21.07,7.66,40.22,24.5,51.32,45.15l.08.15,2.1,4c6.79,12.8,13.82,26,16.8,43l.14.76A282,282,0,0,1,872,142.09c.3,3.57.46,7.26.46,10.9,0,1.77-.06,3.59-.18,5.91l-.07,1.17c-.62,10.82-1.32,23.09-4,35.11a97.25,97.25,0,0,1-2.58,9.75,116.33,116.33,0,0,1-7.58,20c-.66,1.46-1.51,3.78-2.33,6a100.94,100.94,0,0,1-5.46,13l-1,1.77c-.47.85-.94,1.68-1.4,2.52l-5.45,10h-.71l-.42.6,0,.05a72.17,72.17,0,0,1-7.8,9.28l-.49.5-.53.46a114.64,114.64,0,0,1-12.25,9.16c-2,1.33-3.87,2.59-5.86,4.09l-.32.25-.34.23C799.53,292.5,783,297.85,767,297.85ZM752.09,193.18a89.69,89.69,0,0,0,2.68,10.46c1.08,3.27,3.79,8.13,7.08,12.72l.16.21.14.22a25.53,25.53,0,0,0,2.32,3c.65-.05,1.52-.16,2.58-.33a11.82,11.82,0,0,0,3.44-1,33.85,33.85,0,0,0,3.42-4.07c.94-1.2,2-2.57,3.23-4.07l.29-.36.32-.35c6.46-7.14,11.49-18.23,14.14-31.23.39-1.9.7-3.6.94-5.2v-.11c.2-1.25.35-2.39.46-3.41l0-.24a105.39,105.39,0,0,0,.77-12.77,92.74,92.74,0,0,0-1-13.35l0-.36c-1.66-12.34-6.27-24.78-11.08-36.44a58,58,0,0,0-5.38-8.3l-.16-.2-.16-.2a16.27,16.27,0,0,0-4.5-4.36c-1.32.43-4.9,2.43-9.47,8.51l-.16.2c-6.39,8.28-9,21.1-11.71,34.68l-.16.76a115.7,115.7,0,0,0-1.92,21.77,170.59,170.59,0,0,0,1.67,23.1l0,.35.17.93c.45,2.44.86,4.66,1.26,6.72l.24,1.25Z"/><path d="M845.57,287.5c0-1.76-.1-3.68-.21-5.71A113.66,113.66,0,0,1,845.2,269c0-3.18.42-13.2,1.2-34.16l0-.92v-.69c.91-24.38,1-30.08,1-31.31v-.51c.13-5.09.31-10.19.49-15.26.34-10.05.67-19.55.67-28.76,0-1.91-.08-4-.18-6.14-.1-2.35-.2-4.77-.21-7.33-.7-15.42-2.08-32.55-4.11-50.92L844,91.87c-.72-5.89-1.4-11.51-2.1-17.44-.45-2.47-.83-5.63-1.28-9.79l-1.51-14L852,45a126.57,126.57,0,0,1,13.88-4.88c2-.63,4-1.22,5.54-1.78l.29-.1.29-.1c9.59-3.08,20.2-5.27,29.56-7.21l6.72-1.41,18.1-3.89,4.5,18c.61,2.43,1.27,5,2,7.6-.68-15.08-.79-23.73,0-28.75l2.54-16.18h16.38c6.07,0,12.53-.33,19.37-.68l1.35-.07c2-.11,4.34-.37,6.84-.66a121.07,121.07,0,0,1,13.54-1c1.13,0,2.23,0,3.29.09l19.23,1-1.14,19.22c-1.12,18.79-1.12,37.49-1.12,57.3s0,40-.78,61.9V155.9c0,9.84,0,20,.36,29.27l0,.54c.44,7.66.9,15.57,1.49,23.33l0,.33c.06,1,.14,2,.22,3,.32,3.86.72,8.52,1.21,13.06a289.33,289.33,0,0,0,6.18,37.41l3.56,14.76-15.21,7.67c-3.6,1.82-6.7,3.38-8.63,4.49l-1,.59-1.1.46a78.47,78.47,0,0,1-8.1,2.82,38.69,38.69,0,0,0-4.31,1.46l-.23.09-.24.1c-5.14,2-9.78,3.57-14.69,5.23-2.17.73-4.42,1.5-6.82,2.33l-17.5,6.1-6.67-17.28a204.5,204.5,0,0,1-8-26.07c-1.54-6.13-3.13-12.46-5.89-20.74-.56-1.62-1.08-3.07-1.59-4.48.18,6.71.51,13.82,1,21.92.3,4.91.64,10,1.05,15.67l1.18,16.56-16.22,3.52c-2,.45-4.15,1-6.37,1.55-3.18.82-6.46,1.66-10.22,2.4l-.28.06-.29.05c-4.82.8-9.54,1.51-14.1,2.18s-8.92,1.33-13.39,2.07l-22.31,3.73Z"/><path class="cls-1" d="M173.27,64.86c-1.29,9.67-3.22,21.29-4.51,31-1.62,13.23-5.49,31-7.74,43.55-2.58,13.54-4.2,26.77-6.45,40a541.66,541.66,0,0,0-7.1,69.35c-.32,4.19-.65,9-1,13.22-16.13,3.87-33.22,4.52-40.32,4.52-6.13-24.51-13.54-51-20.64-75.48-1.29,5.49-2.9,12.58-3.87,17.42-1.29,7.1-2.58,11-3.55,16.77-2.9,15.49-6.77,31.29-7.74,48.71-12.9,1.61-29.67,2.26-37.74,2.58-2.58-19-4.84-41.61-7.74-66.12-2.26-15.16-4.19-30.32-6.45-45.16-1.29-7.42-1.61-14.51-2.9-21.93C13.29,127.43,11,111.3,9.1,95.18c-1-5.81-1.94-11.94-2.91-18.07C13,74.86,28.13,70.34,42,69.37c1.61,10,2.25,21.61,2.9,30.65,1.61,15.15,2.9,31.93,6.77,62.57.65,6.45,3.23,17.74,4.84,27.74,4.84-22.9,9.68-49.35,10.64-73.54.33-6.78.33-15.16,1.3-23.55,8.38-1.61,27.09-4.19,34.51-3.87.64,10,.32,20.64,1.29,31,1.93,21.61,3.22,34.19,9,54.51,1.29,2.58,2.58,8.38,3.55,11.29,2.26-12.26,4.51-24.2,6.77-37.42,2.9-16.45,4.84-39,7.42-55.16,1.93-11,3.23-22.9,5.48-37.73A213.6,213.6,0,0,1,173.27,64.86Z"/><path class="cls-1" d="M289.71,258.71c-12.26,3.87-28.06,9-36.45,11.29a52,52,0,0,1-1.61-6.78c-1-7.74-2.26-11.61-3.87-21.61-1.29-4.84-2.26-10-3.23-14.83-12.58,2.25-29,5.48-41.93,8.38-2.9,13.87-6.45,29-10.64,42.26-11.29-2.91-26.77-5.17-34.52-7.42,1-2.58,3.55-11.29,4.2-13.87,1.61-5.16,4.19-10.65,5.48-16.77,1-4.2,1.61-8.39,2.58-12.26,1.29-4.84,1.94-8.06,3.23-13.87,1-4.84,1.61-11.29,2.9-16.13,1.93-8.71,3.22-18.71,5.48-31,3.23-18.39,6.45-35.16,8.71-53.55,1.61-11,1.94-20,3.23-30.64.32-2.26,0-10,.32-11.93,10.64-1.94,39-10.65,53.22-12.58,1.29,6.13,2.58,13.22,3.55,18.71,2.58,15.16,2.9,30.64,5.48,42.9,2.26,12.57,4.84,23.86,7.42,35.8s5.16,25.16,8.06,37.09c2.26,9,5.81,20.32,7.74,29.68a114.41,114.41,0,0,0,5.17,18.7C285.52,244.84,288.1,254.19,289.71,258.71Zm-51.29-62.58-1.93-8.7c-1.94-9.68-4.52-18.39-6.13-28.07a157.66,157.66,0,0,0-4.19-20.64c-1.29-5.8-2.26-12.9-4.2-18.71-2.25,7.42-2.9,15.49-4.19,23.23-1.61,9-3.22,18.7-4.51,28.06-1.3,10-2.91,20-4.2,29.67C219.07,199,230.36,197.42,238.42,196.13Z"/><path class="cls-1" d="M338.41,178.39c1.62-9.35,3.23-18.38,5.17-29,3.87-19.68,4.51-25.81,8.7-45.48C355.51,88.4,359.38,71,362,55.5c11.29,1.62,28.71,5.16,36.45,7.74-.65,2.59-3.87,11-4.52,13.55-1.61,5.81-2.9,10.32-4.19,16.45-1,4.19-2.26,9.36-3.55,13.55-1,4.51-1.93,7.74-3.22,13.55A151.46,151.46,0,0,1,380,136.79c-2.25,9-3.87,17.09-6.45,30-1.93,10.65-5.16,19.68-10,47.42A506.63,506.63,0,0,0,356.8,270c-11,2.25-30.32,4.19-44.83,6.45-1-6.13-2.26-13.87-3.23-19.35-2.58-15.16-6.13-28.39-8.39-41.29-2.58-12.26-5.16-23.55-8.06-36.13-2.58-11.93-4.52-25.48-7.42-37.09-2.58-9.67-6.13-20.64-7.74-30.64a140.4,140.4,0,0,0-5.48-19c-1.62-4.19-3.87-14.19-5.16-18.39,12.25-4.19,28.06-9.35,36.44-11.29,0,.33,1.62,6.13,1.62,6.46,1,7.74,1.93,12.25,3.87,21.93C311.64,110,315.19,121,319.06,139c0,0,6.13,31.94,13.55,61A118.34,118.34,0,0,0,338.41,178.39Z"/><path class="cls-1" d="M505.17,257.42c-14.84,3.87-30.64,5.8-45.8,10.32-4.19,1.29-14.84,2.58-31.61,6.13-4.52,1-10.32,2.58-16.77,3.87-.33-5.16-.65-10.65-.65-16.13,0-3.55.32-7.1.32-10.64,1-17.42,2.26-36.77,2.58-54.51.33-11.94.65-23.55.65-35.48,0-7.1,0-14.2-.32-21.94-.33-6.77-.33-18.06-.33-24.51-3.87,1-8.06,2.26-11.93,2.9-1.61-11.61-4.51-23.87-3.55-36.12,2.58-.65,4.2-1.62,6.13-2.26,5.48-1.29,8.71-2.26,13.87-3.23,4.84-1.29,9.35-2.25,14.19-3.22,5.81-1.29,11.61-2.58,17.74-4.19,15.49-3.55,45.48-11.62,59-12.91a279.59,279.59,0,0,1,3.87,36.13c-4.52.64-9.35,1.29-13.55,2.26-15.48,3.22-35.15,8.06-52.57,12.25v6.45c0,14.52.32,33.87.32,48.06v5.81c5.48-1.29,10.64-2.26,16.13-3.55,11.29-2.58,24.83-5.16,36.12-7.42,1,7.74,2.91,24.84,1.94,37.1-5.81,1.29-11.94,2.58-16.45,3.22-9,1.61-18.71,2.91-28.06,4.84a88.39,88.39,0,0,0-11.62,2.9c-.32,6.45-.32,12.91-.32,19,0,4.84,0,9.36.32,13.87,11.94-2.9,22.26-4.84,33.23-7.42,12.9-2.9,27.74-6.77,40.32-9.35.32,8.39,1,21,.64,34.83C514.2,255.48,508.07,256.77,505.17,257.42Z"/><path class="cls-1" d="M651.93,230.65c0,18.06-14.19,35.15-31.61,43.86-8.06,4.2-19,6.13-28.06,6.78-10.65,1-27.74-.33-36.13-4.52-4.19-2.26-7.74-4.84-11.61-7.42-10-6.77-17.1-18.06-20-26.77-1-3.55-4.51-15.8-2.58-25.48,11.29-2.58,20.32-2.26,27.74-2.58H559c0,8.06,1.29,18.71,4.52,22.25,6.45,6.13,16.45,9.68,26.13,9.68,8.71,0,17.41-2.9,22.58-8.71,8.7-10-19-24.19-31-31.93-15.48-10.64-26.13-15.48-38.71-27.42-11.28-11-15.48-29.35-15.48-44.18A59.69,59.69,0,0,1,529,118.08c8.38-28.06,34.83-61.93,69.67-61.93,8.06,0,15.16,1,21.61,6.45,5.16,4.52,6.13,5.81,9.68,11.93,5.16,10.33,5.16,24.52,6.12,36.45.65,6.13-1.61,29-4.51,37.09-13.55-1-27.42-4.19-34.19-5.8.64-3.87,2.9-21.29,3.22-23.87.33-9.35-.32-17.42-2.58-22.9-5.16-11.29-32.25,21.61-33.86,31.93-4.2,25.48,8.06,28.06,32.57,45.48,6.78,4.84,18.39,11.29,24.84,16.77,9,6.78,12.58,8.39,18.71,14.84C648.06,212.58,651.93,221.62,651.93,230.65Z"/><path class="cls-1" d="M1174.39,152.91c-1.29,19-9.35,35.81-22.26,55.16-13.22,19.67-27.41,32.9-45.47,45.8-7.42,5.48-15.16,8.71-24.2,14.19-3.87,2.26-11.93,5.16-15.8,6.78-3.23,1.29-7.1,2.25-10.32,3.22-1.29-4.51-1.29-9.35-1.61-12.58a128.55,128.55,0,0,1-.65-15.8q.48-15,1-30c.64-19.67,1.93-38.38,1.93-57.74,0-5.16,0-10.64-.32-15.8-.64-16.13-1.29-32.9-1.61-48.71-4.84-1.29-10-.64-15.48-1.61.64-13.54,3.22-30.32,4.51-38.38,13.87.64,21.61-.32,37.42,5.16,6.13,1.93,12.58,3.87,18.06,6.45,2.9,1,6.13,2.9,9,4.19,11.29,5.81,15.81,9.68,21.29,13.87A236.51,236.51,0,0,1,1153.43,111c5.8,6.45,10,11.94,13.86,20.64C1170.2,137.75,1174.71,145.49,1174.39,152.91Zm-37.74,14.2a24.38,24.38,0,0,0,1.94-9.36c0-22.25-30.32-47.41-48.38-54.19-.33,4.2-.65,15.16-.65,20,.65,10,.32,20.64,1,30.64.32,5.49,0,13.23.32,18.71.65,10.32-.64,18.39-.64,28.39,0,6.77,0,11.93-.33,20.32C1089.88,221.62,1121.82,204.84,1136.65,167.11Z"/><path class="cls-1" d="M1304.38,259.68a148.31,148.31,0,0,1-30,23.22c-2.58-2.9-5.16-6.45-7.74-9.68-9-12.58-18.71-31-24.83-44.83-3.87-9-7.75-16.77-11.29-28.38-1.62.64-8.71,4.19-10.33,4.83,0,12.58,0,25.16.33,37.42v12.9c0,6.13,0,12.9-1,17.09a255.9,255.9,0,0,1-27.74,1.62,91.63,91.63,0,0,1-10-.32c1-12.58,2.26-24.52,2.26-38.39,0-9.35.32-13.87.64-21.29V166.46c-.32-20.64-2.25-41.29-2.58-61.93a85.16,85.16,0,0,0-.32-9c-3.55,0-7.74-.32-11.93,0-.33-17.42.64-37.09.64-37.09,3.23.32,6.78,0,13.23,0,3.87,0,8.71,0,15.48.32,8.71.32,24.51,1.93,32.9,4.51,22.25,6.78,37.09,14.52,47.41,26.78,5.16,6.12,8.39,9.35,11.94,15.48,4.19,7.09,7.74,15.48,8.06,22.9.65,14.84-5.48,25.16-12.58,33.54-6.13,7.42-17.09,17.74-26.12,22.58a159.13,159.13,0,0,0,18.7,41.61C1287,237.42,1294.06,250,1304.38,259.68ZM1219.23,96.79c.32,5.48.64,10.32.64,15.48,0,6.13-.32,12.9-.64,19.35,0,11.94,0,23.55.32,35.49a77.86,77.86,0,0,0,15.48-7.42c10.32-5.16,27.74-13.87,28.71-27.1.64-12.25-15.81-24.51-25.48-29.35C1233.1,100.34,1224.71,97.43,1219.23,96.79Z"/><path class="cls-1" d="M1311.79,271.29c0-5.16.65-11,.65-15.49.64-18.7,1.93-37.09,1.93-55.47V108.72c0-10.64,0-20.64-.64-31.28-.32-2.91-.32-6.13-.65-9.36,8.71-1.61,23.23-3.87,34.52-4.84V73.57c.32,10.32,0,19-.33,31.93-.32,6.13-.32,11.93-.32,18.06,0,23.22,1.29,46.13,1,69.67-.32,23.87,1.29,47.74,1.29,71.93C1336.31,268.06,1319.86,270.32,1311.79,271.29Z"/><path class="cls-1" d="M1474,168.72c-9,8.71-21,20.32-31.29,27.09a177.84,177.84,0,0,1-22.9,13.55c-4.2,1.93-10.65,4.84-14.52,7.1,0,4.19-.64,7.41-.64,11.28,0,14.84,1.93,30,2.9,44.51-7.42.65-15.8,1-23.87,1-6.13,0-11.93-.32-15.48-.32,0-16.13,1.94-32.58,2.58-51,.32-9,.32-18.06.32-27.74V166.46c0-19-1-38.38-1.61-59.67-.32-5.16-.64-10.65-1-15.81-3.22-.32-7.42-1-11-1.29,2.58-20.32,5.8-34.19,5.8-34.19,34.51,2.58,79,14.84,104.19,42.9,5.48,6.45,9.67,13.23,13.54,19,3.23,5.81,5.16,12.26,5.16,17.74C1487.26,148.07,1481.13,161,1474,168.72Zm-33.55-48.38a70.74,70.74,0,0,0-20.64-15.49c-2.58-1.29-7.74-2.58-12.9-4.51-.33,19.35-3.23,39.67-2.58,59.35.32,5.8.32,13.54.32,19,15.8-5.81,33.87-17.42,45.8-32.26C1456,139.37,1446.62,126.46,1440.49,120.34Z"/><path class="cls-2" d="M996.69,227.52c-.49-4.55-.89-9.09-1.27-13.61-.09-1.13-.17-2.29-.24-3.42-.62-8.18-1.09-16.33-1.55-24.4-.38-9.67-.38-20.13-.38-30.19V143.11c.78-21.66.78-41.81.78-61.56s0-39.08,1.15-58.43c-7-.38-14.7,1.17-21.66,1.55-7.38.37-14.72.77-21.7.77C950.67,32.78,953,66.1,953,71.11v63.51c0,7.33,0,14.32-.38,24.36-2.35-4.26-2.35-4.26-5.83-11.22-4.63-9.69-6.59-15.09-9.29-21.68a292,292,0,0,1-11.22-31c-4.65-13.56-10.06-31.34-13.94-46.83-10.84,2.32-23.61,4.65-34.45,8.13-5.41,1.93-12,3.48-18.2,6.19.38,3.5.78,7,1.18,8.91.77,6.58,1.53,12.76,2.33,19.33,1.93,17.44,3.45,35.24,4.23,52.66,0,4.64.4,9.29.4,13.93,0,14.34-.78,29.43-1.18,44.53,0,2.9-.51,17.25-1.06,32v.18c0,.22,0,.71,0,1.42-.6,15.94-1.2,31.94-1.2,34.11-.4,6.59.38,12,.38,17.8,9.28-1.55,18.2-2.7,27.48-4.25,5.81-1.16,10.84-2.71,16.25-3.88-.4-5.57-.75-10.84-1.06-15.87-.65-10.51-1-20-1.18-29.18v0q-.09-4.38-.09-8.73c0-18.58-1.53-36.78-1.53-55,0-5,0-10,.4-15.07a121,121,0,0,1,8.21,11.93c2.39,3.92,4.65,8,6.76,12,1.39,2.6,2.72,5.21,4,7.76,3.5,7.38,7,16.25,10.06,23.63,6.18,14.32,8.14,18.95,11.22,27.86,6.58,19.73,7,29,13.56,46.07,7.76-2.71,13.92-4.64,20.88-7.34,4.66-1.95,7.76-2.33,12.42-4.28,2.7-1.55,6.58-3.48,11.19-5.81A306,306,0,0,1,996.69,227.52Z"/><path class="cls-2" d="M852.87,143.66c-.78-9.44-2.6-18.84-4.41-28.42-2.71-15.49-9.67-27.49-17-41.43-8.53-15.87-24-30.19-41.43-36.37-8.13-3.48-17-5-25.95-3.11a109.19,109.19,0,0,0-16.25,4.28A44.87,44.87,0,0,0,725,54.86c-1.9,2.7-4.63,5.78-7.33,8.91C713,70,709.51,75,707.56,78.84c-2.7,5.43-5,8.54-9.66,20.15-4.26,10.84-6.21,24.39-7,36-.33,4.52-.59,9-.77,13.55-.27,5.94-.38,11.88-.38,17.8,0,1.13,0,2.26,0,3.37.06,7.31.44,14.38,1.1,21.41A146,146,0,0,0,695.15,214l.22.87a103.2,103.2,0,0,0,7.94,20.79c2.7,5.43,6.58,10.46,10.46,15.87s9.66,10.84,14.69,15.5c8.54,9.29,23.61,11.21,35.61,11.61,13.54.76,27.48-3.88,38.72-11.61,6.19-4.66,10.84-7,17.05-12.39a54.26,54.26,0,0,0,6.69-8.21l0,0c1.64-2.39,3.09-4.85,4.5-7.38h0c.75-1.37,1.53-2.75,2.3-4.14,2.71-5,5-13.17,7.36-18.2a97.33,97.33,0,0,0,6.58-17.4,77.62,77.62,0,0,0,2.16-8.12c2.41-10.93,3-22.5,3.63-33.29.09-1.62.16-3.24.16-4.86C853.27,149.87,853.13,146.76,852.87,143.66Zm-121.32-9.84c3.12-15.5,6.2-31.35,15.49-43.36,7-9.29,15.87-16.25,25.16-16.25,6.21,0,13.17,3.88,19.35,12a77.86,77.86,0,0,1,7.76,12c5.79,13.94,10.84,27.86,12.77,42.18a110.27,110.27,0,0,1,1.17,16.27,124.67,124.67,0,0,1-.9,15.1c-.16,1.42-.36,2.86-.58,4.28-.31,2.06-.69,4.12-1.11,6.18-3.13,15.3-9.22,29.77-18.71,40.26-7,8.49-8.89,13.54-21.68,15.87-9.66,1.53-15.87,1.15-24-10.84-3.88-5.41-7.76-12-9.69-17.82a107.06,107.06,0,0,1-3.26-12.6c-.2-.95-.4-1.92-.6-3v0c-.48-2.52-1-5.3-1.57-8.4,0-.18,0-.35-.07-.55a189.52,189.52,0,0,1-1.86-25.78A135.11,135.11,0,0,1,731.55,133.82Z"/><path class="cls-3" d="M831.05,239c-1.41,2.53-2.86,5-4.5,7.38l0,0a54.26,54.26,0,0,1-6.69,8.21C813.63,260,809,262.34,802.79,267c-11.24,7.73-25.18,12.37-38.72,11.61-12-.4-27.07-2.32-35.61-11.61-5-4.66-10.83-10.07-14.69-15.5s-7.76-10.44-10.46-15.87a103.2,103.2,0,0,1-7.94-20.79l-.22-.87s41.32,62.25,63.68,41.32S784.33,274.76,831.05,239Z"/><path class="cls-3" d="M1003.29,267.37c-4.61,2.33-8.49,4.26-11.19,5.81-4.66,1.95-7.76,2.33-12.42,4.28-7,2.7-13.12,4.63-20.88,7.34-6.58-17.05-7-26.34-13.56-46.07-3.08-8.91-5-13.54-11.22-27.86-3.1-7.38-6.56-16.25-10.06-23.63-1.27-2.55-2.6-5.16-4-7.76,6.34-5.81,20.37-11.79,43.58,12.86,14.29,15.18,24.56,18.86,31.63,18.15.07,1.13.15,2.29.24,3.42.38,4.52.78,9.06,1.27,13.61A306,306,0,0,0,1003.29,267.37Z"/><path class="cls-3" d="M908.46,279.37c-5.41,1.17-10.44,2.72-16.25,3.88-9.28,1.55-18.2,2.7-27.48,4.25,0-5.81-.78-11.21-.38-17.8,0-2.17.6-18.17,1.2-34.11-.18,8.09-.58,44.66,10.77,35.71,12.9-10.15,14.85,7.56,20.81,0,2.29-2.91,6-26.62,9.09-37,.14,9.18.53,18.67,1.18,29.18C907.71,268.53,908.06,273.8,908.46,279.37Z"/><path class="cls-4" d="M1609.16,292.78A91.77,91.77,0,0,1,1529.79,155l41-70.41,38.59-66.79,38.6,66.79,41,70.41a91.78,91.78,0,0,1-79.38,137.8Z"/><path class="cls-3" d="M1673.65,199.94A65.1,65.1,0,0,1,1548.07,224s-6.27-19.38-4.23-15.88,32.77,32.91,39,15.67c1.92-5.36-10.54-10-8.66-13.06,3.49-5.7,10.84-1.78,16.66,1.51,14.81,8.3,49.69,24.51,36.16-16.21-17-51.21-4.36-55.24,11.53-28.58,10.93,18.35,23.19,19.42,26.39-.21A64.83,64.83,0,0,1,1673.65,199.94Z"/></g></g></svg>