<svg id="Layer_1" data-name="Layer 1" xmlns="http://www.w3.org/2000/svg" viewBox="0 0 2221.33 463.99">
  <defs>
    <style>
      .cls-1 {
        fill: #fff;
        opacity: 0.05;
        isolation: isolate;
      }
    </style>
  </defs>
  <title>city</title>
  <rect class="cls-1" y="182" width="150" height="281.99"/>
  <rect class="cls-1" x="169" y="182" width="92" height="281.99"/>
  <rect class="cls-1" x="537" y="222" width="121" height="241.99"/>
  <rect class="cls-1" x="890" y="158" width="336" height="305.99"/>
  <polygon class="cls-1" points="1761.12 0 1761.12 208.15 1381 208.15 1381 463.99 1761.12 463.99 2221.33 463.99 2221.33 208.15 2221.33 0 1761.12 0"/>
  <polygon class="cls-1" points="396.5 222 396.5 257 277 257 277 463.99 516 463.99 516 298.3 516 257 516 222 396.5 222"/>
  <polygon class="cls-1" points="783.33 89 783.33 159 731.5 159 731.5 463.99 853 463.99 853 212.99 853 159 853 89 783.33 89"/>
</svg>
